SplineFontDB: 1.0
FontName: Loma-Oblique
FullName: Loma Oblique
FamilyName: Loma
Weight: Book
Copyright: Copyright (c) NECTEC, 2003. All rights reserved.
Version: 0.9.1; 2003
ItalicAngle: -12
UnderlinePosition: -170
UnderlineWidth: 20
Ascent: 1638
Descent: 410
NeedsXUIDChange: 1
FSType: 0
PfmFamily: 33
TTFWeight: 400
TTFWidth: 5
Panose: 2 11 5 4 2 2 2 2 2 4
LineGap: 0
VLineGap: 0
OS2TypoAscent: 2089
OS2TypoDescent: -430
OS2TypoLinegap: 0
OS2WinAscent: 2089
OS2WinAOffset: 1
OS2WinDescent: 430
OS2WinDOffset: 1
HheadAscent: 0
HheadAOffset: 1
HheadDescent: 0
HheadDOffset: 1
ScriptLang: 3
 1 latn 1 dflt 
 1 thai 4 KUY  PAL  THA  dflt 
 1 thai 1 PAL  
ContextSub: glyph 0 2 ' RQD' 0 0 0 1
 String: 15 uni0E0D uni0E10
 BString: 0 
 FString: 0 
 1
  SeqLookup: 0 'ndsc'
EndFPST
ChainSub: coverage 0 1 'ccmp' 0 0 0 1
 2 0 0
  Coverage: 19 uni0E4B uni0E4B.low
  Coverage: 7 uni0E4D
 2
  SeqLookup: 0 'amni'
  SeqLookup: 1 'G007'
EndFPST
ChainSub: coverage 0 1 'ccmp' 0 0 0 1
 2 0 0
  Coverage: 19 uni0E4A uni0E4A.low
  Coverage: 7 uni0E4D
 2
  SeqLookup: 0 'amni'
  SeqLookup: 1 'G006'
EndFPST
ChainSub: coverage 0 1 'ccmp' 0 0 0 1
 2 0 0
  Coverage: 19 uni0E49 uni0E49.low
  Coverage: 7 uni0E4D
 2
  SeqLookup: 0 'amni'
  SeqLookup: 1 'G005'
EndFPST
ChainSub: coverage 0 1 'ccmp' 0 0 0 1
 2 0 0
  Coverage: 19 uni0E48 uni0E48.low
  Coverage: 7 uni0E4D
 2
  SeqLookup: 0 'amni'
  SeqLookup: 1 'G004'
EndFPST
ChainSub: coverage 0 1 'ccmp' 0 0 0 1
 1 0 1
  Coverage: 15 uni0E0D uni0E10
  FCoverage: 23 uni0E38 uni0E39 uni0E3A
 1
  SeqLookup: 0 'nds0'
EndFPST
ChainSub: coverage 0 1 'ccmp' 0 0 0 1
 1 2 0
  Coverage: 39 uni0E48 uni0E49 uni0E4A uni0E4B uni0E4C
  BCoverage: 23 uni0E38 uni0E39 uni0E3A

StartChar: .notdef
Encoding: 0 -1 0
OldEncoding: 0
Width: 1536
Flags: HW
Fore
256 0 m 1
 528 1280 l 1
 1552 1280 l 1
 1280 0 l 1
 256 0 l 1
295 32 m 1
 1255 32 l 1
 1513 1248 l 1
 553 1248 l 1
 295 32 l 1
EndSplineSet
EndChar
StartChar: exclam
Encoding: 3 33 5
OldEncoding: 33
Width: 569
Flags: HW
Fore
410 999 m 1
 506 1450 l 1
 686 1450 l 1
 590 999 l 1
 413 365 l 1
 320 365 l 1
 410 999 l 1
247 194 m 1
 411 194 l 1
 370 0 l 1
 206 0 l 1
 247 194 l 1
EndSplineSet
EndChar
StartChar: quotedbl
Encoding: 4 34 6
OldEncoding: 34
Width: 727
Flags: HW
Fore
357 947 m 1
 365 1217 l 1
 414 1450 l 1
 594 1450 l 1
 545 1217 l 1
 442 947 l 1
 357 947 l 1
688 947 m 1
 698 1217 l 1
 747 1450 l 1
 927 1450 l 1
 878 1217 l 1
 773 947 l 1
 688 947 l 1
EndSplineSet
EndChar
StartChar: numbersign
Encoding: 5 35 7
OldEncoding: 35
Width: 1139
Flags: HW
Fore
85 -10 m 1
 256 385 l 1
 103 385 l 1
 141 565 l 1
 324 565 l 1
 468 895 l 1
 211 895 l 1
 249 1075 l 1
 536 1075 l 1
 707 1470 l 1
 887 1470 l 1
 716 1075 l 1
 995 1075 l 1
 1166 1470 l 1
 1346 1470 l 1
 1175 1075 l 1
 1341 1075 l 1
 1303 895 l 1
 1107 895 l 1
 962 565 l 1
 1233 565 l 1
 1195 385 l 1
 894 385 l 1
 723 -10 l 1
 544 -10 l 1
 714 385 l 1
 436 385 l 1
 265 -10 l 1
 85 -10 l 1
504 565 m 1
 782 565 l 1
 927 895 l 1
 648 895 l 1
 504 565 l 1
EndSplineSet
EndChar
StartChar: dollar
Encoding: 6 36 8
OldEncoding: 36
Width: 1139
Flags: HW
Fore
487 -17 m 1
 416 -8 354 11 301 40 c 0
 250 67 210 110 182 169 c 0
 178 178 l 0
 160 219.25 151 265 151 315.25 c 0
 151 332 152 349.25 154 367 c 1
 165 417 l 1
 344 417 l 1
 342.936 401.567 342.406 386.825 342.406 372.771 c 0
 342.406 307.599 353.79 257.195 376 221 c 1
 386 207 394 195 402 185 c 0
 432 147 471 126 517 123 c 1
 629 651 l 1
 623 652 617 654 611 655 c 0
 566 665 509 690 439 731 c 1
 389 760 353 800 333 851 c 0
 321.523 880.84 315.973 913.315 315.973 948.424 c 0
 315.973 974.496 319.034 1002.02 325 1031 c 0
 350 1148 415 1243 521 1318 c 0
 526 1321 530 1323 534 1326 c 0
 603 1371 689 1399 790 1409 c 1
 807 1488 l 1
 950 1488 l 1
 933 1409 l 1
 947 1408 l 2
 1029 1399 1095 1370 1145 1323 c 0
 1156 1313 1167 1302 1176 1290 c 0
 1217.39 1236.65 1238.48 1177.37 1238.48 1111.39 c 0
 1238.48 1105.65 1238.32 1099.85 1238 1094 c 1
 1231 1050 l 1
 1056 1050 l 1
 1056.42 1055.56 1056.63 1061.09 1056.63 1066.59 c 0
 1056.63 1113.46 1041.33 1157.93 1010 1200 c 2
 1002 1211 l 1
 978 1242 945 1261 904 1269 c 1
 802 790 l 1
 803 789 l 1
 892 762 l 2
 919 754 941 747 955 741 c 0
 1029 708 1081 662 1109 604 c 0
 1126.99 567.409 1135.74 526.971 1135.74 482.687 c 0
 1135.74 455.567 1132.46 427.005 1126 397 c 0
 1102 281 1042 185 947 108 c 0
 937 100 928 93 917 86 c 0
 831 25 736 -9 631 -15 c 1
 609 -118 l 1
 466 -118 l 1
 487 -17 l 1
761 1271 m 1
 747 1269 733 1266 720 1263 c 0
 682 1252 642 1229 600 1192 c 1
 550 1150 520 1101 508 1044 c 0
 504.211 1026 502.316 1009 502.316 992.96 c 0
 502.316 958.213 511.211 928 529 902 c 0
 531 899 532 896 535 893 c 0
 563 855 606 827 663 810 c 1
 761 1271 l 1
667 124 m 2
 685 127 711 136 746 151 c 0
 778 165 808 184 834 207 c 0
 860 230 882 257 901 287 c 0
 920 318 933 351 940 386 c 0
 944.447 406.526 946.671 425.648 946.671 443.406 c 0
 946.671 477.555 938.447 506.658 922 531 c 1
 896 572 845 605 768 629 c 1
 660 123 l 1
 667 124 l 2
EndSplineSet
EndChar
StartChar: percent
Encoding: 7 37 9
OldEncoding: 37
Width: 1821
Flags: HW
Fore
356 1114 m 0
 378 1219 423 1308 490 1380 c 0
 559 1454 643 1491 743 1491 c 0
 838 1491 908 1458 951 1392 c 0
 979.668 1348.04 994.131 1293.13 994.131 1227.26 c 0
 994.131 1189.73 989.436 1148.64 980 1104 c 1
 954 986 902 890 828 817 c 1
 756 750 673 717 580 717 c 0
 489 717 423 750 381 815 c 0
 353.822 857.619 339.998 912.066 339.998 978.103 c 0
 339.998 1018.98 345.295 1064.3 356 1114 c 0
722 1366 m 0
 675 1366 633 1347 598 1308 c 0
 560 1266 530 1195 509 1096 c 0
 499.582 1051.26 494.82 1012.96 494.82 980.979 c 0
 494.82 945.049 500.831 917.105 513 897 c 0
 535 859 568 840 611 840 c 0
 656 840 698 859 736 898 c 128
 774 937 804 1007 826 1110 c 0
 835.524 1154.76 840.286 1193.17 840.286 1225.24 c 0
 840.286 1260.51 834.524 1288.1 823 1308 c 0
 801 1347 767 1366 722 1366 c 0
1534 1491 m 1
 1714 1491 l 1
 636 -10 l 1
 456 -10 l 1
 1534 1491 l 1
1140 344 m 0
 1162 449 1207 538 1275 610 c 0
 1343 684 1428 721 1529 721 c 0
 1624 721 1693 688 1736 622 c 0
 1765.68 576.833 1780.79 520.84 1780.79 454.023 c 0
 1780.79 417.288 1776.22 377.28 1767 334 c 0
 1741 213 1690 117 1614 47 c 0
 1541 -20 1458 -53 1365 -53 c 0
 1272 -53 1205 -20 1165 46 c 0
 1137.88 89.7635 1124.44 144.545 1124.44 209.877 c 0
 1124.44 250.536 1129.64 295.281 1140 344 c 0
1507 598 m 0
 1459 598 1418 579 1383 540 c 0
 1345 497 1316 426 1294 326 c 0
 1284.85 281.203 1280.1 242.671 1280.1 210.404 c 0
 1280.1 175.682 1285.6 148.214 1297 128 c 0
 1319 89 1352 70 1395 70 c 0
 1442 70 1484 89 1521 128 c 0
 1558 167 1588 237 1610 340 c 0
 1619.63 385.281 1624.4 424.065 1624.4 456.575 c 0
 1624.4 491.553 1618.88 519.269 1608 540 c 128
 1586 578 1552 598 1507 598 c 0
EndSplineSet
EndChar
StartChar: ampersand
Encoding: 8 38 10
OldEncoding: 38
Width: 1366
Flags: HW
Fore
1010 172 m 1
 865 41 711 -25 548 -25 c 0
 398 -25 290 26 222 127 c 1
 184.115 186.33 164.624 250.259 164.624 318.787 c 0
 164.624 346.126 167.726 374.197 174 403 c 0
 213 586 360 733 615 842 c 1
 590 880 571 914 557 944 c 0
 542 974 531 1002 524 1027 c 0
 517 1052 513 1076 513 1098 c 128
 512.869 1100.76 512.806 1103.54 512.806 1106.33 c 0
 512.806 1124.79 515.526 1143.89 519 1163 c 0
 538 1252 588 1328 671 1393 c 0
 754 1458 849 1491 954 1491 c 0
 1052 1491 1126 1460 1177 1399 c 0
 1215.23 1354.16 1234.54 1302.29 1234.54 1243.79 c 0
 1234.54 1222.71 1232.03 1200.78 1227 1178 c 0
 1198 1039 1081 920 875 821 c 1
 1066 485 l 1
 1108 542 1146 611 1179 690 c 1
 1359 649 l 1
 1299 522 1233 417 1161 334 c 1
 1210 247 1270 172 1342 109 c 1
 1191 -35 l 1
 1129 13 1068 82 1010 172 c 1
805 938 m 1
 893 982 952 1022 983 1057 c 0
 1013 1092 1033 1131 1043 1174 c 0
 1045.82 1187.83 1047.21 1200.94 1047.21 1213.36 c 0
 1047.21 1244.94 1038.23 1272.03 1021 1295 c 0
 996 1327 959 1343 912 1343 c 0
 864 1343 821 1327 781 1296 c 0
 742 1265 718 1227 708 1182 c 0
 705.805 1171.68 704.718 1161.22 704.718 1150.6 c 0
 704.718 1112.81 718.462 1072.93 745 1030 c 1
 805 938 l 1
684 725 m 1
 575 666 498 612 453 562 c 0
 409 512 381 463 371 416 c 0
 367.326 398.761 365.489 381.362 365.489 363.849 c 0
 365.489 319.391 377.326 274.196 401 229 c 1
 435 165 496 133 583 133 c 0
 609 133 638 137 669 146 c 0
 700 155 732 168 762 184 c 0
 793 201 823 220 851 242 c 0
 880 263 905 288 927 315 c 1
 684 725 l 1
EndSplineSet
EndChar
StartChar: quotesingle
Encoding: 9 39 11
OldEncoding: 39
Width: 391
Flags: HW
Fore
337 947 m 1
 350 1221 l 1
 402 1466 l 1
 607 1466 l 1
 555 1221 l 1
 448 947 l 1
 337 947 l 1
EndSplineSet
EndChar
StartChar: parenleft
Encoding: 10 40 12
OldEncoding: 40
Width: 682
Flags: HW
Fore
387 -431 m 1
 289 -260 230 -71 213 135 c 0
 209.4 174.9 207.6 214.71 207.6 254.43 c 0
 207.6 347.11 217.4 439.3 237 531 c 0
 288 773 393 999 552 1209 c 0
 616 1294 697 1388 796 1491 c 1
 925 1491 l 1
 798 1332 709 1211 658 1130 c 0
 562 978 490 809 443 622 c 0
 436 592 428 561 422 530 c 0
 398.35 419.978 386.566 310.074 386.566 200.247 c 0
 386.566 -10.3583 429.9 -220.679 516 -431 c 1
 387 -431 l 1
EndSplineSet
EndChar
StartChar: parenright
Encoding: 11 41 13
OldEncoding: 41
Width: 682
Flags: HW
Fore
161 -431 m 1
 32 -431 l 1
 299 -111 467 209 536 530 c 0
 563.144 657.877 576.825 777.385 576.825 888.525 c 0
 576.825 961.638 570.904 1031.13 559 1097 c 0
 543 1190 506 1316 447 1475 c 0
 444 1482 444 1482 441 1491 c 1
 570 1491 l 1
 661 1321 718 1165 740 1022 c 0
 749.888 962.277 754.77 900.521 754.77 836.793 c 0
 754.77 739.394 743.366 637.39 721 531 c 0
 668 283 547 36 357 -209 c 0
 295 -288 230 -362 161 -431 c 1
EndSplineSet
EndChar
StartChar: asterisk
Encoding: 12 42 14
OldEncoding: 42
Width: 797
Flags: HW
Fore
318 1197 m 1
 395 1339 l 1
 493 1302 563 1269 605 1242 c 1
 618 1363 629 1446 638 1491 c 1
 783 1491 l 1
 767 1425 741 1342 707 1243 c 1
 784 1278 868 1310 964 1339 c 1
 979 1197 l 1
 888 1169 801 1150 719 1141 c 1
 752 1106 796 1043 850 952 c 1
 712 867 l 1
 685 920 655 991 621 1082 c 1
 552 988 493 916 445 867 c 1
 345 952 l 1
 443 1047 512 1110 552 1141 c 1
 469 1158 391 1176 318 1197 c 1
EndSplineSet
EndChar
StartChar: plus
Encoding: 13 43 15
OldEncoding: 43
Width: 1196
Flags: HW
Fore
563 237 m 1
 649 639 l 1
 250 639 l 1
 286 807 l 1
 685 807 l 1
 769 1206 l 1
 939 1206 l 1
 855 807 l 1
 1254 807 l 1
 1218 639 l 1
 819 639 l 1
 733 237 l 1
 563 237 l 1
EndSplineSet
EndChar
StartChar: comma
Encoding: 14 44 16
OldEncoding: 44
Width: 569
Flags: HW
Fore
182 0 m 1
 226 205 l 1
 431 205 l 1
 387 0 l 2
 371 -75 345 -136 308 -182 c 0
 271 -229 222 -265 158 -290 c 1
 125 -213 l 1
 166 -196 199 -172 224 -140 c 0
 249 -107 269 -61 284 0 c 1
 182 0 l 1
EndSplineSet
EndChar
StartChar: hyphen
Encoding: 15 45 17
OldEncoding: 45
Width: 682
Flags: HW
Fore
159 440 m 1
 197 621 l 1
 750 621 l 1
 712 440 l 1
 159 440 l 1
EndSplineSet
EndChar
StartChar: period
Encoding: 16 46 18
OldEncoding: 46
Width: 569
Flags: HW
Fore
186 0 m 1
 230 205 l 1
 435 205 l 1
 391 0 l 1
 186 0 l 1
EndSplineSet
EndChar
StartChar: slash
Encoding: 17 47 19
OldEncoding: 47
Width: 595
Flags: HW
Fore
-83 -10 m 1
 818 1470 l 1
 1000 1470 l 1
 100 -10 l 1
 -83 -10 l 1
EndSplineSet
EndChar
StartChar: zero
Encoding: 18 48 20
OldEncoding: 48
Width: 1139
Flags: HW
Fore
240 723 m 0
 275 890 320 1026 376 1133 c 0
 489 1350 655 1459 873 1459 c 0
 1112.63 1459 1232.45 1319.88 1232.45 1041.21 c 0
 1232.45 950.069 1219.63 844.005 1194 723 c 0
 1155 540 1104 394 1040 285 c 0
 928 96 770 -2 561 -10 c 1
 497 -10 442 0 395 19 c 0
 265.816 71.5027 201.059 199.886 201.059 403.822 c 0
 201.059 495.092 214.029 601.494 240 723 c 0
424 723 m 0
 411 662 401 607 395 557 c 0
 388.936 508.832 385.903 464.836 385.903 425.014 c 0
 385.903 235.005 454.936 140 593 140 c 0
 788 141 927 335 1010 723 c 0
 1034.6 838.904 1046.91 937.585 1046.91 1019.07 c 0
 1046.91 1212.47 977.604 1309 839 1309 c 0
 764 1309 698 1283 642 1231 c 0
 550 1145 477 976 424 723 c 0
EndSplineSet
EndChar
StartChar: one
Encoding: 19 49 21
OldEncoding: 49
Width: 1139
Flags: HW
Fore
763 0 m 1
 583 0 l 1
 824 1135 l 1
 767 1069 689 1013 590 966 c 0
 530 937 472 918 416 907 c 1
 458 1104 l 1
 573 1153 677 1221 768 1306 c 0
 828 1363 871 1419 896 1472 c 1
 1076 1472 l 1
 763 0 l 1
EndSplineSet
KernsSLIF: 19 -152 0 0
EndChar
StartChar: two
Encoding: 20 50 22
OldEncoding: 50
Width: 1139
Flags: HW
Fore
1068 173 m 1
 1031 0 l 1
 62 0 l 1
 105 145 226 295 426 450 c 0
 463 478 504 509 552 542 c 0
 694 641 792 714 846 759 c 0
 964 858 1037 955 1066 1049 c 0
 1069 1059 1071 1069 1073 1079 c 0
 1077.65 1100.16 1079.96 1120.2 1079.96 1139.09 c 0
 1079.96 1193.42 1060.84 1238.39 1023 1274 c 0
 981 1313 924 1333 851 1333 c 0
 742 1333 654 1294 588 1217 c 0
 546 1169 518 1110 502 1039 c 1
 317 1039 l 1
 344 1168 410 1274 512 1356 c 0
 618 1440 743 1482 887 1482 c 0
 1028 1482 1132 1442 1200 1363 c 0
 1245.03 1310.11 1268.09 1245.98 1268.09 1170.61 c 0
 1268.09 1140.53 1264.42 1108.66 1257 1075 c 0
 1230 945 1152 822 1023 705 c 0
 968 656 880 588 756 501 c 2
 693 455 l 1
 497 317 l 1
 445 278 396 230 349 173 c 1
 1068 173 l 1
EndSplineSet
EndChar
StartChar: three
Encoding: 21 51 23
OldEncoding: 51
Width: 1139
Flags: HW
Fore
177 427 m 1
 357 427 l 1
 350 383 l 1
 349.833 379.056 349.75 375.154 349.75 371.296 c 0
 349.75 305.707 373.833 252.556 422 211 c 0
 465 174 519 156 586 156 c 0
 681 156 765 187 835 248 c 0
 895 301 933 366 950 445 c 0
 955.234 470.425 957.859 494.172 957.859 516.226 c 0
 957.859 582.649 934.047 633.715 886 669 c 0
 846 698 794 713 728 713 c 0
 685 713 638 707 589 694 c 1
 622 852 l 1
 676 850 l 1
 763 853 841 880 909 932 c 0
 971 979 1009 1037 1024 1105 c 0
 1028.08 1123.84 1030.11 1141.49 1030.11 1157.95 c 0
 1030.11 1214.05 1006.61 1256.4 961 1285 c 0
 927 1306 883 1317 829 1317 c 0
 687 1317 584 1244 523 1099 c 1
 511 1070 l 1
 331 1070 l 1
 353 1170 407 1259 494 1337 c 0
 584 1417 685 1464 799 1478 c 0
 820 1481 840 1482 860 1482 c 0
 977 1482 1069 1448 1135 1380 c 0
 1189.21 1324.98 1216.58 1258.18 1216.58 1180.13 c 0
 1216.58 1161.71 1215.05 1142.66 1212 1123 c 0
 1211 1116 1210 1108 1208 1101 c 0
 1187 1002 1131 919 1042 852 c 0
 1010 829 977 809 941 794 c 1
 1081 760 1151 677 1152 546 c 0
 1152.1 542.969 1152.15 539.918 1152.15 536.846 c 0
 1152.15 509.504 1148.19 480.464 1141 449 c 0
 1115 325 1051 220 949 135 c 1
 902 100 l 1
 796 27 679 -10 550 -10 c 0
 427 -10 330 29 259 106 c 0
 197.585 171.028 167.982 249.923 167.982 341.949 c 0
 167.982 351.815 168.322 361.833 169 372 c 0
 170 391 173 409 177 427 c 1
EndSplineSet
EndChar
StartChar: four
Encoding: 22 52 24
OldEncoding: 52
Width: 1139
Flags: HW
Fore
662 0 m 1
 736 347 l 1
 100 347 l 1
 137 522 l 1
 975 1472 l 1
 1155 1472 l 1
 953 522 l 1
 1151 522 l 1
 1114 347 l 1
 916 347 l 1
 842 0 l 1
 662 0 l 1
773 522 m 1
 899 1117 l 1
 362 522 l 1
 773 522 l 1
EndSplineSet
EndChar
StartChar: five
Encoding: 23 53 25
OldEncoding: 53
Width: 1139
Flags: HW
Fore
173 415 m 1
 362 415 l 1
 361.372 404.718 361.058 394.737 361.058 385.058 c 0
 361.058 271.429 404.3 199.41 490 169 c 0
 519 159 552 154 589 154 c 0
 691 154 779 191 851 265 c 0
 911 326 952 403 971 496 c 0
 978.37 529.577 982.015 560.62 982.015 589.149 c 0
 982.015 665.131 956.164 723.287 906 764 c 0
 863 799 803 817 727 817 c 0
 628 817 536 773 452 686 c 1
 267 708 l 1
 572 1472 l 1
 1301 1472 l 1
 1263 1292 l 1
 698 1292 l 1
 540 920 l 1
 602 964 690 986 801 987 c 0
 811 987 l 0
 937 987 1033 946 1101 864 c 0
 1152.82 800.753 1178.5 722.99 1178.5 631.596 c 0
 1178.5 603.051 1176 573.177 1171 542 c 0
 1170 532 1168 522 1166 512 c 0
 1136 370 1068 251 965 155 c 0
 860 57 739 3 601 -8 c 0
 586 -9 570 -10 554 -10 c 0
 393 -10 281 43 218 148 c 0
 185.889 203.607 169.113 270.255 169.113 347.944 c 0
 169.113 369.45 170.398 391.802 173 415 c 1
EndSplineSet
EndChar
StartChar: six
Encoding: 24 54 26
OldEncoding: 54
Width: 1139
Flags: HW
Fore
1253 1103 m 1
 1074 1103 l 1
 1073 1220 1021 1286 918 1302 c 0
 903 1304 886 1305 869 1305 c 0
 660 1305 521 1151 450 842 c 1
 527 918 619 962 729 973 c 0
 752 976 777 977 802 977 c 0
 917 977 1007 937 1075 858 c 0
 1133.2 789.377 1161.97 704.908 1161.97 605.249 c 0
 1161.97 590.179 1161.31 574.762 1160 559 c 0
 1158 536 1154 514 1149 491 c 0
 1120 354 1057 240 960 147 c 0
 861 51 746 -1 616 -9 c 0
 605 -10 595 -10 584 -10 c 0
 361 -10 234 97 201 312 c 0
 195.703 347.091 193.037 384.813 193.037 425.128 c 0
 193.037 506.594 203.925 598.651 226 701 c 0
 306 1078 452 1320 663 1425 c 0
 740 1463 825 1482 918 1482 c 0
 1034 1482 1124 1446 1189 1374 c 0
 1238.23 1319.92 1262.06 1256.08 1262.06 1182.46 c 0
 1262.06 1164.86 1260.7 1146.71 1258 1128 c 0
 1257 1120 1255 1112 1253 1103 c 1
410 490 m 0
 402.407 454.016 398.629 420.648 398.629 389.823 c 0
 398.629 327.276 414.186 275.202 445 233 c 0
 482 181 539 155 616 155 c 0
 709 155 790 191 856 263 c 0
 909 321 945 393 963 480 c 0
 970.414 514.907 974.106 547.238 974.106 577.022 c 0
 974.106 643.652 955.627 697.535 919 739 c 0
 880 784 823 807 748 807 c 0
 652 807 570 769 505 692 c 0
 458 637 427 570 410 490 c 0
EndSplineSet
EndChar
StartChar: seven
Encoding: 25 55 27
OldEncoding: 55
Width: 1139
Flags: HW
Fore
372 1292 m 1
 410 1472 l 1
 1359 1472 l 1
 1321 1292 l 1
 1131 1111 966 911 822 692 c 0
 661 446 557 215 511 0 c 1
 293 0 l 1
 344 235 464 494 651 776 c 0
 785 979 925 1151 1070 1292 c 1
 372 1292 l 1
EndSplineSet
EndChar
StartChar: eight
Encoding: 26 56 28
OldEncoding: 56
Width: 1139
Flags: HW
Fore
533 805 m 1
 423.211 848.916 368.316 923.255 368.316 1027.48 c 0
 368.316 1051.41 371.211 1076.92 377 1104 c 0
 401 1218 461 1310 558 1381 c 0
 650 1448 757 1482 878 1482 c 0
 1004 1482 1099 1445 1164 1372 c 0
 1209.86 1320.32 1232.41 1258.03 1232.41 1185.15 c 0
 1232.41 1157.91 1229.26 1129.2 1223 1099 c 0
 1195 967 1112 873 972 816 c 2
 944 805 l 1
 1073 760 1141 677 1150 556 c 0
 1150.83 545.752 1151.28 535.196 1151.28 524.355 c 0
 1151.28 496.057 1148.23 465.813 1141 434 c 1
 1123 368 l 1
 1080 233 996 132 873 65 c 0
 781 15 679 -10 564 -10 c 0
 423 -10 316 31 244 113 c 0
 190.71 172.86 164.065 246.042 164.065 332.547 c 0
 164.065 364.542 167.71 398.36 175 434 c 0
 176 437 176 437 176 439 c 0
 208 588 288 696 417 762 c 0
 453 781 492 795 533 805 c 1
562 1110 m 1
 557.484 1088.93 555.234 1069.17 555.234 1050.74 c 0
 555.234 995.711 575.296 952.463 615 921 c 0
 650 894 696 880 754 880 c 0
 835 880 903 907 959 960 c 0
 1000 999 1026 1045 1038 1100 c 0
 1042 1119 1044 1137 1044 1153.98 c 0
 1044 1204.94 1026 1246.75 990 1279 c 0
 953 1310 906 1326 847 1326 c 0
 768 1326 701 1301 644 1250 c 1
 617 1222 l 1
 593 1189 l 1
 575 1151 l 1
 562 1110 l 1
361 438 m 0
 355.882 413.489 353.304 390.211 353.304 368.205 c 0
 353.304 308.514 372.276 258.185 411 218 c 0
 456 171 519 147 599 147 c 0
 697 147 781 179 850 242 c 0
 905 293 941 356 957 432 c 0
 962.149 456.106 964.723 478.679 964.723 499.718 c 0
 964.723 568.573 937.149 621 882 657 c 0
 839 685 782 699 711 699 c 0
 602 699 515 666 448 601 c 0
 404 558 375 503 361 438 c 0
EndSplineSet
EndChar
StartChar: nine
Encoding: 27 57 29
OldEncoding: 57
Width: 1139
Flags: HW
Fore
217 369 m 1
 396 369 l 1
 398 252 450 186 553 170 c 0
 568 168 584 167 601 167 c 0
 810 167 950 321 1021 630 c 1
 944 554 851 510 742 499 c 0
 718 496 694 495 669 495 c 0
 554 495 464 535 396 614 c 0
 337.801 682.623 309.029 767.092 309.029 866.751 c 0
 309.029 881.821 309.686 897.238 311 913 c 0
 313 936 317 958 322 981 c 0
 351 1118 414 1232 511 1325 c 0
 610 1421 725 1473 855 1481 c 0
 866 1482 876 1482 887 1482 c 0
 1110 1482 1237 1375 1270 1160 c 0
 1275.19 1125.63 1277.75 1088.75 1277.75 1049.37 c 0
 1277.75 967.289 1266.63 874.397 1245 771 c 0
 1165 394 1019 152 808 47 c 0
 731 9 646 -10 553 -10 c 0
 437 -10 347 26 282 98 c 0
 232.767 152.076 208.938 215.923 208.938 289.542 c 0
 208.938 307.137 210.299 325.289 213 344 c 0
 214 352 216 360 217 369 c 1
1061 982 m 0
 1068.59 1017.98 1072.37 1051.35 1072.37 1082.18 c 0
 1072.37 1144.72 1056.81 1196.8 1026 1239 c 0
 988 1291 932 1317 855 1317 c 0
 762 1317 681 1281 615 1209 c 1
 584 1170 l 1
 548 1119 522 1060 508 992 c 0
 500.586 957.093 496.894 924.762 496.894 894.978 c 0
 496.894 828.348 515.373 774.465 552 733 c 0
 591 688 648 665 723 665 c 0
 819 665 900 703 966 780 c 0
 1012 835 1044 902 1061 982 c 0
EndSplineSet
EndChar
StartChar: colon
Encoding: 28 58 30
OldEncoding: 58
Width: 569
Flags: HW
Fore
367 857 m 1
 411 1062 l 1
 616 1062 l 1
 572 857 l 1
 367 857 l 1
185 0 m 1
 229 205 l 1
 434 205 l 1
 390 0 l 1
 185 0 l 1
EndSplineSet
EndChar
StartChar: semicolon
Encoding: 29 59 31
OldEncoding: 59
Width: 569
Flags: HW
Fore
364 857 m 1
 408 1062 l 1
 613 1062 l 1
 569 857 l 1
 364 857 l 1
182 0 m 1
 226 205 l 1
 431 205 l 1
 387 0 l 2
 361 -120 307 -206 223 -257 c 1
 204 -270 182 -281 158 -290 c 1
 125 -213 l 1
 185 -189 228 -147 255 -87 c 0
 266 -63 276 -34 284 0 c 1
 182 0 l 1
EndSplineSet
EndChar
StartChar: less
Encoding: 30 60 32
OldEncoding: 60
Width: 1196
Flags: HW
Fore
248 641 m 1
 284 809 l 1
 1342 1219 l 1
 1304 1040 l 1
 467 724 l 1
 1169 405 l 1
 1131 226 l 1
 248 641 l 1
EndSplineSet
EndChar
StartChar: equal
Encoding: 31 61 33
OldEncoding: 61
Width: 1196
Flags: HW
Fore
1265 862 m 1
 297 862 l 1
 333 1030 l 1
 1301 1030 l 1
 1265 862 l 1
1171 417 m 1
 203 417 l 1
 238 585 l 1
 1206 585 l 1
 1171 417 l 1
EndSplineSet
EndChar
StartChar: greater
Encoding: 32 62 34
OldEncoding: 62
Width: 1196
Flags: HW
Fore
1219 641 m 1
 160 226 l 1
 198 405 l 1
 1035 724 l 1
 333 1040 l 1
 371 1219 l 1
 1255 809 l 1
 1219 641 l 1
EndSplineSet
EndChar
StartChar: question
Encoding: 33 63 35
OldEncoding: 63
Width: 1139
Flags: HW
Fore
549 361 m 1
 567 436 l 1
 598 547 656 641 742 719 c 0
 763 738 807 773 876 826 c 0
 946 879 997 928 1030 972 c 0
 1056 1009 1075 1048 1084 1088 c 0
 1087.83 1104.6 1089.67 1120.83 1089.67 1136.7 c 0
 1089.67 1158.13 1086.32 1178.89 1080 1199 c 0
 1060 1263 1016 1306 947 1328 c 0
 918 1337 887 1341 853 1341 c 0
 713 1340 606 1268 531 1123 c 0
 519 1099 507 1073 497 1046 c 1
 312 1046 l 1
 347 1175 414 1282 514 1367 c 0
 621 1458 745 1504 885 1504 c 0
 1016 1504 1118 1467 1192 1392 c 0
 1250.43 1332.71 1279.32 1262.35 1279.32 1179.65 c 0
 1279.32 1166.1 1278.55 1152.22 1277 1138 c 1
 1266 1084 l 1
 1251 1027 1224 971 1185 914 c 0
 1158 875 1110 830 1044 780 c 0
 974 729 930 694 910 676 c 0
 820 597 760 502 729 389 c 0
 726 380 724 370 722 361 c 1
 549 361 l 1
461 0 m 1
 505 205 l 1
 710 205 l 1
 666 0 l 1
 461 0 l 1
EndSplineSet
EndChar
StartChar: at
Encoding: 34 64 36
OldEncoding: 64
Width: 2079
Flags: HW
Fore
1187 121 m 1
 1098 38 986 -3 853 -3 c 0
 746 -3 670 44 624 138 c 0
 597.586 191.443 584.379 252.81 584.379 321.87 c 0
 584.379 365.233 589.586 411.629 600 461 c 0
 623 570 669 671 736 764 c 0
 815 873 905 957 1008 1015 c 0
 1088 1061 1165 1084 1241 1084 c 0
 1383 1084 1474 1035 1512 938 c 1
 1576 1079 l 1
 1755 1079 l 1
 1461 379 l 1
 1434 315 1414 265 1401 229 c 1
 1398 212 l 1
 1399 202 1403 192 1411 182 c 0
 1422 169 1438 163 1457 163 c 0
 1527 163 1607 206 1696 291 c 0
 1782 374 1852 471 1903 580 c 0
 1926 628 1942 673 1951 716 c 0
 1961.26 764.177 1966.41 809.997 1966.41 853.506 c 0
 1966.41 962.625 1934.06 1057.21 1869 1138 c 0
 1786 1242 1664 1306 1502 1329 c 0
 1463 1335 1420 1338 1377 1338 c 0
 1166 1338 975 1276 802 1152 c 0
 764 1125 728 1095 694 1063 c 0
 546 924 444 754 389 553 c 0
 383 531 377 508 372 485 c 0
 356.757 412.866 349.145 345.696 349.145 283.471 c 0
 349.145 117.097 403.558 -13.931 512 -110 c 0
 635 -219 819 -274 1062 -274 c 0
 1288 -274 1484 -224 1650 -125 c 0
 1719 -84 1778 -36 1828 19 c 1
 2009 19 l 1
 1917 -113 1788 -219 1622 -300 c 0
 1443 -387 1245 -431 1031 -431 c 0
 739 -431 519 -361 371 -222 c 0
 247.089 -106.405 185.421 47.9195 185.421 239.823 c 0
 185.421 278.678 187.949 319.073 193 361 c 0
 197 396 203 432 211 469 c 0
 261 705 365 911 522 1087 c 0
 673 1256 854 1373 1064 1439 c 0
 1179 1475 1296 1493 1419 1493 c 0
 1628 1493 1797 1439 1925 1332 c 0
 2047 1231 2112 1098 2124 933 c 0
 2125.23 915.713 2125.86 898.244 2125.86 880.576 c 0
 2125.86 826.701 2120.05 770.985 2108 713 c 0
 2078 575 2012 440 1908 307 c 0
 1810 181 1702 88 1583 28 c 0
 1501 -13 1423 -33 1347 -33 c 0
 1301 -33 1265 -26 1239 -12 c 0
 1214 2 1198 22 1190 48 c 0
 1186.4 59.4 1184.6 72.6 1184.6 87.816 c 0
 1184.6 97.96 1185.4 109 1187 121 c 1
925 161 m 0
 1019 161 1110 207 1197 299 c 0
 1275 382 1331 480 1366 593 c 0
 1372 612 1377 630 1381 649 c 0
 1388.54 684.885 1392.35 717.405 1392.35 746.533 c 0
 1392.35 813.999 1371.91 863.268 1330 894 c 0
 1301 915 1266 925 1221 925 c 0
 1109 925 1006 862 913 737 c 0
 895 713 878 687 862 660 c 0
 855 648 848 636 841 623 c 0
 813 567 791 510 779 453 c 0
 771.102 416.023 767.199 382.269 767.199 351.69 c 0
 767.199 297.09 779.642 252.614 804 218 c 0
 832 180 872 161 925 161 c 0
EndSplineSet
EndChar
StartChar: A
Encoding: 35 65 37
OldEncoding: 65
Width: 1366
Flags: HW
Fore
867 1450 m 1
 1076 1450 l 1
 1368 0 l 1
 1149 0 l 1
 1048 471 l 1
 492 471 l 1
 203 0 l 1
 -2 0 l 1
 867 1450 l 1
1042 653 m 1
 922 1237 l 1
 574 653 l 1
 1042 653 l 1
EndSplineSet
KernsSLIF: 91 -37 0 0 89 -37 0 0 88 -37 0 0 59 -152 0 0 57 -76 0 0 56 -152 0 0 54 -152 0 0
EndChar
StartChar: B
Encoding: 36 66 38
OldEncoding: 66
Width: 1366
Flags: HW
Fore
164 0 m 1
 472 1450 l 1
 1008 1450 l 2
 1120 1450 1207 1435 1269 1406 c 0
 1337 1373 1383 1320 1407 1249 c 0
 1417.59 1217.81 1422.99 1185.58 1422.99 1151.91 c 0
 1422.99 1128.36 1420.35 1104.1 1415 1079 c 0
 1403 1019 1373 961 1328 906 c 0
 1282 851 1221 806 1145 772 c 1
 1229 746 1287 702 1322 639 c 0
 1343.79 597.404 1355.11 551.885 1355.11 501.866 c 0
 1355.11 476.128 1352.12 449.199 1346 421 c 0
 1326 326 1280 240 1207 164 c 0
 1181 137 1154 115 1127 97 c 0
 1077 65 1019 41 951 24 c 0
 883 8 802 0 709 0 c 2
 164 0 l 1
523 842 m 1
 840 842 l 2
 926 842 989 848 1029 859 c 0
 1134 888 1198 954 1219 1056 c 0
 1223.48 1077.08 1225.74 1096.7 1225.74 1114.86 c 0
 1225.74 1165.63 1208.09 1205.01 1172 1233 c 0
 1159 1243 1144 1251 1127 1256 c 0
 1087 1270 1013 1277 908 1277 c 2
 615 1277 l 1
 523 842 l 1
381 173 m 1
 746 173 l 2
 835 173 899 180 939 193 c 0
 958 199 978 208 1000 220 c 0
 1067 257 1111 312 1136 386 c 0
 1139 397 1143 409 1145 421 c 0
 1149.63 442.679 1151.94 462.994 1151.94 481.944 c 0
 1151.94 540.789 1129.63 586.474 1085 619 c 0
 1070 630 1054 638 1035 644 c 0
 988 661 918 669 825 669 c 2
 486 669 l 1
 381 173 l 1
EndSplineSet
EndChar
StartChar: C
Encoding: 37 67 39
OldEncoding: 67
Width: 1479
Flags: HW
Fore
1312 480 m 1
 1500 480 l 1
 1410 287 1285 150 1124 68 c 0
 1022 16 910 -10 789 -10 c 0
 631 -10 510 22 424 86 c 0
 339 151 283 244 258 366 c 0
 245.368 425.274 239.109 485.492 239.109 546.769 c 0
 239.109 611.615 246.118 677.647 260 745 c 0
 291 888 347 1016 430 1130 c 0
 512 1243 613 1329 733 1388 c 0
 854 1447 979 1477 1108 1477 c 0
 1255 1477 1370 1440 1454 1365 c 0
 1538 1290 1586 1185 1596 1050 c 1
 1408 1050 l 1
 1397 1171 1330 1247 1206 1280 c 0
 1164 1291 1118 1297 1066 1297 c 0
 953 1297 853 1270 766 1216 c 0
 606 1117 503 960 458 746 c 0
 445.739 689.293 439.742 634.413 439.742 581.36 c 0
 439.742 530.565 445.239 481.445 456 434 c 0
 487 309 560 228 678 191 c 0
 722 177 771 170 824 170 c 0
 950 170 1060 204 1156 272 c 0
 1235 328 1286 397 1312 480 c 1
EndSplineSet
EndChar
StartChar: D
Encoding: 38 68 40
OldEncoding: 68
Width: 1479
Flags: HW
Fore
168 0 m 1
 476 1450 l 1
 981 1450 l 2
 1280 1450 1465 1362 1533 1186 c 0
 1555.01 1130.2 1566.02 1063.4 1566.02 985.589 c 0
 1566.02 911.399 1556.01 827.202 1536 733 c 0
 1448 318 1234 80 895 17 c 0
 833 6 767 0 697 0 c 2
 168 0 l 1
387 173 m 1
 712 173 l 2
 1035 173 1240 344 1328 686 c 0
 1332 702 1336 719 1339 736 c 0
 1353.1 802.115 1360.14 862.16 1360.14 916.142 c 0
 1360.14 1134.05 1245.41 1253.16 1017 1274 c 0
 992 1276 967 1277 941 1277 c 2
 621 1277 l 1
 387 173 l 1
EndSplineSet
EndChar
StartChar: E
Encoding: 39 69 41
OldEncoding: 69
Width: 1366
Flags: HW
Fore
162 0 m 1
 470 1450 l 1
 1530 1450 l 1
 1492 1268 l 1
 611 1268 l 1
 517 826 l 1
 1197 826 l 1
 1158 646 l 1
 478 646 l 1
 379 179 l 1
 1260 179 l 1
 1222 0 l 1
 162 0 l 1
EndSplineSet
EndChar
StartChar: F
Encoding: 40 70 42
OldEncoding: 70
Width: 1251
Flags: HW
Fore
168 0 m 1
 476 1450 l 1
 1465 1450 l 1
 1427 1271 l 1
 617 1271 l 1
 521 820 l 1
 1183 820 l 1
 1145 641 l 1
 483 641 l 1
 347 0 l 1
 168 0 l 1
EndSplineSet
KernsSLIF: 35 -113 0 0 16 -227 0 0 14 -227 0 0
EndChar
StartChar: G
Encoding: 41 71 43
OldEncoding: 71
Width: 1479
Flags: HW
Fore
1549 684 m 1
 1546 666 1546 666 1542 650 c 0
 1509 497 1471 387 1430 320 c 0
 1404 276 1359 224 1295 164 c 0
 1291 161 1289 159 1286 156 c 0
 1164 45 998 -10 789 -10 c 0
 631 -10 510 22 424 86 c 0
 339 151 283 244 258 366 c 0
 245.368 425.274 239.109 485.492 239.109 546.769 c 0
 239.109 611.615 246.118 677.647 260 745 c 0
 291 888 347 1016 430 1130 c 0
 512 1243 613 1329 733 1388 c 0
 854 1447 979 1477 1108 1477 c 0
 1255 1477 1370 1440 1454 1365 c 0
 1538 1290 1586 1185 1596 1050 c 1
 1408 1050 l 1
 1405 1087 1396 1119 1382 1148 c 0
 1333 1247 1228 1297 1066 1297 c 0
 953 1297 853 1270 766 1216 c 0
 606 1117 503 960 458 746 c 0
 445.739 689.293 439.742 634.413 439.742 581.36 c 0
 439.742 530.565 445.239 481.445 456 434 c 0
 466 394 480 358 500 327 c 0
 563 222 671 170 824 170 c 0
 833 170 843 170 852 171 c 0
 976 176 1082 214 1172 284 c 1
 1190 299 l 2
 1247 350 1287 405 1309 465 c 1
 1319 504 l 1
 1012 504 l 1
 1050 684 l 1
 1549 684 l 1
EndSplineSet
EndChar
StartChar: H
Encoding: 42 72 44
OldEncoding: 72
Width: 1479
Flags: HW
Fore
164 0 m 1
 472 1450 l 1
 652 1450 l 1
 524 848 l 1
 1314 848 l 1
 1442 1450 l 1
 1622 1450 l 1
 1314 0 l 1
 1134 0 l 1
 1276 668 l 1
 486 668 l 1
 344 0 l 1
 164 0 l 1
EndSplineSet
EndChar
StartChar: I
Encoding: 43 73 45
OldEncoding: 73
Width: 650
Flags: HW
Fore
659 160 m 1
 625 0 l 1
 25 0 l 1
 59 160 l 1
 269 160 l 1
 509 1290 l 1
 299 1290 l 1
 333 1450 l 1
 933 1450 l 1
 899 1290 l 1
 689 1290 l 1
 449 160 l 1
 659 160 l 1
EndSplineSet
EndChar
StartChar: J
Encoding: 44 74 46
OldEncoding: 74
Width: 1024
Flags: HW
Fore
1173 1450 m 1
 962 456 l 2
 935 331 897 237 848 172 c 0
 836 157 824 143 810 129 c 0
 730 47 630 1 511 -8 c 1
 461 -10 l 1
 336 -10 247 24 193 92 c 0
 185 100 179 109 173 118 c 0
 148.835 155.88 136.614 206.555 136.614 269.749 c 0
 136.614 303.315 140.062 340.412 147 381 c 0
 150 402 155 427 161 455 c 1
 341 455 l 1
 327 378 l 1
 325.297 362.386 324.399 347.659 324.399 333.819 c 0
 324.399 298.905 330.11 269.632 343 246 c 0
 370 195 422 170 498 170 c 0
 556 170 605 183 644 209 c 0
 662 220 680 235 699 252 c 0
 730 281 755 333 772 408 c 0
 774 421 774 421 785 471 c 2
 957 1280 l 1
 680 1280 l 1
 716 1450 l 1
 1173 1450 l 1
EndSplineSet
EndChar
StartChar: K
Encoding: 45 75 47
OldEncoding: 75
Width: 1366
Flags: HW
Fore
150 0 m 1
 458 1450 l 1
 638 1450 l 1
 497 785 l 1
 1380 1450 l 1
 1624 1450 l 1
 781 806 l 1
 1346 0 l 1
 1113 0 l 1
 621 670 l 1
 445 539 l 1
 330 0 l 1
 150 0 l 1
EndSplineSet
EndChar
StartChar: L
Encoding: 46 76 48
OldEncoding: 76
Width: 1139
Flags: HW
Fore
150 0 m 1
 458 1450 l 1
 638 1450 l 1
 366 170 l 1
 1096 170 l 1
 1060 0 l 1
 150 0 l 1
EndSplineSet
KernsSLIF: 91 -76 0 0 59 -152 0 0 57 -152 0 0 56 -152 0 0 54 -152 0 0
EndChar
StartChar: M
Encoding: 47 77 49
OldEncoding: 77
Width: 1706
Flags: HW
Fore
152 0 m 1
 460 1450 l 1
 640 1450 l 1
 879 133 l 1
 1678 1450 l 1
 1858 1450 l 1
 1550 0 l 1
 1370 0 l 1
 1575 964 l 1
 996 0 l 1
 706 0 l 1
 537 964 l 1
 332 0 l 1
 152 0 l 1
EndSplineSet
EndChar
StartChar: N
Encoding: 48 78 50
OldEncoding: 78
Width: 1479
Flags: HW
Fore
156 0 m 1
 464 1450 l 1
 644 1450 l 1
 1198 315 l 1
 1439 1450 l 1
 1619 1450 l 1
 1311 0 l 1
 1131 0 l 1
 577 1136 l 1
 336 0 l 1
 156 0 l 1
EndSplineSet
EndChar
StartChar: O
Encoding: 49 79 51
OldEncoding: 79
Width: 1593
Flags: HW
Fore
256 714 m 0
 306 949 406 1135 558 1271 c 1
 714 1407 900 1476 1115 1478 c 1
 1314 1478 1463 1416 1562 1293 c 0
 1636.88 1199.8 1674.32 1081.84 1674.32 939.143 c 0
 1674.32 902.709 1671.88 864.661 1667 825 c 0
 1664 794 1658 763 1651 731 c 0
 1607 524 1515 354 1376 221 c 0
 1242 93 1084 18 900 -4 c 0
 866 -8 833 -10 798 -10 c 0
 608 -10 462 48 361 165 c 0
 277.863 261.692 235.556 383.7 235.556 531.76 c 0
 235.556 547.544 236.037 563.623 237 580 c 0
 240 624 246 669 256 714 c 0
455 711 m 0
 442.565 652.652 436.332 598.676 436.332 549.071 c 0
 436.332 443.096 464.782 357.073 522 291 c 0
 591 210 695 170 835 170 c 0
 1014 170 1160 233 1273 358 c 0
 1359 453 1419 578 1452 732 c 0
 1465.56 796.476 1472.33 855.704 1472.33 909.757 c 0
 1472.33 1019.18 1444.56 1107.4 1389 1175 c 0
 1321 1257 1217 1298 1078 1298 c 0
 855 1298 686 1206 572 1021 c 0
 520 936 481 832 455 711 c 0
EndSplineSet
EndChar
StartChar: P
Encoding: 50 80 52
OldEncoding: 80
Width: 1366
Flags: HW
Fore
158 0 m 1
 466 1450 l 1
 1019 1450 l 2
 1154 1450 1250 1440 1307 1421 c 0
 1343 1409 1376 1391 1406 1368 c 0
 1462 1322 1495 1255 1503 1168 c 0
 1504.92 1153.58 1505.82 1138.84 1505.82 1123.87 c 0
 1505.82 1092.12 1501.79 1059.29 1495 1026 c 0
 1469 901 1406 796 1309 710 c 0
 1211 623 1058 580 851 580 c 2
 461 580 l 1
 338 0 l 1
 158 0 l 1
498 753 m 1
 891 753 l 2
 1016 753 1110 776 1173 823 c 0
 1236 870 1276 935 1294 1020 c 0
 1299.02 1044.26 1301.55 1066.96 1301.55 1088.13 c 0
 1301.55 1142.88 1284.62 1187.38 1250 1222 c 1
 1223 1243 l 1
 1209 1252 1194 1259 1177 1264 c 0
 1146 1273 1086 1277 998 1277 c 2
 609 1277 l 1
 498 753 l 1
EndSplineSet
KernsSLIF: 35 -152 0 0 16 -264 0 0 14 -264 0 0
EndChar
StartChar: Q
Encoding: 51 81 53
OldEncoding: 81
Width: 1659
Flags: HW
Fore
1269 354 m 1
 1343 426 1398 532 1437 673 c 0
 1442 692 1447 712 1452 732 c 0
 1465.56 796.476 1472.33 855.704 1472.33 909.757 c 0
 1472.33 1019.18 1444.56 1107.4 1389 1175 c 0
 1321 1257 1217 1298 1078 1298 c 0
 855 1298 686 1206 572 1021 c 0
 520 936 481 832 455 711 c 0
 442.565 652.334 436.332 598.14 436.332 548.387 c 0
 436.332 442.096 464.782 356.073 522 290 c 0
 542 267 566 247 592 230 c 1
 632 314 698 379 789 424 c 0
 831 445 875 460 921 468 c 0
 947 473 971 475 996 475 c 0
 1087 474 1163 449 1226 399 c 0
 1244 385 1258 370 1269 354 c 1
1360 204 m 1
 1373 185 1395 176 1427 175 c 0
 1441 175 1457 177 1473 181 c 0
 1514 190 1550 206 1581 228 c 1
 1678 90 l 1
 1589 21 1495 -14 1396 -14 c 0
 1341 -14 1291 -3 1248 20 c 0
 1215 38 1191 61 1175 88 c 1
 1085 36 994 5 903 -5 c 1
 818 -10 l 2
 798 -10 l 0
 608 -10 462 48 361 165 c 0
 277.863 261.692 235.556 383.7 235.556 531.76 c 0
 235.556 547.544 236.037 563.623 237 580 c 0
 240 624 246 669 256 714 c 0
 306 949 406 1135 558 1271 c 1
 714 1407 900 1476 1115 1478 c 1
 1314 1478 1463 1416 1562 1293 c 0
 1636.88 1199.8 1674.32 1081.84 1674.32 939.143 c 0
 1674.32 902.709 1671.88 864.661 1667 825 c 0
 1664 794 1658 763 1651 731 c 0
 1608 526 1536 371 1435 266 c 0
 1410 242 1386 221 1360 204 c 1
1098 226 m 1
 1068 273 1026 297 971 297 c 0
 960 297 950 296 938 294 c 0
 867 281 813 243 778 181 c 0
 777 178 776 176 775 174 c 1
 791 169 811 167 838 167 c 0
 916 168 985 179 1049 202 c 0
 1068 209 1085 217 1098 226 c 1
EndSplineSet
EndChar
StartChar: R
Encoding: 52 82 54
OldEncoding: 82
Width: 1400
Flags: HW
Fore
821 580 m 1
 461 580 l 1
 338 0 l 1
 158 0 l 1
 466 1450 l 1
 1019 1450 l 2
 1154 1450 1250 1440 1307 1421 c 0
 1343 1409 1376 1391 1406 1368 c 0
 1462 1322 1495 1255 1503 1168 c 0
 1504.92 1153.58 1505.82 1138.84 1505.82 1123.87 c 0
 1505.82 1092.12 1501.79 1059.29 1495 1026 c 0
 1469 901 1406 796 1309 710 c 0
 1246 654 1160 616 1051 596 c 1
 1387 0 l 1
 1107 0 l 1
 821 580 l 1
498 753 m 1
 891 753 l 2
 1016 753 1110 776 1173 823 c 0
 1236 870 1276 935 1294 1020 c 0
 1299.02 1044.26 1301.55 1066.96 1301.55 1088.13 c 0
 1301.55 1142.88 1284.62 1187.38 1250 1222 c 1
 1223 1243 l 1
 1209 1252 1194 1259 1177 1264 c 0
 1146 1273 1086 1277 998 1277 c 2
 609 1277 l 1
 498 753 l 1
EndSplineSet
KernsSLIF: 59 -37 0 0 57 -37 0 0 56 -37 0 0 54 -37 0 0
EndChar
StartChar: S
Encoding: 53 83 55
OldEncoding: 83
Width: 1366
Flags: HW
Fore
199 502 m 1
 382 502 l 1
 380.62 486.62 379.93 471.755 379.93 457.406 c 0
 379.93 326.215 437.62 238.169 553 194 c 0
 606 174 669 164 743 164 c 0
 864 164 964 191 1043 245 c 0
 1106 289 1145 345 1160 413 c 0
 1163.14 428.306 1164.71 442.796 1164.71 456.483 c 0
 1164.71 517.013 1133.98 561.823 1072 592 c 0
 1049 603 1021 613 987 622 c 1
 781 666 l 1
 635 703 535 742 476 781 c 0
 402.712 830.969 365.491 899.665 365.491 986.509 c 0
 365.491 1003.94 366.991 1022.11 370 1041 c 0
 371 1050 373 1058 375 1067 c 0
 402 1193 475 1293 594 1367 c 0
 703 1436 832 1471 977 1471 c 0
 1138 1471 1261 1428 1345 1342 c 0
 1362 1325 1376 1307 1389 1287 c 1
 1411 1245 l 1
 1429.62 1202.69 1438.92 1156.09 1438.92 1105.8 c 0
 1438.92 1096.65 1438.62 1087.38 1438 1078 c 1
 1432 1019 l 1
 1246 1019 l 1
 1247.09 1030.68 1247.64 1042.03 1247.64 1053.05 c 0
 1247.64 1132.66 1219.09 1195.2 1162 1240 c 0
 1109 1280 1038 1300 948 1300 c 0
 807 1300 702 1267 633 1202 c 0
 597 1168 575 1127 565 1080 c 0
 561.784 1065.73 560.184 1052.18 560.184 1039.38 c 0
 560.184 988.501 585.463 949.367 635 923 c 0
 667 906 730 887 825 865 c 0
 842 861 855 858 866 856 c 0
 1017 820 1119 791 1172 768 c 0
 1271 727 1330 671 1351 598 c 0
 1357.38 574.935 1360.63 549.703 1360.63 522.186 c 0
 1360.63 493.629 1357.13 462.611 1350 429 c 0
 1323 302 1251 198 1134 117 c 0
 1025 40 898 -2 753 -9 c 0
 740 -10 728 -10 715 -10 c 0
 475 -10 316 55 238 186 c 0
 204.228 242.061 186.88 308.159 186.88 384.602 c 0
 186.88 421.334 190.886 460.456 199 502 c 1
EndSplineSet
EndChar
StartChar: T
Encoding: 54 84 56
OldEncoding: 84
Width: 1251
Flags: HW
Fore
538 0 m 1
 810 1280 l 1
 320 1280 l 1
 356 1450 l 1
 1518 1450 l 1
 1482 1280 l 1
 990 1280 l 1
 718 0 l 1
 538 0 l 1
EndSplineSet
KernsSLIF: 91 -113 0 0 89 -113 0 0 87 -76 0 0 85 -227 0 0 84 -76 0 0 81 -227 0 0 75 -76 0 0 71 -227 0 0 69 -227 0 0 67 -227 0 0 49 -37 0 0 35 -152 0 0 29 -227 0 0 28 -227 0 0 16 -227 0 0 15 -113 0 0 14 -227 0 0
EndChar
StartChar: U
Encoding: 55 85 57
OldEncoding: 85
Width: 1479
Flags: HW
Fore
1442 1450 m 1
 1622 1450 l 1
 1435 567 l 2
 1353 182 1121 -10 739 -10 c 0
 419.843 -10 259.506 120.549 259.506 380.887 c 0
 259.506 406.046 261.004 432.417 264 460 c 0
 268 494 274 530 282 567 c 2
 469 1450 l 1
 649 1450 l 1
 462 568 l 2
 452.04 521.591 447.065 479.268 447.065 441.013 c 0
 447.065 298.747 515.873 212.735 653 182 c 0
 688 174 728 170 773 170 c 0
 954 170 1084 226 1163 338 c 0
 1204 395 1234 472 1255 568 c 2
 1442 1450 l 1
EndSplineSet
EndChar
StartChar: V
Encoding: 56 86 58
OldEncoding: 86
Width: 1366
Flags: HW
Fore
577 0 m 1
 317 1450 l 1
 527 1450 l 1
 736 279 l 1
 1460 1450 l 1
 1658 1450 l 1
 776 0 l 1
 577 0 l 1
EndSplineSet
KernsSLIF: 91 -76 0 0 87 -76 0 0 84 -76 0 0 81 -113 0 0 75 -37 0 0 71 -113 0 0 67 -152 0 0 35 -152 0 0 29 -76 0 0 28 -76 0 0 16 -188 0 0 15 -113 0 0 14 -188 0 0
EndChar
StartChar: W
Encoding: 57 87 59
OldEncoding: 87
Width: 1933
Flags: HW
Fore
414 0 m 1
 333 1450 l 1
 532 1450 l 1
 596 390 l 1
 1142 1450 l 1
 1396 1450 l 1
 1492 390 l 1
 2006 1450 l 1
 2205 1450 l 1
 1508 0 l 1
 1310 0 l 1
 1210 1170 l 1
 612 0 l 1
 414 0 l 1
EndSplineSet
KernsSLIF: 91 -18 0 0 87 -37 0 0 84 -37 0 0 81 -37 0 0 71 -37 0 0 67 -76 0 0 35 -76 0 0 29 -37 0 0 28 -37 0 0 16 -113 0 0 15 -37 0 0 14 -113 0 0
EndChar
StartChar: X
Encoding: 58 88 60
OldEncoding: 88
Width: 1366
Flags: HW
Fore
9 0 m 1
 725 756 l 1
 384 1450 l 1
 614 1450 l 1
 873 902 l 1
 1391 1450 l 1
 1621 1450 l 1
 959 756 l 1
 1353 0 l 1
 1123 0 l 1
 811 613 l 1
 239 0 l 1
 9 0 l 1
EndSplineSet
EndChar
StartChar: Y
Encoding: 59 89 61
OldEncoding: 89
Width: 1366
Flags: HW
Fore
571 0 m 1
 703 621 l 1
 314 1451 l 1
 544 1451 l 1
 862 855 l 1
 1428 1451 l 1
 1658 1451 l 1
 897 621 l 1
 765 0 l 1
 571 0 l 1
EndSplineSet
KernsSLIF: 88 -113 0 0 87 -113 0 0 83 -188 0 0 82 -152 0 0 81 -188 0 0 75 -76 0 0 71 -188 0 0 67 -152 0 0 35 -152 0 0 29 -133 0 0 28 -113 0 0 16 -264 0 0 15 -188 0 0 14 -264 0 0
EndChar
StartChar: Z
Encoding: 60 90 62
OldEncoding: 90
Width: 1251
Flags: HW
Fore
41 0 m 1
 81 187 l 1
 1215 1270 l 1
 315 1270 l 1
 353 1450 l 1
 1521 1450 l 1
 1483 1270 l 1
 363 180 l 1
 1238 180 l 1
 1200 0 l 1
 41 0 l 1
EndSplineSet
EndChar
StartChar: bracketleft
Encoding: 61 91 63
OldEncoding: 91
Width: 569
Flags: HW
Fore
52 -407 m 1
 451 1466 l 1
 848 1466 l 1
 816 1317 l 1
 599 1317 l 1
 264 -258 l 1
 481 -258 l 1
 449 -407 l 1
 52 -407 l 1
EndSplineSet
EndChar
StartChar: backslash
Encoding: 62 92 64
OldEncoding: 92
Width: 569
Flags: HW
Fore
420 -25 m 1
 317 1491 l 1
 462 1491 l 1
 564 -25 l 1
 420 -25 l 1
EndSplineSet
EndChar
StartChar: bracketright
Encoding: 63 93 65
OldEncoding: 93
Width: 569
Flags: HW
Fore
349 -407 m 1
 -48 -407 l 1
 -16 -258 l 1
 201 -258 l 1
 536 1317 l 1
 319 1317 l 1
 351 1466 l 1
 748 1466 l 1
 349 -407 l 1
EndSplineSet
EndChar
StartChar: asciicircum
Encoding: 64 94 66
OldEncoding: 94
Width: 961
Flags: HW
Fore
386 690 m 1
 201 690 l 1
 724 1491 l 1
 869 1491 l 1
 1054 690 l 1
 873 690 l 1
 753 1287 l 1
 386 690 l 1
EndSplineSet
EndChar
StartChar: underscore
Encoding: 65 95 67
OldEncoding: 95
Width: 1139
Flags: HW
Fore
-118 -407 m 1
 -90 -277 l 1
 1103 -277 l 1
 1075 -407 l 1
 -118 -407 l 1
EndSplineSet
EndChar
StartChar: grave
Encoding: 66 96 68
OldEncoding: 96
Width: 682
Flags: HW
Fore
719 1194 m 1
 574 1194 l 1
 402 1474 l 1
 643 1474 l 1
 719 1194 l 1
EndSplineSet
EndChar
StartChar: a
Encoding: 67 97 69
OldEncoding: 97
Width: 1139
Flags: HW
Fore
856 131 m 1
 777 74 704 34 638 11 c 0
 571 -12 503 -24 432 -24 c 0
 315 -24 232 5 181 62 c 0
 144.135 103.202 126.08 152.242 126.08 209.875 c 0
 126.08 231.973 128.734 255.333 134 280 c 0
 145 332 167 379 200 422 c 0
 232 465 270 500 314 526 c 0
 358 552 406 572 456 585 c 0
 493 594 549 603 622 612 c 0
 771 629 882 650 956 674 c 1
 963 699 966 714 967 721 c 0
 972.818 747.545 975.727 771.314 975.727 792.258 c 0
 975.727 828.909 966.818 856.909 949 876 c 0
 912 917 848 937 757 937 c 0
 672 937 607 922 560 892 c 0
 513 863 472 810 437 735 c 1
 266 759 l 1
 298 834 337 895 384 942 c 0
 431 988 491 1023 566 1048 c 0
 640 1073 724 1086 815 1086 c 0
 906 1086 976 1075 1029 1054 c 0
 1082 1033 1117 1006 1137 974 c 0
 1157 941 1166 900 1167 851 c 0
 1166 820 1158 765 1141 685 c 2
 1090 445 l 2
 1054 278 1036 172 1033 128 c 0
 1032.93 124.802 1032.89 121.619 1032.89 118.451 c 0
 1032.89 77.0354 1038.99 38.0862 1052 0 c 1
 864 0 l 1
 856.737 24.4294 852.962 51.9103 852.962 82.155 c 0
 852.962 97.718 853.962 114.013 856 131 c 1
926 533 m 1
 856 506 753 484 618 465 c 0
 542 454 487 442 453 429 c 0
 419 416 392 396 370 370 c 0
 347 345 333 316 327 285 c 0
 324.082 272.268 322.642 260.098 322.642 248.492 c 0
 322.642 216.342 333.692 188.512 355 165 c 0
 385 133 435 117 505 117 c 0
 574 117 639 132 699 162 c 0
 760 193 809 234 845 287 c 0
 873 328 895 388 912 467 c 2
 926 533 l 1
EndSplineSet
EndChar
StartChar: b
Encoding: 68 98 70
OldEncoding: 98
Width: 1139
Flags: HW
Fore
301 0 m 1
 134 0 l 1
 446 1466 l 1
 626 1466 l 1
 514 943 l 1
 611 1038 718 1086 836 1086 c 0
 978 1086 1078 1032 1138 924 c 0
 1171.95 861.755 1189.3 788.836 1189.3 705.493 c 0
 1189.3 656.28 1183.25 603.432 1171 547 c 0
 1134 372 1060 233 949 131 c 0
 847 37 729 -10 594 -10 c 0
 488 -10 407 21 352 84 c 0
 342 95 334 106 326 119 c 1
 301 0 l 1
427 539 m 0
 415.5 485.334 409.708 436.89 409.708 393.668 c 0
 409.708 312.859 429.954 250.303 471 206 c 0
 506 168 554 149 613 149 c 0
 718 150 806 193 879 278 c 0
 935 345 974 429 996 532 c 0
 1006.85 582.541 1012.3 628.48 1012.3 669.738 c 0
 1012.3 750.114 991.63 812.727 950 857 c 0
 911 900 856 921 785 921 c 0
 713 921 644 889 577 824 c 0
 501 750 451 655 427 539 c 0
EndSplineSet
EndChar
StartChar: c
Encoding: 69 99 71
OldEncoding: 99
Width: 1024
Flags: HW
Fore
914 403 m 1
 1091 403 l 1
 1052 244 968 129 841 58 c 0
 760 13 666 -10 561 -10 c 0
 435 -10 337 31 265 113 c 0
 205.353 183.353 175.529 272.419 175.529 380.197 c 0
 175.529 413.36 178.353 448.294 184 485 c 0
 186 499 189 513 192 527 c 0
 232 714 311 858 432 958 c 0
 535 1043 656 1086 795 1086 c 0
 960 1086 1070 1036 1124 936 c 0
 1147.67 893.097 1159.3 842.533 1159.3 783.905 c 0
 1159.3 763.274 1157.86 741.645 1155 719 c 0
 1154 712 1153 704 1151 696 c 1
 976 696 l 1
 977.143 705.857 977.714 715.449 977.714 724.776 c 0
 977.714 780.735 957.143 827.143 916 864 c 0
 876 899 827 916 766 916 c 0
 576 916 450 805 390 583 c 1
 378 532 l 1
 368.36 486.288 363.555 444.637 363.555 407.018 c 0
 363.555 323.662 387.146 260.098 434 216 c 0
 473 179 527 160 595 160 c 0
 724 161 817 207 874 300 c 0
 891 330 904 364 914 403 c 1
EndSplineSet
EndChar
StartChar: d
Encoding: 70 100 72
OldEncoding: 100
Width: 1139
Flags: HW
Fore
824 0 m 1
 850 122 l 1
 771 34 663 -10 525 -10 c 0
 388 -10 289 41 226 142 c 0
 185.841 207.343 165.604 285.196 165.604 375.557 c 0
 165.604 417.951 170.058 463.099 179 511 c 0
 181 521 181 521 183 530 c 0
 218 697 287 831 389 933 c 0
 492 1035 612 1086 750 1086 c 0
 879 1086 966 1046 1012 965 c 2
 1016 958 l 1
 1124 1466 l 1
 1303 1466 l 1
 991 0 l 1
 824 0 l 1
368 530 m 0
 356.849 478.639 351.293 432.188 351.293 390.646 c 0
 351.293 309.247 372.626 246.699 415 203 c 0
 454 164 507 144 575 144 c 0
 634 144 695 171 758 224 c 0
 839 293 894 384 922 496 c 0
 924 505 924 505 926 515 c 0
 937.025 566.818 942.513 614.178 942.513 657.033 c 0
 942.513 730.788 926.257 791.195 894 838 c 0
 858 891 806 917 739 917 c 0
 618 917 523 861 452 750 c 0
 415 690 386 617 368 530 c 0
EndSplineSet
EndChar
StartChar: e
Encoding: 71 101 73
OldEncoding: 101
Width: 1139
Flags: HW
Fore
933 333 m 1
 1119 333 l 1
 1070 214 989 123 876 62 c 0
 801 21 720 -2 629 -8 c 0
 612 -9 596 -10 579 -10 c 0
 392 -10 267 52 207 177 c 0
 180.838 229.919 167.757 292.03 167.757 363.333 c 0
 167.757 411.949 173.838 464.838 186 522 c 0
 225 705 304 848 424 949 c 0
 530 1040 657 1086 802 1086 c 0
 969 1086 1082 1026 1142 906 c 0
 1170.51 847.791 1184.56 778.645 1184.56 698.772 c 0
 1184.56 644.172 1177.99 584.559 1165 520 c 0
 1162 508 1159 496 1156 485 c 1
 370 485 l 1
 362.991 448.254 359.5 414.53 359.5 383.83 c 0
 359.5 269.993 407.489 197.716 502 167 c 0
 535 157 572 152 614 152 c 0
 754 152 857 205 920 311 c 0
 933 333 l 1
409 649 m 1
 1000 649 l 1
 1002.25 667.688 1003.38 685.392 1003.38 702.112 c 0
 1003.38 811.548 955.023 878.844 857 904 c 0
 831 911 800 914 767 914 c 0
 684 914 609 889 540 839 c 0
 475 790 431 727 409 649 c 1
EndSplineSet
EndChar
StartChar: f
Encoding: 72 102 74
OldEncoding: 102
Width: 569
Flags: HW
Fore
178 0 m 1
 345 785 l 1
 186 785 l 1
 216 925 l 1
 375 925 l 1
 428 1175 l 2
 458 1318 527 1418 635 1474 c 0
 688 1501 746 1515 809 1515 c 0
 860 1515 909 1506 956 1488 c 1
 920 1316 l 1
 869 1334 824 1343 786 1343 c 0
 783.25 1343.12 780.516 1343.19 777.801 1343.19 c 0
 758.797 1343.19 740.75 1340.12 725 1334 c 0
 664 1312 624 1254 604 1160 c 2
 554 925 l 1
 733 925 l 1
 703 785 l 1
 524 785 l 1
 357 0 l 1
 178 0 l 1
EndSplineSet
KernsSLIF: 72 -37 0 0
EndChar
StartChar: g
Encoding: 73 103 75
OldEncoding: 103
Width: 1139
Flags: HW
Fore
86 -74 m 1
 261 -74 l 1
 256 -115 l 1
 255.89 -117.599 255.835 -120.165 255.835 -122.7 c 0
 255.835 -189.408 293.855 -233.842 369 -256 c 0
 397 -264 429 -268 464 -268 c 0
 585 -268 676 -227 737 -146 c 0
 784 -84 821 9 847 134 c 0
 848 136 848 136 849 139 c 1
 750 46 642 0 525 0 c 0
 379 0 275 54 215 163 c 0
 179.66 224.845 162.241 297.443 162.241 380.542 c 0
 162.241 429.123 168.194 481.292 180 537 c 0
 214 695 280 824 381 925 c 0
 486 1032 612 1086 757 1086 c 0
 898 1086 993 1049 1043 974 c 1
 1062 1062 l 1
 1228 1062 l 1
 1033 144 l 2
 988 -65 922 -214 834 -301 c 0
 780 -355 712 -392 629 -413 c 0
 573 -428 507 -435 430 -435 c 1
 362 -431 l 1
 240 -418 155 -370 110 -287 c 0
 88.6667 -247.667 78 -203 78 -153 c 0
 78 -128 80.6667 -101.667 86 -74 c 1
368 550 m 0
 356.73 496.835 351.102 449.312 351.102 407.432 c 0
 351.102 278.372 404.545 202.895 511 181 c 0
 532 177 554 175 579 175 c 0
 766 175 885 298 938 544 c 0
 948.688 594.999 954.061 640.868 954.061 681.609 c 0
 954.061 774.276 926.264 840.407 870 880 c 0
 835 905 790 917 734 917 c 0
 623 917 532 869 463 774 c 0
 419 714 387 639 368 550 c 0
EndSplineSet
EndChar
StartChar: h
Encoding: 74 104 76
OldEncoding: 104
Width: 1139
Flags: HW
Fore
135 0 m 1
 447 1466 l 1
 627 1466 l 1
 521 970 l 1
 576 1026 646 1064 731 1083 c 0
 765 1091 799 1095 833 1095 c 0
 984 1095 1083 1042 1130 935 c 0
 1147.99 893.798 1156.89 847.208 1156.89 795.034 c 0
 1156.89 757.301 1152.23 716.648 1143 673 c 2
 1000 0 l 1
 820 0 l 1
 953 624 l 2
 959.975 657.325 963.459 687.422 963.459 714.29 c 0
 963.459 826.097 903.131 882 783 882 c 0
 646 882 545 817 480 687 c 0
 457 642 441 591 428 532 c 2
 315 0 l 1
 135 0 l 1
EndSplineSet
EndChar
StartChar: i
Encoding: 75 105 77
OldEncoding: 105
Width: 455
Flags: HW
Fore
404 1259 m 1
 448 1466 l 1
 628 1466 l 1
 584 1259 l 1
 404 1259 l 1
136 0 m 1
 362 1062 l 1
 542 1062 l 1
 316 0 l 1
 136 0 l 1
EndSplineSet
EndChar
StartChar: j
Encoding: 76 106 78
OldEncoding: 106
Width: 455
Flags: HW
Fore
401 1257 m 1
 446 1466 l 1
 626 1466 l 1
 581 1257 l 1
 401 1257 l 1
-182 -412 m 1
 -149 -259 l 1
 -115 -264 -87 -267 -64 -267 c 0
 -5 -267 39 -247 67 -206 c 0
 89 -174 108 -123 123 -54 c 2
 360 1062 l 1
 540 1062 l 1
 302 -58 l 2
 262 -246 186 -362 74 -406 c 0
 36 -421 -6 -428 -52 -428 c 0
 -92 -428 -135 -423 -182 -412 c 1
EndSplineSet
EndChar
StartChar: k
Encoding: 77 107 79
OldEncoding: 107
Width: 1024
Flags: HW
Fore
136 0 m 1
 448 1466 l 1
 628 1466 l 1
 450 630 l 1
 968 1062 l 1
 1201 1062 l 1
 711 668 l 1
 1016 0 l 1
 794 0 l 1
 558 543 l 1
 405 421 l 1
 316 0 l 1
 136 0 l 1
EndSplineSet
EndChar
StartChar: l
Encoding: 78 108 80
OldEncoding: 108
Width: 455
Flags: HW
Fore
131 0 m 1
 443 1466 l 1
 623 1466 l 1
 311 0 l 1
 131 0 l 1
EndSplineSet
EndChar
StartChar: m
Encoding: 79 109 81
OldEncoding: 109
Width: 1706
Flags: HW
Fore
135 0 m 1
 361 1062 l 1
 522 1062 l 1
 490 913 l 1
 534 965 588 1007 650 1038 c 0
 711 1070 778 1086 849 1086 c 0
 928 1086 988 1070 1032 1037 c 0
 1075 1004 1101 959 1109 900 c 1
 1220 1024 1342 1086 1477 1086 c 0
 1582 1086 1657 1057 1701 998 c 0
 1729.37 961.43 1743.43 912.138 1743.43 850.374 c 0
 1743.43 814.182 1738.61 773.707 1729 729 c 2
 1574 0 l 1
 1395 0 l 1
 1537 669 l 2
 1549.05 723.22 1554.86 766.097 1554.86 797.207 c 0
 1554.86 807.408 1554.23 816.345 1553 824 c 0
 1548 856 1532 882 1506 901 c 0
 1479 920 1445 930 1404 930 c 0
 1329 930 1261 905 1202 856 c 0
 1142 806 1100 726 1077 617 c 2
 946 0 l 1
 766 0 l 1
 913 690 l 2
 920.471 725.159 924.08 756.455 924.08 783.888 c 0
 924.08 818.875 918.21 847.579 907 870 c 0
 886 910 843 930 776 930 c 0
 725 930 676 917 627 890 c 0
 578 863 538 824 508 773 c 0
 478 722 453 648 432 551 c 2
 315 0 l 1
 135 0 l 1
EndSplineSet
EndChar
StartChar: n
Encoding: 80 110 82
OldEncoding: 110
Width: 1139
Flags: HW
Fore
135 0 m 1
 361 1064 l 1
 541 1064 l 1
 521 970 l 1
 576 1026 646 1064 731 1083 c 0
 765 1091 799 1095 833 1095 c 0
 984 1095 1083 1042 1130 935 c 0
 1147.99 893.798 1156.89 847.208 1156.89 795.034 c 0
 1156.89 757.301 1152.23 716.648 1143 673 c 2
 1000 0 l 1
 820 0 l 1
 953 624 l 2
 959.975 657.325 963.459 687.422 963.459 714.29 c 0
 963.459 826.097 903.131 882 783 882 c 0
 646 882 545 817 480 687 c 0
 457 642 441 591 428 532 c 2
 315 0 l 1
 135 0 l 1
EndSplineSet
EndChar
StartChar: o
Encoding: 81 111 83
OldEncoding: 111
Width: 1139
Flags: HW
Fore
181 531 m 0
 221 721 305 865 431 964 c 0
 535 1045 657 1086 797 1086 c 0
 953 1086 1065 1035 1133 932 c 0
 1175.09 868.207 1196.42 790.574 1196.42 699.385 c 0
 1196.42 651.917 1190.64 600.775 1179 546 c 0
 1128 305 1018 141 850 54 c 0
 766 11 671 -11 564 -11 c 0
 385 -11 264 50 202 171 c 0
 175.278 225.631 161.604 290.135 161.604 364.512 c 0
 161.604 415.388 168.002 470.884 181 531 c 0
366 531 m 0
 355.305 480.703 349.957 435.253 349.957 394.672 c 0
 349.957 294.867 382.305 224.523 447 184 c 0
 487 159 536 147 597 147 c 0
 734 147 839 208 914 329 c 0
 949 386 975 456 992 537 c 0
 1002.45 585.653 1007.67 629.935 1007.67 669.879 c 0
 1007.67 752.266 985.449 816.204 941 862 c 0
 900 906 840 928 763 928 c 0
 640 928 540 875 465 770 c 0
 419 706 386 626 366 531 c 0
EndSplineSet
EndChar
StartChar: p
Encoding: 82 112 84
OldEncoding: 112
Width: 1139
Flags: HW
Fore
492 957 m 1
 505 970 519 981 533 992 c 0
 615 1055 709 1086 815 1086 c 0
 950 1086 1048 1039 1110 945 c 0
 1153.19 879.247 1175.19 798.118 1175.19 701.881 c 0
 1175.19 648.83 1168.5 591.188 1155 529 c 0
 1123 377 1058 251 962 152 c 0
 856 44 733 -10 591 -10 c 0
 473 -10 386 38 330 133 c 1
 219 -390 l 1
 39 -390 l 1
 351 1076 l 1
 518 1076 l 1
 492 957 l 1
414 537 m 0
 405.071 495.571 400.607 456.821 400.607 420.75 c 0
 400.607 355.821 415.071 299.571 444 252 c 0
 483 187 538 155 610 155 c 0
 681 155 745 176 803 219 c 0
 894 286 955 395 987 544 c 0
 990 561 993 578 995 595 c 0
 998.472 621.039 1000.25 645.759 1000.25 669.243 c 0
 1000.25 699.872 997.226 728.397 991 755 c 1
 978 798 l 1
 941 883 871 926 766 927 c 0
 707 927 651 908 600 870 c 0
 508 802 447 691 414 537 c 0
EndSplineSet
EndChar
StartChar: q
Encoding: 83 113 85
OldEncoding: 113
Width: 1139
Flags: HW
Fore
1070 1076 m 1
 1237 1076 l 1
 925 -390 l 1
 745 -390 l 1
 856 133 l 1
 760 38 653 -10 535 -10 c 0
 393 -10 292 44 232 152 c 0
 198.093 214.163 181.14 286.971 181.14 370.176 c 0
 181.14 419.484 187.093 472.442 199 529 c 0
 237 704 311 843 422 945 c 0
 524 1039 642 1086 777 1086 c 0
 883 1086 963 1055 1019 992 c 0
 1029 981 1037 970 1044 957 c 1
 1070 1076 l 1
944 537 m 0
 955.385 590.128 961.056 638.139 961.056 681.032 c 0
 961.056 762.47 940.611 825.459 900 870 c 0
 865 908 817 927 758 927 c 0
 653 926 565 883 492 798 c 1
 459 755 l 1
 428 708 405 655 387 595 c 0
 383 578 378 561 375 544 c 0
 364.146 493.459 358.699 447.52 358.699 406.262 c 0
 358.699 325.887 379.37 263.273 421 219 c 0
 459 176 515 155 586 155 c 0
 658 155 727 187 794 252 c 0
 869 326 919 421 944 537 c 0
EndSplineSet
EndChar
StartChar: r
Encoding: 84 114 86
OldEncoding: 114
Width: 682
Flags: HW
Fore
133 0 m 1
 359 1062 l 1
 521 1062 l 1
 496 947 l 1
 529 992 577 1027 640 1052 c 0
 647 1055 657 1058 667 1062 c 0
 695 1072 727 1077 762 1077 c 0
 827 1077 883 1061 929 1028 c 1
 831 861 l 1
 793 887 752 900 709 900 c 0
 686 900 664 896 643 889 c 0
 627 883 610 875 594 864 c 0
 518 815 465 713 431 556 c 2
 313 0 l 1
 133 0 l 1
EndSplineSet
KernsSLIF: 16 -113 0 0 14 -113 0 0
EndChar
StartChar: s
Encoding: 85 115 87
OldEncoding: 115
Width: 1024
Flags: HW
Fore
139 358 m 1
 317 358 l 1
 316.458 350.208 316.187 342.636 316.187 335.285 c 0
 316.187 234.141 367.521 174.713 471 157 c 0
 495 153 520 151 548 151 c 0
 633 151 704 172 760 214 c 0
 796 241 818 271 825 306 c 0
 826.635 314.622 827.453 322.89 827.453 330.801 c 0
 827.453 376.111 800.635 409.716 747 431 c 0
 721 442 679 452 621 463 c 0
 503 486 426 505 390 520 c 0
 330 544 289 583 268 638 c 0
 257.679 664.107 252.518 691.689 252.518 720.969 c 0
 252.518 739.915 254.679 759.571 259 780 c 0
 281 884 343 964 446 1021 c 0
 526 1064 616 1086 715 1086 c 0
 881 1086 989 1040 1041 949 c 0
 1062.17 912.144 1072.28 869.755 1072.28 820.866 c 0
 1072.28 807.41 1071.51 793.461 1070 779 c 0
 1070 774 1068 769 1067 764 c 1
 891 764 l 1
 891.305 769.027 891.457 773.936 891.457 778.727 c 0
 891.457 868.267 838.16 916.406 729 924 c 1
 694 925 l 2
 603 925 533 902 486 856 c 1
 466 833 l 1
 453 807 l 1
 444 778 l 1
 443.732 774.517 443.608 770.962 443.608 767.373 c 0
 443.608 757.569 444.536 747.517 446 738 c 0
 452 709 478 687 524 673 c 0
 544 667 588 657 654 644 c 0
 776 620 859 597 904 575 c 0
 982 538 1022 479 1022 400 c 0
 1022 377 1020 352 1014 325 c 0
 992 220 929 136 827 73 c 0
 736 17 632 -11 515 -11 c 0
 344 -11 229 39 171 138 c 0
 146.161 181.104 134.131 232.214 134.131 290.55 c 0
 134.131 312.063 135.767 334.56 139 358 c 1
EndSplineSet
EndChar
StartChar: t
Encoding: 86 116 88
OldEncoding: 116
Width: 569
Flags: HW
Fore
562 161 m 1
 554 2 l 1
 504 -8 455 -13 408 -13 c 0
 342 -13 296 -3 270 17 c 0
 234 44 214 82 212 130 c 0
 211.586 135.524 211.381 141.429 211.381 147.719 c 0
 211.381 186.972 219.348 241.186 234 311 c 2
 364 922 l 1
 214 922 l 1
 244 1062 l 1
 394 1062 l 1
 473 1433 l 1
 652 1433 l 1
 573 1062 l 1
 723 1062 l 1
 693 922 l 1
 543 922 l 1
 411 301 l 2
 402.386 260.803 397.895 230.911 397.895 211.694 c 0
 397.895 204.138 398.589 198.233 400 194 c 0
 404 184 412 175 423 167 c 0
 437 158 456 153 482 153 c 0
 499 153 525 156 562 161 c 1
EndSplineSet
EndChar
StartChar: u
Encoding: 87 117 89
OldEncoding: 117
Width: 1139
Flags: HW
Fore
1200 1085 m 1
 969 0 l 1
 789 0 l 1
 803 64 l 1
 750 17 665 -7 546 -10 c 0
 540 -10 540 -10 535 -10 c 2
 466 -7 l 1
 325 8 235 71 197 181 c 0
 184.677 215.825 178.67 254.095 178.67 295.81 c 0
 178.67 331.954 183.18 370.684 192 412 c 2
 335 1085 l 1
 515 1085 l 1
 382 461 l 2
 375.856 432.582 372.792 406.393 372.792 382.449 c 0
 372.792 312.868 398.665 262.247 450 231 c 0
 483 211 526 201 577 201 c 0
 747 201 850 286 886 456 c 2
 1020 1085 l 1
 1200 1085 l 1
EndSplineSet
EndChar
StartChar: v
Encoding: 88 118 90
OldEncoding: 118
Width: 1024
Flags: HW
Fore
429 0 m 1
 252 1062 l 1
 442 1062 l 1
 577 269 l 1
 1036 1062 l 1
 1226 1062 l 1
 599 0 l 1
 429 0 l 1
EndSplineSet
KernsSLIF: 16 -152 0 0 14 -152 0 0
EndChar
StartChar: w
Encoding: 89 119 91
OldEncoding: 119
Width: 1479
Flags: HW
Fore
331 0 m 1
 232 1062 l 1
 418 1062 l 1
 476 246 l 1
 874 1062 l 1
 1058 1062 l 1
 1121 246 l 1
 1514 1062 l 1
 1689 1062 l 1
 1163 0 l 1
 975 0 l 1
 957 265 l 1
 930 623 916 807 914 817 c 1
 519 0 l 1
 331 0 l 1
EndSplineSet
KernsSLIF: 16 -113 0 0 14 -113 0 0
EndChar
StartChar: x
Encoding: 90 120 92
OldEncoding: 120
Width: 1024
Flags: HW
Fore
15 0 m 1
 513 552 l 1
 270 1062 l 1
 495 1062 l 1
 647 694 l 1
 992 1062 l 1
 1207 1062 l 1
 726 562 l 1
 1009 0 l 1
 788 0 l 1
 594 419 l 1
 233 0 l 1
 15 0 l 1
EndSplineSet
EndChar
StartChar: y
Encoding: 91 121 93
OldEncoding: 121
Width: 1024
Flags: HW
Fore
40 -409 m 1
 56 -240 l 1
 88 -249 123 -254 160 -254 c 0
 207 -254 247 -246 278 -231 c 0
 323 -209 357 -181 379 -146 c 0
 401 -112 419 -64 436 -2 c 1
 259 1062 l 1
 453 1062 l 1
 568 201 l 1
 1052 1062 l 1
 1232 1062 l 1
 602 -1 l 1
 556 -145 504 -245 447 -302 c 0
 418 -331 383 -355 340 -375 c 0
 282 -402 218 -418 149 -422 c 1
 96 -421 l 1
 75 -419 56 -415 40 -409 c 1
EndSplineSet
KernsSLIF: 16 -152 0 0 14 -152 0 0
EndChar
StartChar: z
Encoding: 92 122 94
OldEncoding: 122
Width: 1024
Flags: HW
Fore
40 0 m 1
 73 155 l 1
 911 916 l 1
 255 916 l 1
 286 1062 l 1
 1174 1062 l 1
 1143 916 l 1
 295 155 l 1
 1013 155 l 1
 980 0 l 1
 40 0 l 1
EndSplineSet
EndChar
StartChar: braceleft
Encoding: 93 123 95
OldEncoding: 123
Width: 684
Flags: HW
Fore
187 612 m 1
 238 613 283 627 321 654 c 0
 360 680 388 716 409 762 c 0
 430 808 452 887 476 998 c 0
 501 1109 518 1183 529 1218 c 0
 547 1274 567 1319 592 1353 c 0
 615 1387 641 1414 669 1434 c 0
 697 1455 731 1470 771 1481 c 0
 797 1488 840 1491 897 1491 c 2
 953 1491 l 1
 920 1334 l 1
 889 1334 l 2
 820 1334 771 1321 742 1296 c 0
 714 1271 691 1216 673 1129 c 0
 636 954 608 844 592 798 c 0
 565 727 533 672 495 633 c 128
 458 594 405 560 337 530 c 1
 403 499 447 453 467 390 c 0
 474.623 365.989 478.323 336.022 478.323 300.21 c 0
 478.323 242.06 468.566 168.498 450 80 c 0
 422 -50 407 -127 405 -152 c 0
 403.949 -161.458 403.428 -170.341 403.428 -178.641 c 0
 403.428 -209.833 410.783 -232.783 425 -247 c 0
 443 -265 484 -274 547 -274 c 2
 578 -274 l 1
 544 -431 l 1
 488 -431 l 2
 423 -431 376 -426 350 -415 c 0
 310 -400 280 -375 260 -340 c 0
 241.625 -310.25 232.438 -273.609 232.438 -229.408 c 0
 232.438 -223.094 232.625 -216.625 233 -210 c 0
 236 -157 250 -71 274 49 c 0
 297.322 160.946 310.201 240.692 310.201 288.238 c 0
 310.201 291.659 310.134 294.913 310 298 c 0
 309 344 296 380 269 407 c 0
 242 434 203 448 152 449 c 1
 187 612 l 1
EndSplineSet
EndChar
StartChar: bar
Encoding: 94 124 96
OldEncoding: 124
Width: 532
Flags: HW
Fore
96 -431 m 1
 505 1491 l 1
 662 1491 l 1
 253 -431 l 1
 96 -431 l 1
EndSplineSet
EndChar
StartChar: braceright
Encoding: 95 125 97
OldEncoding: 125
Width: 684
Flags: HW
Fore
756 612 m 1
 721 449 l 1
 670 448 625 434 587 407 c 0
 549 380 520 344 499 298 c 0
 479 253 457 174 432 63 c 0
 408 -48 390 -122 380 -157 c 0
 362 -214 341 -259 318 -292 c 0
 294 -326 268 -353 240 -374 c 0
 211 -394 177 -409 138 -420 c 0
 111 -427 68 -431 11 -431 c 2
 -45 -431 l 1
 -11 -274 l 1
 20 -274 l 2
 89 -274 138 -261 166 -236 c 0
 194 -211 217 -155 236 -68 c 0
 271 99 296 204 312 249 c 0
 339 323 372 382 414 426 c 0
 455 471 507 505 572 530 c 1
 503 567 459 615 441 676 c 0
 433.78 698.8 430.17 727.665 430.17 762.54 c 0
 430.17 819.44 439.78 892.34 459 981 c 0
 486 1111 501 1189 503 1214 c 0
 504.06 1223.54 504.581 1232.46 504.581 1240.75 c 0
 504.581 1271.56 497.395 1293.82 484 1308 c 0
 466 1325 425 1334 362 1334 c 2
 331 1334 l 1
 364 1491 l 1
 420 1491 l 2
 485 1491 532 1486 559 1475 c 0
 598 1460 628 1436 649 1401 c 0
 667.182 1369.18 676.273 1330.75 676.273 1284.21 c 0
 676.273 1279.55 676.182 1274.82 676 1270 c 0
 673 1217 658 1131 634 1011 c 0
 609.962 895.615 597.942 814.439 597.942 767.472 c 0
 597.942 765.593 597.962 763.769 598 762 c 0
 599 717 613 681 639 654 c 0
 666 627 705 613 756 612 c 1
EndSplineSet
EndChar
StartChar: asciitilde
Encoding: 96 126 98
OldEncoding: 126
Width: 1196
Flags: HW
Fore
205 557 m 1
 249 762 l 1
 337 842 437 882 552 882 c 0
 592 882 633 876 675 864 c 0
 716 853 774 830 848 795 c 0
 890 776 921 763 943 757 c 0
 965 751 988 748 1011 748 c 0
 1054 748 1102 761 1153 787 c 0
 1206 813 1254 846 1298 885 c 1
 1253 673 l 1
 1202 633 1152 604 1105 586 c 0
 1058 568 1007 559 952 559 c 0
 912 559 875 564 840 573 c 0
 806 582 754 605 682 640 c 0
 610 675 548 693 495 693 c 0
 452 693 410 684 370 666 c 0
 328 647 273 611 205 557 c 1
EndSplineSet
EndChar
StartChar: exclamdown
Encoding: 99 161 101
OldEncoding: 161
Width: 680
Flags: HW
Fore
714 1278 m 1
 510 1278 l 1
 554 1489 l 1
 758 1489 l 1
 714 1278 l 1
452 0 m 1
 228 0 l 1
 485 1079 l 1
 651 1079 l 1
 452 0 l 1
EndSplineSet
EndChar
StartChar: cent
Encoding: 100 162 102
OldEncoding: 162
Width: 1118
Flags: HW
Fore
557 2 m 1
 418 19 320 75 264 171 c 128
 229.866 230.58 212.679 302.87 212.679 387.633 c 0
 212.679 439.446 219.101 495.92 232 557 c 0
 266 716 332 844 432 943 c 128
 532 1042 653 1099 794 1115 c 1
 871 1475 l 1
 985 1475 l 1
 908 1116 l 1
 966 1114 1020 1105 1070 1090 c 128
 1120 1074 1162 1056 1195 1037 c 1
 1153 837 l 1
 1143 837 l 1
 1109 871 1072 901 1030 926 c 128
 988 951 938 968 879 977 c 1
 701 141 l 1
 735 144 768 152 805 164 c 128
 839 176 870 189 896 202 c 0
 923 216 947 230 969 244 c 128
 991 257 1009 270 1025 281 c 1
 1035 281 l 1
 993 83 l 1
 945 63 896 45 846 30 c 128
 795 14 737 4 671 1 c 1
 594 -361 l 1
 480 -361 l 1
 557 2 l 1
588 146 m 1
 763 971 l 1
 683 957 613 915 554 846 c 128
 494 776 452 680 425 557 c 0
 413.122 499.896 407.088 448.635 407.088 403.409 c 0
 407.088 349.635 415.619 304.392 433 268 c 128
 464 200 516 159 588 146 c 1
EndSplineSet
EndChar
StartChar: sterling
Encoding: 101 163 103
OldEncoding: 163
Width: 1118
Flags: HW
Fore
1031 0 m 1
 89 0 l 1
 133 207 l 1
 212 229 273 272 317 335 c 128
 361 398 395 491 421 613 c 1
 260 613 l 1
 290 751 l 1
 451 751 l 1
 519 1071 l 2
 547 1205 609 1313 704 1395 c 128
 798 1477 908 1518 1031 1518 c 0
 1096 1518 1150 1513 1193 1502 c 128
 1237 1492 1277 1481 1313 1470 c 1
 1270 1264 l 1
 1260 1264 l 1
 1226 1291 1188 1313 1144 1328 c 128
 1100 1343 1057 1351 1014 1351 c 0
 932 1351 866 1325 815 1274 c 128
 763 1223 727 1149 707 1052 c 2
 643 751 l 1
 1007 751 l 1
 977 613 l 1
 613 613 l 1
 600 552 l 2
 584 474 550 403 496 340 c 128
 445 276 378 223 300 182 c 1
 297 171 l 1
 1067 171 l 1
 1031 0 l 1
EndSplineSet
EndChar
StartChar: currency
Encoding: 102 164 104
OldEncoding: 164
Width: 1118
Flags: HW
Fore
1115 272 m 1
 986 166 l 1
 817 378 l 1
 784 360 753 347 725 338 c 128
 697 330 665 326 629 326 c 0
 598 326 568 331 540 341 c 128
 511 351 486 364 466 379 c 1
 205 164 l 1
 123 273 l 1
 380 486 l 1
 369 513 363 542 360 572 c 128
 359.5 580 359.25 587.812 359.25 595.469 c 0
 359.25 618.438 361.5 640 366 661 c 0
 372 690 383 720 397 750 c 128
 414 779 433 808 455 835 c 1
 288 1051 l 1
 418 1157 l 1
 587 944 l 1
 615 960 645 973 678 982 c 128
 711 991 742 996 772 996 c 0
 807 996 838 991 866 980 c 128
 894 970 918 958 937 945 c 1
 1194 1157 l 1
 1281 1052 l 1
 1021 836 l 1
 1033 807 1040 780 1043 753 c 128
 1043.87 745.129 1044.32 737.004 1044.32 728.574 c 0
 1044.32 708.085 1041.67 685.797 1036 661 c 0
 1030 631 1019 600 1003 570 c 128
 986 538 968 511 946 486 c 1
 1115 272 l 1
892 661 m 0
 895.452 676.247 897.166 690.915 897.166 705.028 c 0
 897.166 739.97 886.657 771.507 866 800 c 128
 836 838 795 858 742 858 c 0
 691 858 642 839 596 800 c 128
 549 762 520 716 508 661 c 0
 504.975 646.425 503.462 632.379 503.462 618.842 c 0
 503.462 583.154 513.975 551 535 522 c 128
 565 484 606 464 659 464 c 0
 710 464 759 483 805 522 c 128
 852 560 881 606 892 661 c 0
EndSplineSet
EndChar
StartChar: yen
Encoding: 103 165 105
OldEncoding: 165
Width: 1118
Flags: HW
Fore
1375 1489 m 1
 795 678 l 1
 774 578 l 1
 1116 578 l 1
 1087 440 l 1
 747 440 l 1
 653 0 l 1
 465 0 l 1
 559 440 l 1
 219 440 l 1
 248 578 l 1
 590 578 l 1
 607 657 l 1
 372 1489 l 1
 582 1489 l 1
 741 850 l 1
 1174 1489 l 1
 1375 1489 l 1
EndSplineSet
EndChar
StartChar: brokenbar
Encoding: 104 166 106
OldEncoding: 166
Width: 783
Flags: HW
Fore
636 758 m 1
 469 758 l 1
 639 1556 l 1
 806 1556 l 1
 636 758 l 1
392 -392 m 1
 225 -392 l 1
 394 406 l 1
 561 406 l 1
 392 -392 l 1
EndSplineSet
EndChar
StartChar: section
Encoding: 105 167 107
OldEncoding: 167
Width: 1118
Flags: HW
Fore
844 401 m 0
 865 424 883 447 895 468 c 128
 910 490 920 519 928 555 c 0
 932.304 575.29 934.34 593.689 934.34 610.431 c 0
 934.34 620.919 933.541 630.756 932 640 c 128
 927 664 918 684 905 699 c 0
 892 714 876 727 857 738 c 128
 838 748 815 757 789 766 c 0
 758 776 758 776 716 788 c 128
 689 797 659 807 624 819 c 1
 609 811 593 801 576 789 c 128
 559 777 540 760 518 738 c 0
 501 721 484 697 466 668 c 128
 450 639 437 609 431 579 c 0
 426.793 558.35 424.634 539.308 424.634 521.875 c 0
 424.634 493.721 430.266 469.763 442 450 c 128
 460 418 503 391 570 369 c 0
 602 359 602 359 644 346 c 128
 684 332 684 332 734 315 c 1
 749 323 765 334 785 348 c 128
 805 362 825 380 844 401 c 0
154 -133 m 1
 169 -142 189 -151 212 -162 c 128
 235 -173 258 -182 281 -190 c 0
 309 -200 337 -208 363 -212 c 128
 389 -218 421 -220 462 -220 c 0
 538 -220 605 -204 663 -174 c 128
 720 -142 755 -97 768 -36 c 0
 772.133 -17.3993 774.131 -0.667408 774.131 14.3337 c 0
 774.131 28.366 772.383 40.8838 769 52 c 128
 761 74 745 94 722 111 c 0
 697 128 666 142 627 154 c 128
 569 171 569 171 501 192 c 0
 445 209 400 226 366 243 c 128
 329 260 299 283 274 312 c 0
 250 339 235 371 228 407 c 128
 224.661 422.027 223.064 438.1 223.064 455.218 c 0
 223.064 479.109 226.174 505.036 232 533 c 0
 246 596 274 655 319 712 c 128
 364 768 425 817 500 858 c 1
 502 865 l 1
 448 898 414 939 398 986 c 128
 388.367 1012.63 383.55 1041.51 383.55 1072.46 c 0
 383.55 1096.13 386.367 1121 392 1147 c 0
 416 1259 478 1349 577 1417 c 128
 677 1485 802 1519 951 1519 c 0
 1008 1519 1059 1515 1105 1506 c 128
 1151 1497 1202 1483 1257 1462 c 1
 1216 1268 l 1
 1206 1268 l 1
 1152 1298 1101 1320 1052 1334 c 128
 1004 1348 951 1355 895 1355 c 0
 820 1355 754 1340 696 1310 c 128
 638 1279 603 1235 590 1176 c 0
 586 1157 584 1139.75 584 1124.25 c 0
 584 1108.75 586 1095 590 1083 c 128
 599 1059 615 1039 638 1024 c 0
 660 1008 690 994 729 981 c 128
 766 968 809 955 857 942 c 0
 973 909 1051 866 1093 814 c 128
 1121.02 777.783 1135.03 733.162 1135.03 680.135 c 0
 1135.03 655.562 1132.02 629.183 1126 601 c 0
 1110 529 1079 466 1032 412 c 128
 983 358 926 313 858 277 c 1
 856 270 l 1
 908 239 943 201 961 154 c 128
 970.633 127.367 975.45 98.4856 975.45 66.9927 c 0
 975.45 42.91 972.633 17.3 967 -10 c 0
 956 -59 935 -108 905 -155 c 128
 873 -202 836 -242 790 -274 c 0
 741 -309 685 -337 624 -356 c 128
 562 -375 490 -385 408 -385 c 0
 355 -385 304 -380 254 -371 c 128
 204 -362 153 -347 102 -327 c 1
 144 -133 l 1
 154 -133 l 1
EndSplineSet
EndChar
StartChar: dieresis
Encoding: 106 168 108
OldEncoding: 168
Width: 1118
Flags: HW
Fore
1144 1304 m 1
 943 1304 l 1
 985 1499 l 1
 1186 1499 l 1
 1144 1304 l 1
731 1304 m 1
 530 1304 l 1
 572 1499 l 1
 773 1499 l 1
 731 1304 l 1
EndSplineSet
EndChar
StartChar: copyright
Encoding: 107 169 109
OldEncoding: 169
Width: 1902
Flags: HW
Fore
1955 655 m 0
 1904 416 1777 212 1571 44 c 128
 1367 -126 1145 -210 906 -210 c 128
 667 -210 481 -126 349 44 c 128
 252.086 165.505 203.817 305.84 203.817 464.628 c 0
 203.817 525.391 210.885 588.855 225 655 c 128
 276 894 403 1097 609 1266 c 128
 813 1435 1035 1519 1274 1519 c 128
 1513 1519 1699 1435 1831 1266 c 128
 1927.91 1143.77 1976.18 1003.76 1976.18 845.205 c 0
 1976.18 784.533 1969.11 721.145 1955 655 c 0
1840 655 m 0
 1852.56 713.357 1858.81 769.298 1858.81 822.799 c 0
 1858.81 960.908 1817.17 1082.77 1735 1188 c 128
 1619 1336 1458 1409 1251 1409 c 128
 1044 1409 853 1336 675 1188 c 128
 497 1042 387 864 342 655 c 128
 329.768 596.9 323.642 541.195 323.642 487.886 c 0
 323.642 349.431 364.969 227.135 448 121 c 128
 563 -26 724 -100 931 -100 c 128
 1138 -100 1329 -26 1508 121 c 128
 1685 268 1796 446 1840 655 c 0
1328 255 m 1
 1279 235 1231 218 1183 202 c 128
 1135 188 1081 180 1020 180 c 0
 881 180 780 221 717 304 c 128
 674.922 357.913 654.025 427.819 654.025 513.436 c 0
 654.025 558.04 659.697 606.908 671 660 c 0
 704 813 771 932 872 1016 c 128
 973 1101 1091 1143 1225 1143 c 0
 1280 1143 1331 1136 1379 1121 c 128
 1427 1106 1467 1089 1501 1070 c 1
 1463 889 l 1
 1447 889 l 1
 1423 914 1389 938 1343 962 c 128
 1297 984 1249 996 1198 996 c 0
 1116 996 1044 969 984 914 c 128
 923 859 881 775 856 660 c 0
 846.879 617.172 842.319 578.433 842.319 543.658 c 0
 842.319 490.74 852.879 447 874 412 c 128
 909 356 969 327 1056 327 c 0
 1112 327 1167 339 1222 364 c 128
 1277 388 1320 411 1350 434 c 1
 1366 434 l 1
 1328 255 l 1
EndSplineSet
EndChar
StartChar: ordfeminine
Encoding: 108 170 110
OldEncoding: 170
Width: 1010
Flags: HW
Fore
994 566 m 1
 828 566 l 1
 848 657 l 1
 825 642 825 642 788 618 c 128
 764 603 740 590 717 581 c 0
 688 568 659 558 631 552 c 128
 603 544 566 541 519 541 c 0
 436 541 373 569 330 624 c 128
 299.543 663.665 284.137 711.357 284.137 766.721 c 0
 284.137 789.521 286.75 813.623 292 839 c 0
 307 908 333 965 371 1008 c 128
 410 1052 458 1087 516 1112 c 0
 571 1136 638 1153 716 1163 c 128
 794 1173 876 1180 960 1184 c 1
 964 1203 l 2
 967.794 1221.97 969.531 1238.88 969.531 1253.74 c 0
 969.531 1266.29 968.29 1277.38 966 1287 c 128
 958 1308 946 1325 927 1337 c 0
 911 1348 888 1356 860 1360 c 128
 832 1363 803 1365 772 1365 c 0
 720 1365 665 1357 609 1342 c 128
 552 1326 509 1313 481 1304 c 1
 466 1304 l 1
 502 1474 l 1
 533 1483 579 1492 639 1503 c 128
 701 1514 756 1519 806 1519 c 0
 934 1519 1026 1494 1081 1442 c 128
 1119.9 1407.27 1139.02 1356.6 1139.02 1290.35 c 0
 1139.02 1261.24 1135.33 1229.11 1128 1194 c 2
 994 566 l 1
878 802 m 1
 930 1045 l 1
 886 1042 835 1038 777 1033 c 128
 719 1028 671 1020 635 1010 c 0
 592 999 556 980 526 954 c 128
 495 929 476 894 466 849 c 0
 463.033 834.165 461.562 820.386 461.562 807.663 c 0
 461.562 777.507 469.824 753.286 486 735 c 128
 510 709 551 696 609 696 c 0
 660 696 707 707 753 729 c 128
 798 751 840 775 878 802 c 1
EndSplineSet
EndChar
StartChar: guillemotleft
Encoding: 109 171 111
OldEncoding: 171
Width: 1174
Flags: HW
Fore
1084 191 m 1
 685 610 l 1
 703 695 l 1
 1280 1113 l 1
 1240 925 l 1
 865 652 l 1
 1124 379 l 1
 1084 191 l 1
647 162 m 1
 232 608 l 1
 251 697 l 1
 856 1142 l 1
 814 946 l 1
 421 652 l 1
 689 358 l 1
 647 162 l 1
EndSplineSet
EndChar
StartChar: logicalnot
Encoding: 110 172 112
OldEncoding: 172
Width: 1490
Flags: HW
Fore
1335 57 m 1
 1164 57 l 1
 1280 602 l 1
 285 602 l 1
 319 762 l 1
 1485 762 l 1
 1335 57 l 1
EndSplineSet
EndChar
StartChar: registered
Encoding: 112 174 114
OldEncoding: 174
Width: 1902
Flags: HW
Fore
1955 655 m 0
 1904 416 1777 212 1571 44 c 128
 1367 -126 1145 -210 906 -210 c 128
 667 -210 481 -126 349 44 c 128
 252.086 165.505 203.817 305.84 203.817 464.628 c 0
 203.817 525.391 210.885 588.855 225 655 c 128
 276 894 403 1097 609 1266 c 128
 813 1435 1035 1519 1274 1519 c 128
 1513 1519 1699 1435 1831 1266 c 128
 1927.91 1143.77 1976.18 1003.76 1976.18 845.205 c 0
 1976.18 784.533 1969.11 721.145 1955 655 c 0
1840 655 m 0
 1852.56 713.357 1858.81 769.298 1858.81 822.799 c 0
 1858.81 960.908 1817.17 1082.77 1735 1188 c 128
 1619 1336 1458 1409 1251 1409 c 128
 1044 1409 853 1336 675 1188 c 128
 497 1042 387 864 342 655 c 128
 329.768 596.9 323.642 541.195 323.642 487.886 c 0
 323.642 349.431 364.969 227.135 448 121 c 128
 563 -26 724 -100 931 -100 c 128
 1138 -100 1329 -26 1508 121 c 128
 1685 268 1796 446 1840 655 c 0
1494 215 m 1
 1267 215 l 1
 1059 570 l 1
 936 570 l 1
 861 215 l 1
 696 215 l 1
 890 1130 l 1
 1169 1130 l 2
 1232 1130 1281 1128 1317 1123 c 128
 1352 1118 1386 1105 1418 1084 c 0
 1454 1061 1477 1034 1488 1002 c 128
 1493.63 985.619 1496.38 966.879 1496.38 945.781 c 0
 1496.38 925.665 1493.88 903.404 1489 879 c 0
 1475 812 1445 758 1398 715 c 128
 1353 672 1297 639 1233 615 c 1
 1494 215 l 1
1304 868 m 0
 1307.3 881.763 1308.79 894.313 1308.79 905.818 c 0
 1308.79 915.212 1307.8 923.909 1306 932 c 128
 1302 950 1291 965 1274 978 c 0
 1259 989 1243 996 1223 1000 c 128
 1202 1003 1177 1005 1144 1005 c 2
 1029 1005 l 1
 963 696 l 1
 1061 696 l 2
 1093 696 1124 699 1153 706 c 128
 1182 712 1208 723 1228 738 c 128
 1248 753 1265 771 1276 791 c 128
 1288 811 1298 837 1304 868 c 0
EndSplineSet
EndChar
StartChar: macron
Encoding: 113 175 115
OldEncoding: 175
Width: 1118
Flags: HW
Fore
1487 1659 m 1
 337 1659 l 1
 364 1789 l 1
 1514 1789 l 1
 1487 1659 l 1
EndSplineSet
EndChar
StartChar: degree
Encoding: 114 176 116
OldEncoding: 176
Width: 964
Flags: HW
Fore
1104 1135 m 0
 1082 1028 1025 938 937 865 c 128
 848 792 749 755 642 755 c 0
 536 755 454 791 396 864 c 128
 353.549 916.524 332.323 977.85 332.323 1048.35 c 0
 332.323 1075.83 335.549 1104.71 342 1135 c 0
 365 1242 421 1332 510 1405 c 128
 598 1478 697 1515 804 1515 c 128
 911 1515 994 1478 1052 1405 c 128
 1092.9 1352.62 1113.72 1291.48 1113.72 1221.59 c 0
 1113.72 1194.08 1110.5 1165.22 1104 1135 c 0
947 1135 m 0
 951.108 1153.78 953.15 1171.7 953.15 1188.76 c 0
 953.15 1229.83 941.316 1265.91 918 1297 c 128
 884 1341 836 1363 772 1363 c 128
 708 1363 650 1341 598 1297 c 128
 545 1253 513 1199 499 1135 c 0
 495.058 1116.7 493.098 1099.19 493.098 1082.51 c 0
 493.098 1039.98 505.855 1002.89 531 972 c 128
 564 929 613 907 675 907 c 0
 739 907 796 929 849 974 c 128
 901 1018 934 1072 947 1135 c 0
EndSplineSet
EndChar
StartChar: plusminus
Encoding: 115 177 117
OldEncoding: 177
Width: 1490
Flags: HW
Fore
1362 159 m 1
 196 159 l 1
 229 317 l 1
 729 317 l 1
 819 739 l 1
 319 739 l 1
 353 897 l 1
 853 897 l 1
 960 1402 l 1
 1126 1402 l 1
 1019 897 l 1
 1519 897 l 1
 1485 739 l 1
 985 739 l 1
 895 317 l 1
 1395 317 l 1
 1362 159 l 1
EndSplineSet
EndChar
StartChar: uni00B2
Encoding: 116 178 118
OldEncoding: 178
Width: 1010
Flags: HW
Fore
986 566 m 1
 305 566 l 1
 338 718 l 1
 427 777 427 777 509 832 c 128
 564 868 609 900 644 929 c 0
 730 997 787 1050 817 1088 c 128
 848 1127 868 1173 880 1227 c 0
 882.967 1240.65 884.438 1253.33 884.438 1265.09 c 0
 884.438 1292.98 876.176 1315.71 860 1334 c 128
 836 1358 799 1371 748 1371 c 0
 702 1371 653 1361 603 1341 c 128
 551 1321 509 1300 478 1279 c 1
 463 1279 l 1
 501 1458 l 1
 547 1476 597 1491 649 1502 c 128
 704 1513 755 1519 804 1519 c 0
 908 1519 982 1493 1026 1440 c 128
 1058.29 1402.69 1074.62 1357.66 1074.62 1304.9 c 0
 1074.62 1284.13 1072.08 1262.16 1067 1239 c 0
 1055 1182 1031 1128 993 1076 c 128
 955 1023 894 965 808 900 c 0
 767 869 720 837 666 802 c 128
 587 751 587 751 524 710 c 1
 1017 710 l 1
 986 566 l 1
EndSplineSet
EndChar
StartChar: uni00B3
Encoding: 117 179 119
OldEncoding: 179
Width: 1010
Flags: HW
Fore
1013 828 m 0
 1003 781 984 738 956 700 c 128
 928 663 896 633 859 611 c 0
 819 586 777 569 733 558 c 128
 690 547 642 542 589 542 c 0
 534 542 484 547 438 557 c 128
 394 567 350 581 312 600 c 1
 349 775 l 1
 366 775 l 1
 386 752 419 730 466 710 c 128
 513 691 563 681 616 681 c 0
 672 681 720 693 763 718 c 128
 805 742 830 778 841 826 c 0
 843.845 839.657 845.233 852.343 845.233 864.034 c 0
 845.233 893.433 836.456 916.544 820 933 c 128
 795 956 749 968 680 968 c 2
 540 968 l 1
 569 1107 l 1
 694 1107 l 2
 752 1107 800 1120 837 1145 c 128
 874 1170 897 1205 906 1249 c 0
 908.554 1260.35 909.819 1271.06 909.819 1281.1 c 0
 909.819 1306.44 901.757 1327.53 886 1344 c 128
 864 1368 823 1380 765 1380 c 0
 721 1380 671 1370 617 1349 c 128
 560 1328 519 1306 489 1283 c 1
 472 1283 l 1
 509 1458 l 1
 556 1476 605 1491 657 1502 c 128
 710 1513 762 1519 815 1519 c 0
 916 1519 990 1496 1037 1449 c 128
 1073.08 1412.92 1090.89 1371.55 1090.89 1324.87 c 0
 1090.89 1310.73 1089.25 1296.11 1086 1281 c 0
 1074 1223 1048 1175 1008 1138 c 128
 967 1100 919 1072 864 1055 c 1
 863 1047 l 1
 913 1036 955 1013 985 976 c 128
 1008.07 950.832 1018.92 919.311 1018.92 881.095 c 0
 1018.92 864.646 1016.91 846.957 1013 828 c 0
EndSplineSet
EndChar
StartChar: acute
Encoding: 118 180 120
OldEncoding: 180
Width: 1118
Flags: HW
Fore
1227 1676 m 1
 875 1302 l 1
 726 1302 l 1
 984 1676 l 1
 1227 1676 l 1
EndSplineSet
EndChar
StartChar: mu
Encoding: 119 181 121
OldEncoding: 181
Width: 1163
Flags: HW
Fore
1027 0 m 1
 855 0 l 1
 880 116 l 1
 874 116 l 1
 825 74 778 41 732 18 c 128
 687 -5 634 -17 574 -17 c 0
 513 -17 467 -5 437 18 c 128
 407 41 377 74 348 115 c 1
 236 -412 l 1
 48 -412 l 1
 373 1117 l 1
 561 1117 l 1
 382 275 l 1
 403 242 433 215 470 194 c 128
 508 174 556 164 613 164 c 0
 673 164 725 174 771 193 c 128
 815 212 858 240 897 275 c 1
 1076 1117 l 1
 1264 1117 l 1
 1027 0 l 1
EndSplineSet
EndChar
StartChar: paragraph
Encoding: 120 182 122
OldEncoding: 182
Width: 1118
Flags: HW
Fore
905 -363 m 1
 765 -363 l 1
 1131 1359 l 1
 944 1359 l 1
 578 -363 l 1
 438 -363 l 1
 641 593 l 1
 505 596 403 639 336 722 c 128
 290.001 779.848 266.832 850.325 266.832 933.77 c 0
 266.832 970.053 271.212 1008.79 280 1050 c 0
 310 1188 375 1296 479 1373 c 128
 582 1450 714 1489 876 1489 c 2
 1298 1489 l 1
 905 -363 l 1
EndSplineSet
EndChar
StartChar: periodcentered
Encoding: 121 183 123
OldEncoding: 183
Width: 724
Flags: HW
Fore
659 832 m 1
 420 832 l 1
 480 1117 l 1
 719 1117 l 1
 659 832 l 1
EndSplineSet
EndChar
StartChar: cedilla
Encoding: 122 184 124
OldEncoding: 184
Width: 1118
Flags: HW
Fore
771 20 m 1
 770 8 768 -7 764 -26 c 128
 763 -44 759 -65 754 -89 c 0
 731 -197 684 -280 614 -337 c 128
 544 -394 465 -423 376 -423 c 0
 351 -423 323 -421 290 -417 c 128
 258 -413 229 -407 204 -399 c 1
 238 -239 l 1
 247 -239 l 1
 262 -246 281 -254 305 -262 c 128
 330 -269 355 -273 382 -273 c 0
 445 -273 492 -260 524 -234 c 128
 557 -207 579 -165 591 -107 c 0
 595 -90 599 -71 602 -50 c 128
 606 -29 610 -6 614 20 c 1
 771 20 l 1
EndSplineSet
EndChar
StartChar: uni0E01
Encoding: 123 3585 125
OldEncoding: 3585
Width: 1240
Flags: HW
HStem: 0 21G<188 348 922 1082> 989 160<834 868>
DStem: 265 361 425 361 188 0 348 0 1061 655 1225 671 922 0 1082 0
Fore
1225 671 m 2
 1082 0 l 1
 922 0 l 1
 1061 655 l 1
 1066.26 689.179 1068.89 720.726 1068.89 749.646 c 0
 1068.89 907.726 990.389 987.309 834 989 c 1
 829.357 989.136 824.733 989.203 820.127 989.203 c 0
 688.817 989.203 572.442 934.103 471 823 c 1
 551 802 602 748 626 661 c 1
 521 596 453 496 425 361 c 2
 348 0 l 1
 188 0 l 1
 265 361 l 2
 293 492 357 595 458 669 c 1
 425 738 367 778 286 790 c 1
 433 1026 628 1146 868 1149 c 1
 1116.9 1130.81 1241.36 1018.93 1241.36 812.815 c 0
 1241.36 769.674 1235.9 722.404 1225 671 c 2
EndSplineSet
EndChar
StartChar: uni0E02
Encoding: 124 3586 126
OldEncoding: 3586
Width: 1400
Flags: HW
HStem: 0 164<742 1217> 823 326<488 704>
DStem: 669 575 829 575 547 0 742 164 1299 1139 1459 1139 1092 164 1217 0
Fore
447 658 m 1
 502 661 536 689 550 741 c 1
 551.658 749.453 552.491 757.247 552.491 764.386 c 0
 552.491 800.319 531.381 819.663 488 823 c 1
 434 823 399 796 384 741 c 1
 381.818 732.091 380.727 723.876 380.727 716.361 c 0
 380.727 682.545 402.818 662.909 447 658 c 1
998 771 m 1
 904 718 848 653 829 575 c 1
 742 164 l 1
 1092 164 l 1
 1299 1139 l 1
 1459 1139 l 1
 1217 0 l 1
 547 0 l 1
 669 575 l 1
 693 661 752 730 847 783 c 1
 850.63 801.708 852.467 819.324 852.467 835.849 c 0
 852.467 878.506 840.227 913.89 815 942 c 128
 783.433 977.281 738.073 995.322 680.522 995.322 c 0
 676.087 995.322 671.579 995.215 667 995 c 0
 600 993 551 970 520 925 c 1
 614.333 924.11 661.147 881.245 661.147 797.815 c 0
 661.147 787.496 660.431 776.557 659 765 c 1
 633 622 551 548 414 545 c 1
 308.591 550.633 255.627 606.119 255.627 711.459 c 0
 255.627 737.034 258.749 765.548 265 797 c 1
 287 890 337 971 414 1042 c 128
 492 1113 589 1148 704 1149 c 0
 705.662 1149.02 707.318 1149.02 708.968 1149.02 c 0
 809.608 1149.02 888.968 1119.03 948 1060 c 128
 989.563 1017.05 1010.01 957.787 1010.01 881.874 c 0
 1010.01 848.202 1005.99 811.253 998 771 c 1
EndSplineSet
EndChar
StartChar: uni0E03
Encoding: 125 3587 127
OldEncoding: 3587
Width: 1450
Flags: HW
HStem: 0 164<819 1294> 1119 20G<1376 1536>
DStem: 749 587 909 587 624 0 819 164 1376 1139 1536 1139 1169 164 1294 0
Fore
454 623 m 1
 511 630 542 660 549 712 c 1
 551.257 721.591 552.382 730.297 552.382 738.12 c 0
 552.382 771.895 531.409 789.188 490 790 c 1
 433 788 399 760 389 706 c 0
 387.69 698.725 387.037 691.915 387.037 685.575 c 0
 387.037 648.339 409.566 627.272 454 623 c 1
749 587 m 1
 765 668 824 738 926 798 c 1
 929.681 815.256 931.51 831.771 931.51 847.521 c 0
 931.51 900.223 911.036 944.354 871 979 c 1
 871 978 816 946 706 881 c 1
 568 979 l 1
 533 958 507 927 489 886 c 1
 505.348 891.573 521.42 894.385 537.319 894.385 c 0
 564.21 894.385 590.605 886.34 617 870 c 128
 647.421 851.451 662.427 820.239 662.427 776.774 c 0
 662.427 761.659 660.612 745.062 657 727 c 0
 640 650 610 594 564 558 c 128
 522.375 523.775 475.616 506.663 423.724 506.663 c 0
 419.516 506.663 415.275 506.775 411 507 c 0
 307.023 512.114 255.345 565.893 255.345 668.339 c 0
 255.345 686.097 256.898 705.317 260 726 c 1
 304 938 419 1079 604 1150 c 1
 604 1149 650 1113 740 1041 c 1
 907 1149 l 1
 964 1140 1012 1100 1051 1030 c 128
 1076.54 985.299 1089.45 935.705 1089.45 880.957 c 0
 1089.45 849.971 1085.31 817.335 1077 783 c 1
 980 721 923 656 909 587 c 2
 819 164 l 1
 1169 164 l 1
 1376 1139 l 1
 1536 1139 l 1
 1294 0 l 1
 624 0 l 1
 749 587 l 1
EndSplineSet
EndChar
StartChar: uni0E04
Encoding: 126 3588 128
OldEncoding: 3588
Width: 1370
Flags: HW
HStem: 0 21G<245 455 1035 1195> 625 121<868 881>
DStem: 1173 650 1333 651 1035 0 1195 0
Fore
434 256 m 1
 492 418 562 540 642 623 c 128
 722.036 705.012 801.095 746.018 878.213 746.018 c 0
 879.143 746.018 880.071 746.012 881 746 c 0
 988.229 745.142 1042.48 697.924 1042.48 603.714 c 0
 1042.48 588.101 1040.99 571.197 1038 553 c 1
 1009 432 937 362 822 342 c 1
 820.554 341.982 819.119 341.973 817.695 341.973 c 0
 739.332 341.973 693.732 369 679 424 c 1
 604 319 529 177 455 0 c 1
 245 0 l 1
 268 108 l 1
 279.517 165.587 285.729 241.45 285.729 334.685 c 0
 285.729 362.876 285.161 392.657 284 424 c 1
 283.798 432.991 283.698 441.92 283.698 450.789 c 0
 283.698 529.708 291.616 603.779 306 673 c 0
 371 973 576 1132 920 1149 c 1
 1206.99 1144.83 1349.91 1028.6 1349.91 800.306 c 0
 1349.91 754.959 1344.27 705.19 1333 651 c 1
 1195 0 l 1
 1035 0 l 1
 1173 650 l 2
 1180.01 682.841 1183.52 713.318 1183.52 741.431 c 0
 1183.52 889.665 1086.01 972.188 891 989 c 1
 650 972 506 857 461 646 c 1
 442.385 547 433.077 438.692 433.077 321.077 c 0
 433.077 299.692 433.385 278 434 256 c 1
835 460 m 1
 890 463 924 491 937 543 c 1
 938.946 552.023 939.922 560.294 939.922 567.82 c 0
 939.922 602.833 918.8 621.708 876 625 c 1
 822 625 787 598 771 543 c 1
 769.114 534.601 768.169 526.818 768.169 519.658 c 0
 768.169 485.047 790.256 464.972 835 460 c 1
EndSplineSet
EndChar
StartChar: uni0E05
Encoding: 127 3589 129
OldEncoding: 3589
Width: 1370
Flags: HW
HStem: 0 21G<235 445 1025 1185> 625 121<858 871>
DStem: 1165 660 1326 661 1025 0 1185 0
Fore
424 256 m 1
 482 418 552 540 632 623 c 128
 712.036 705.012 791.095 746.018 868.213 746.018 c 0
 869.143 746.018 870.071 746.012 871 746 c 0
 978.229 745.142 1032.48 697.924 1032.48 603.714 c 0
 1032.48 588.101 1030.99 571.197 1028 553 c 1
 999 432 927 362 812 342 c 1
 810.554 341.982 809.119 341.973 807.695 341.973 c 0
 729.332 341.973 683.732 369 669 424 c 1
 594 319 519 177 445 0 c 1
 235 0 l 1
 258 108 l 1
 269.517 165.587 275.729 241.45 275.729 334.685 c 0
 275.729 362.876 275.161 392.657 274 424 c 1
 273.8 432.9 273.7 441.78 273.7 450.638 c 0
 273.7 530.36 281.8 608.3 298 683 c 0
 354 938 503 1094 746 1149 c 1
 896 1028 l 1
 1086 1149 l 1
 1257.2 1102.81 1342.81 990.05 1342.81 811.212 c 0
 1342.81 765.462 1337.2 715.389 1326 661 c 1
 1185 0 l 1
 1025 0 l 1
 1165 660 l 2
 1173.34 698.479 1177.5 733.788 1177.5 765.927 c 0
 1177.5 872.435 1131.88 944.127 1042 981 c 1
 866 868 l 1
 728 981 l 1
 581 932 489 824 453 656 c 1
 432.65 551.704 423.084 439.5 423.084 320.605 c 0
 423.084 299.283 423.392 277.746 424 256 c 1
825 460 m 1
 880 463 914 491 927 543 c 1
 928.946 552.023 929.922 560.294 929.922 567.82 c 0
 929.922 602.833 908.8 621.708 866 625 c 1
 812 625 777 598 761 543 c 1
 759.114 534.601 758.169 526.818 758.169 519.658 c 0
 758.169 485.047 780.256 464.972 825 460 c 1
EndSplineSet
EndChar
StartChar: uni0E06
Encoding: 128 3590 130
OldEncoding: 3590
Width: 1520
Flags: HW
HStem: -10 456<634 730> 328 118<712 730> 1119 20G<1447 1607>
DStem: 846 243 882 409 1205 0 1240 166 1447 1139 1607 1139 1240 166 1365 0
Fore
448 621 m 1x20
 508 622 545 652 559 712 c 0
 560.613 719.581 561.419 726.589 561.419 733.033 c 0
 561.419 766.544 539.613 784.806 496 789 c 1
 446 789 412 762 394 708 c 1
 392.5 700.5 391.75 693.444 391.75 686.833 c 0
 391.75 653.778 410.5 631.833 448 621 c 1x20
760 587 m 2
 777 668 835 743 933 814 c 1
 936.516 831.109 938.273 847.23 938.273 862.362 c 0
 938.273 911.792 919.516 950.672 882 979 c 1
 717 881 l 1
 579 979 l 1
 546 961 520 930 500 886 c 1
 514.178 887.969 527.511 888.956 539.996 888.956 c 0
 622.612 888.956 668.05 845.741 675 758 c 1
 656 600 575 517 433 508 c 1
 322.668 511.269 267.774 569.309 267.774 681.575 c 0
 267.774 706.675 270.518 734.485 276 765 c 1
 291 846 329 921 389 991 c 128
 449 1061 524 1114 615 1149 c 1
 751 1041 l 1
 918 1149 l 1
 1038.71 1088.64 1098.55 997.846 1098.55 876.611 c 0
 1098.55 847.199 1095.03 815.995 1088 783 c 1
 992 728 936 663 920 587 c 2
 882 409 l 1
 1240 166 l 1
 1447 1139 l 1
 1607 1139 l 1
 1365 0 l 1
 1205 0 l 1
 846 243 l 1
 825 146 l 2
 803 43 739 -9 634 -10 c 0
 632.658 -10.0227 631.325 -10.0341 630 -10.0341 c 0
 573.052 -10.0341 531.341 10.955 503 52 c 128
 483.044 81.2206 473.248 115.521 473.248 154.9 c 0
 473.248 170.775 474.84 187.475 478 205 c 0
 490 271 519 327 566 374 c 128
 613 421 668 445 730 446 c 1xa0
 760 587 l 2
714 328 m 1x60
 682 328 655 314 631 287 c 128
 606 260 591 231 585 202 c 0
 582.265 188.824 580.891 177.008 580.891 166.552 c 0
 580.891 134.947 593.452 115.763 619 109 c 1
 651 111 671 130 679 166 c 1
 714 328 l 1x60
EndSplineSet
EndChar
StartChar: uni0E07
Encoding: 129 3591 131
OldEncoding: 3591
Width: 1000
Flags: HW
HStem: -10 160<551 585> 741 112<763 792> 1021 129<840 895>
DStem: 298 719 462 640 285 272 446 272 858 770 1042 881 752 272 913 272
Fore
913 272 m 2
 873 85 752 -9 551 -10 c 0
 373.967 -10 284.967 81.9453 284.967 265.836 c 0
 284.967 267.879 284.978 269.934 285 272 c 1
 298 719 l 1
 462 640 l 1
 446 272 l 1
 450 193 497 152 585 150 c 1
 680 153 735 194 752 272 c 2
 858 770 l 1
 838 751 806 741 763 741 c 1
 675.481 747.543 631.448 792.221 631.449 874.484 c 0
 631.449 892.796 633.63 912.97 638 935 c 1
 678 1076 764 1148 895 1150 c 1
 1000.62 1142.12 1053.44 1084.53 1053.44 977.727 c 0
 1053.44 949.034 1049.62 916.788 1042 881 c 2
 913 272 l 2
792 853 m 1
 852 854 890 884 904 944 c 0
 905.57 951.38 906.351 958.218 906.351 964.52 c 0
 906.351 998.358 883.835 1016.79 840 1021 c 1
 790 1021 756 994 739 940 c 1
 737.209 931.938 736.316 924.391 736.316 917.356 c 0
 736.316 885.123 755.062 863.671 792 853 c 1
EndSplineSet
EndChar
StartChar: uni0E08
Encoding: 130 3592 132
OldEncoding: 3592
Width: 1200
Flags: HW
HStem: -10 160<746 780> 989 160<783 817>
DStem: 1020 715 1185 740 927 279 1087 279
Fore
689 283 m 1
 685.376 266.216 683.571 251.033 683.571 237.443 c 0
 683.571 179.78 716.068 150.809 780 150 c 0
 860 150 909 193 927 279 c 2
 1020 715 l 2
 1025.37 740.329 1028.06 763.938 1028.06 785.819 c 0
 1028.06 906.478 946.373 974.61 783 989 c 1
 634 987 495 938 365 843 c 1
 290 912 l 1
 459 1067 635 1146 817 1149 c 1
 1071.54 1141.41 1198.21 1042.9 1198.21 854.658 c 0
 1198.21 819.556 1193.8 781.334 1185 740 c 2
 1087 279 l 2
 1046 87 933 -9 746 -10 c 0
 593.716 -10 517.849 55.6912 517.849 186.525 c 0
 517.849 215.492 521.568 247.652 529 283 c 2
 548 373 l 1
 533 357 506 348 466 345 c 1
 369.599 352.415 321.398 397.17 321.398 479.262 c 0
 321.398 496.803 323.599 516.049 328 537 c 1
 367 675 453 747 586 753 c 1
 693.711 752.202 747.313 700.478 747.313 598.842 c 0
 747.313 573.093 743.873 544.14 737 512 c 1
 689 283 l 1
488 455 m 1
 548 456 585 486 599 546 c 0
 600.609 553.561 601.415 560.553 601.415 566.983 c 0
 601.415 600.526 579.474 618.804 535 623 c 1
 485 623 452 596 434 542 c 1
 432.5 534.5 431.75 527.444 431.75 520.833 c 0
 431.75 487.778 450.5 465.833 488 455 c 1
EndSplineSet
EndChar
StartChar: uni0E09
Encoding: 131 3593 133
OldEncoding: 3593
Width: 1395
Flags: HW
HStem: 0 21G<399 559> 641 130<469 520> 986 163<844 878>
DStem: 482 391 666 502 399 0 596 176 1031 409 993 227 596 176 559 0 1096 715 1261 740 1031 409 1199 446
Fore
1261 740 m 1
 1199 446 l 1
 1304.32 433.753 1356.98 378.177 1356.98 278.728 c 0
 1356.98 256.371 1354.32 231.797 1349 205 c 1
 1316 62 1233 -9 1101 -10 c 0
 1039 -10 1000 18 984 75 c 0
 980.154 90 978.231 106.775 978.231 125.269 c 0
 978.231 154.858 983.154 188.846 993 227 c 1
 559 0 l 1
 399 0 l 1
 482 391 l 1
 461.86 371.736 434.053 362.439 397.907 362.439 c 0
 392.773 362.439 387.472 362.627 382 363 c 1
 300.463 373.392 259.184 420.207 259.184 502.425 c 0
 259.184 523.059 261.784 545.923 267 571 c 1
 305 704 389 770 520 771 c 1
 625.138 767.077 677.949 710.826 677.949 602.731 c 0
 677.949 573.057 673.969 539.477 666 502 c 2
 596 176 l 1
 1031 409 l 1
 1096 715 l 1
 1102.18 742.427 1105.27 767.793 1105.27 791.09 c 0
 1105.27 914.742 1018.18 980.11 844 986 c 1
 711 986 577 938 441 843 c 1
 366 912 l 1
 536 1069 707 1148 878 1149 c 1
 1141.92 1141.39 1274.18 1042.19 1274.18 852.614 c 0
 1274.18 818.073 1269.78 780.533 1261 740 c 1
1165 328 m 1
 1128 156 l 1
 1127.5 151.642 1127.25 147.563 1127.25 143.759 c 0
 1127.25 117.015 1139.61 103.875 1165 103 c 1
 1201 108 1226 141 1240 202 c 0
 1242.81 215.688 1244.22 228.285 1244.22 239.793 c 0
 1244.22 289.66 1217.81 319.062 1165 328 c 1
422 473 m 1
 482 474 519 504 533 564 c 0
 534.609 571.561 535.415 578.553 535.415 584.983 c 0
 535.415 618.526 513.474 636.804 469 641 c 1
 419 641 386 614 368 560 c 1
 366.458 552.288 365.679 545.046 365.679 538.273 c 0
 365.679 505.53 383.884 483.772 422 473 c 1
EndSplineSet
EndChar
StartChar: uni0E0A
Encoding: 132 3594 134
OldEncoding: 3594
Width: 1390
Flags: HW
HStem: 0 164<777 1208> 545 112<449 473> 1003 146<728 755>
DStem: 704 575 864 575 582 0 777 164 1171 581 1334 592 1083 164 1208 0
Fore
864 575 m 2
 777 164 l 1
 1083 164 l 1
 1171 581 l 1
 1167 684 1120 747 1033 771 c 1
 936 712 880 647 864 575 c 2
704 575 m 2
 721 655 779 726 879 789 c 1
 879.227 794.952 879.341 800.782 879.341 806.491 c 0
 879.341 926.417 829.184 992.5 728 1003 c 1
 726.703 1003.02 725.408 1003.03 724.117 1003.03 c 0
 655.704 1003.03 594.962 977.055 540 927 c 1
 548.643 927.643 556.929 927.964 564.857 927.964 c 0
 653.468 927.964 697.52 887.82 697.52 807.53 c 0
 697.52 794.423 696.346 780.246 694 765 c 1
 663 620 582 546 449 545 c 1
 345.538 554.676 293.6 611.999 293.6 717.382 c 0
 293.6 753.579 299.728 795.446 312 843 c 1
 392 1042 539 1144 755 1149 c 1
 903 1148 997 1072 1037 921 c 1
 1245 972 1361 1052 1384 1163 c 2
 1390 1188 l 1
 1556 1188 l 1
 1550 1164 l 1
 1517 1009 1399 908 1197 861 c 1
 1288.52 805.899 1334.69 723.759 1334.69 615.395 c 0
 1334.69 607.728 1334.46 599.929 1334 592 c 1
 1208 0 l 1
 582 0 l 1
 704 575 l 2
473 657 m 1
 533 658 570 688 584 748 c 0
 585.609 755.561 586.415 762.553 586.415 768.983 c 0
 586.415 802.526 564.474 820.804 520 825 c 1
 470 825 437 798 419 744 c 1
 417.458 736.288 416.679 729.046 416.679 722.273 c 0
 416.679 689.53 434.884 667.772 473 657 c 1
EndSplineSet
EndChar
StartChar: uni0E0B
Encoding: 133 3595 135
OldEncoding: 3595
Width: 1390
Flags: HW
HStem: 0 164<782 1213>
DStem: 709 575 869 575 587 0 782 164 1176 581 1339 592 1088 164 1213 0
Fore
1176 581 m 1
 1176.16 584.878 1176.24 588.703 1176.24 592.472 c 0
 1176.24 682.985 1130.12 742.2 1037 771 c 1
 942 718 886 653 869 575 c 2
 782 164 l 1
 1088 164 l 1
 1176 581 l 1
709 575 m 2
 724 646 782 713 883 776 c 1
 888.353 803.329 891.007 828.357 891.007 851.06 c 0
 891.007 908.936 873.758 951.706 840 979 c 1
 675 881 l 1
 537 979 l 1
 504 960 478 929 458 886 c 1
 474.38 891.956 491.315 895.141 509.217 895.141 c 0
 515.359 895.141 521.614 894.766 528 894 c 0
 594.395 886.368 627.592 846.122 627.592 773.705 c 0
 627.592 751.231 624.395 725.658 618 697 c 1
 583 577 504 514 380 507 c 1
 275.667 513.613 223.698 568.811 223.698 672.596 c 0
 223.698 710.065 230.472 753.866 244 804 c 1
 305 981 415 1096 573 1149 c 1
 709 1041 l 1
 876 1149 l 1
 971 1115 1026 1039 1041 921 c 1
 1245 957 1361 1038 1388 1163 c 1
 1394 1188 l 1
 1560 1188 l 1
 1554 1164 l 1
 1512 1009 1394 908 1201 861 c 1
 1293.89 818.196 1340.34 739.729 1340.34 626.352 c 0
 1340.34 615.237 1339.89 603.786 1339 592 c 1
 1213 0 l 1
 587 0 l 1
 709 575 l 2
405 622 m 1
 465 623 502 653 517 713 c 0
 518.347 720.032 519.022 726.572 519.022 732.626 c 0
 519.022 767.034 497.219 785.748 453 790 c 1
 403 790 369 763 352 709 c 1
 350.209 700.938 349.316 693.391 349.316 686.356 c 0
 349.316 654.123 368.061 632.671 405 622 c 1
EndSplineSet
EndChar
StartChar: uni0E0C
Encoding: 134 3596 136
OldEncoding: 3596
Width: 1750
Flags: HW
HStem: -10 119<908 924> 989 160<836 872>
DStem: 1065 657 1228 673 1020 446 1172 409 1136 243 1172 409 1495 0 1532 176 1737 1139 1897 1139 1532 176 1655 0
Fore
1065 657 m 2
 1073.42 697.25 1077.64 733.82 1077.64 766.722 c 0
 1077.64 909.576 998.12 983.31 838 989 c 1
 692 988 571 934 475 825 c 1
 550 808 602 754 630 663 c 1
 523 592 458 505 437 403 c 2
 429 369 l 1
 449 387 477 396 511 397 c 1
 607.08 396.237 654.898 353.028 654.898 267.371 c 0
 654.898 240.697 650.261 209.907 641 175 c 1
 602 52 518 -10 392 -11 c 1
 286.862 -5.5077 234.051 51.081 234.051 158.283 c 0
 234.051 187.711 238.031 220.954 246 258 c 2
 277 403 l 2
 299 508 361 598 463 671 c 1
 448 730 390 770 290 792 c 1
 446 1030 640 1149 872 1149 c 1
 1120.93 1144.89 1245.67 1037.52 1245.67 825.779 c 0
 1245.67 779.782 1239.78 728.859 1228 673 c 1
 1172 409 l 1
 1532 176 l 1
 1737 1139 l 1
 1897 1139 l 1
 1655 0 l 1
 1495 0 l 1
 1136 243 l 1
 1112 146 l 1
 1087 44 1024 -8 924 -10 c 1
 816.211 -7.47368 762.316 43.9834 762.316 143.774 c 0
 762.316 162.485 764.211 182.895 768 205 c 1
 805 354 889 435 1020 446 c 1
 1065 657 l 2
1004 328 m 1
 937 326 894 286 876 208 c 0
 872.479 190.938 870.719 176.076 870.719 163.414 c 0
 870.719 129.326 883.479 111.188 909 109 c 1
 941 109 961 130 971 172 c 1
 1004 328 l 1
427 105 m 1
 487 106 525 136 539 196 c 0
 540.57 203.38 541.351 210.217 541.351 216.52 c 0
 541.351 250.358 518.835 268.785 475 273 c 1
 425 273 391 246 374 192 c 1
 372.209 183.938 371.316 176.39 371.316 169.356 c 0
 371.316 137.123 390.061 115.671 427 105 c 1
EndSplineSet
EndChar
StartChar: uni0E0D
Encoding: 135 3597 137
OldEncoding: 3597
Width: 1745
Flags: HW
HStem: 0 176<1090 1623> 989 160<804 840>
DStem: 1033 657 1196 673 893 0 1090 176 1705 1139 1865 1139 1500 176 1623 0
Fore
1058 -61 m 1
 1146.76 -65.5755 1191.15 -101.972 1191.15 -171.722 c 0
 1191.15 -178.194 1190.76 -184.953 1190 -192 c 1
 1180 -265 1148 -316 1094 -345 c 1
 1112.1 -347.263 1129.69 -348.393 1146.76 -348.393 c 0
 1303.24 -348.393 1416.48 -253.44 1485 -65 c 1
 1601 -65 l 1
 1537 -322 1372 -456 1107 -466 c 1
 932.664 -462.189 846.361 -395.758 846.361 -267.569 c 0
 846.361 -261.199 846.574 -254.676 847 -248 c 1
 872 -130 943 -68 1058 -61 c 1
952 -215 m 1
 950.562 -221.712 949.839 -227.964 949.839 -233.756 c 0
 949.839 -264.211 969.83 -281.959 1011 -287 c 1
 1058 -281 1087 -257 1098 -215 c 1
 1099.23 -207.79 1099.84 -201.122 1099.84 -194.995 c 0
 1099.84 -161.178 1081.1 -143.847 1043 -143 c 1
 995 -144 965 -168 952 -215 c 1
1033 657 m 2
 1041.42 697.25 1045.64 733.82 1045.64 766.722 c 0
 1045.64 909.576 966.12 983.31 806 989 c 1
 660 988 539 934 443 825 c 1
 518 808 570 754 598 663 c 1
 491 592 426 505 405 403 c 2
 397 369 l 1
 417 387 445 396 479 397 c 1
 575.08 396.237 622.898 353.028 622.898 267.371 c 0
 622.898 240.697 618.261 209.907 609 175 c 1
 570 52 486 -10 360 -11 c 1
 254.862 -5.5077 202.051 51.081 202.051 158.283 c 0
 202.051 187.711 206.031 220.954 214 258 c 2
 245 403 l 2
 267 508 329 598 431 671 c 1
 416 730 358 770 258 792 c 1
 414 1030 608 1149 840 1149 c 1
 1088.93 1144.89 1213.67 1037.52 1213.67 825.779 c 0
 1213.67 779.782 1207.78 728.859 1196 673 c 1
 1090 176 l 1
 1500 176 l 1
 1705 1139 l 1
 1865 1139 l 1
 1623 0 l 1
 893 0 l 1
 1033 657 l 2
395 105 m 1
 455 106 493 136 507 196 c 0
 508.57 203.38 509.351 210.217 509.351 216.52 c 0
 509.351 250.358 486.835 268.785 443 273 c 1
 393 273 359 246 342 192 c 1
 340.209 183.938 339.316 176.39 339.316 169.356 c 0
 339.316 137.123 358.061 115.671 395 105 c 1
EndSplineSet
Substitution: 0 65534 'nds0' uni0E0D.descless
Substitution: 0 65534 'ndsc' uni0E0D.descless
EndChar
StartChar: uni0E0E
Encoding: 136 3598 138
OldEncoding: 3598
Width: 1375
Flags: HW
HStem: -10 122<277 286> 990 160<975 1011>
DStem: 897 140 995 105 767 -34 866 -76 1204 658 1367 674 1020 -209 1137 -410
Fore
1020 -209 m 1
 1204 658 l 2
 1212.37 697.266 1216.56 733.034 1216.56 765.317 c 0
 1216.56 906.512 1136.53 981.047 977 990 c 1
 973.457 990.014 l 0
 844.801 990.014 724.991 935.991 615 826 c 1
 694 801 746 747 769 664 c 1
 662 591 597 505 576 404 c 2
 545 259 l 2
 508 84 421 -6 285 -10 c 1
 171.252 -10 114.05 42.023 114.05 146.724 c 0
 114.05 162.603 115.366 179.695 118 198 c 1
 147 320 218 387 331 399 c 1
 367 399 393 389 409 370 c 1
 416 404 l 1
 440 513 502 603 602 672 c 1
 578 731 520 771 430 793 c 1
 584 1031 778 1150 1011 1150 c 1
 1260.22 1145.9 1385.11 1038.3 1385.11 827.753 c 0
 1385.11 781.474 1379.07 730.221 1367 674 c 2
 1137 -410 l 1
 977 -410 l 1
 933 -319 873 -248 797 -196 c 1
 697 -339 579 -411 442 -413 c 0
 440.108 -413.026 438.232 -413.039 436.371 -413.039 c 0
 367.44 -413.039 320.29 -394.975 294 -357 c 1
 284.759 -335.93 280.163 -314.449 280.163 -292.458 c 0
 280.163 -254.958 293.526 -215.972 320 -175 c 1
 400 -72 509 -17 645 -8 c 1
 690 -9 731 -18 767 -34 c 1
 897 140 l 1
 995 105 l 1
 866 -76 l 1
 923 -103 975 -148 1020 -209 c 1
426 -264 m 1
 441.013 -279.952 460.869 -287.979 485.568 -287.979 c 0
 513.512 -287.979 547.657 -277.703 588 -257 c 0
 633 -234 671 -197 702 -147 c 1
 675.15 -123.308 644.696 -111.536 610.347 -111.536 c 0
 579.453 -111.536 545.408 -121.059 508 -140 c 1
 452.688 -174.241 424.354 -210.024 424.354 -248.025 c 0
 424.354 -253.307 424.902 -258.631 426 -264 c 1
277 112 m 1
 337 113 374 143 388 203 c 0
 389.613 210.581 390.419 217.589 390.419 224.033 c 0
 390.419 257.544 368.613 275.806 325 280 c 1
 275 280 241 253 223 199 c 1
 221.5 191.5 220.75 184.444 220.75 177.833 c 0
 220.75 144.778 239.5 122.833 277 112 c 1
EndSplineSet
EndChar
StartChar: uni0E0F
Encoding: 137 3599 139
OldEncoding: 3599
Width: 1375
Flags: HW
HStem: -10 122<279 293> 280 120<314 327> 990 160<977 1011>
DStem: 752 140 850 105 622 -34 721 -76 1204 658 1367 674 1020 -209 1137 -410
Fore
1020 -209 m 1
 1204 658 l 2
 1211.53 693.663 1215.3 726.5 1215.3 756.505 c 0
 1215.3 893.927 1136.23 971.943 977 990 c 1
 843 990 722 935 615 826 c 1
 705 795 757 741 769 664 c 1
 664 601 599 514 576 404 c 2
 545 259 l 2
 508 83 421 -7 285 -10 c 1
 172.356 -9.1954 116.034 40.8099 116.034 140.016 c 0
 116.034 164.109 119.356 191.103 126 221 c 1
 160 338 224 398 316 400 c 1
 321.423 400.346 326.62 400.519 331.595 400.519 c 0
 369.737 400.519 394.846 390.346 409 370 c 1
 416 404 l 1
 441 518 503 607 602 672 c 1
 568 743 511 783 430 793 c 1
 589 1030 782 1149 1011 1150 c 1
 1260.53 1145.08 1384.74 1037.07 1384.74 826.524 c 0
 1384.74 780.566 1378.83 729.723 1367 674 c 2
 1137 -410 l 1
 977 -410 l 1
 874 -252 l 1
 735 -362 l 1
 715 -287 685 -234 646 -203 c 1
 578 -328 462 -398 297 -413 c 1
 227 -413 177 -394 149 -357 c 1
 142.123 -336.113 138.684 -315.421 138.684 -294.957 c 0
 138.684 -235.079 168.123 -177.151 227 -122 c 128
 306 -46 402 -9 513 -9 c 0
 558 -10 594 -18 622 -34 c 1
 752 140 l 1
 850 105 l 1
 721 -76 l 1
 748 -97 768 -124 779 -156 c 1
 920 -38 l 1
 1020 -209 l 1
275 -264 m 1
 289.328 -279.921 309.571 -287.956 336.027 -287.956 c 0
 359.423 -287.956 387.679 -281.672 421 -269 c 1
 485 -237 530 -196 557 -147 c 1
 533.507 -129.87 505.462 -121.363 472.867 -121.363 c 0
 438.864 -121.363 399.908 -130.62 356 -149 c 1
 303 -186 276 -225 275 -264 c 1
279 112 m 1
 339 113 376 143 390 203 c 0
 391.613 210.581 392.419 217.589 392.419 224.033 c 0
 392.419 257.544 370.613 275.806 327 280 c 1
 277 280 243 253 225 199 c 1
 223.5 191.5 222.75 184.444 222.75 177.833 c 0
 222.75 144.778 241.5 122.833 279 112 c 1
EndSplineSet
EndChar
StartChar: uni0E10
Encoding: 138 3600 140
OldEncoding: 3600
Width: 1130
Flags: HW
HStem: -530 496<736 812> -413 129<586 614> -10 160<635 669> 998 151<748 795>
DStem: 426 -208 509 -230 356 -294 433 -324 869 529 1039 574 816 279 976 279
Fore
869 529 m 2x30
 870.335 535.006 871.001 540.864 871.001 546.575 c 0
 871.001 592.207 828.434 628.448 744 656 c 0
 624 695 456 730 242 762 c 1
 380 1020 564 1149 793 1149 c 0
 880 1148 963 1132 1040 1098 c 128
 1093.46 1076.07 1142.23 1064.94 1186.62 1064.94 c 0
 1206.99 1064.94 1226.44 1067.28 1245 1072 c 1
 1173 917 l 1
 1157.93 914.645 1142.86 913.455 1127.77 913.455 c 0
 1078.75 913.455 1029.46 926.005 979 952 c 128
 916.678 982.217 844.548 998.167 762.61 998.167 c 0
 757.774 998.167 752.904 998.111 748 998 c 0
 645 995 566 953 509 872 c 1
 740 823 885 780 945 744 c 0
 1010.04 705.143 1042.26 658.438 1042.26 604.486 c 0
 1042.26 594.567 1041.17 584.404 1039 574 c 2
 976 279 l 1
 935 86 821 -10 635 -10 c 0
 481.87 -10 405.855 55.7144 405.855 186.594 c 0
 405.855 215.543 409.574 247.681 417 283 c 2
 424 317 l 1
 410 303 387 294 355 290 c 1
 354.046 289.992 353.097 289.988 352.151 289.988 c 0
 249.569 289.988 198.569 335.297 198.569 425.331 c 0
 198.569 442.3 200.381 460.857 204 481 c 1
 236 619 319 691 453 697 c 1
 563.865 692.249 619.546 634.822 619.546 525.215 c 0
 619.546 496.411 615.7 464.003 608 428 c 2
 577 283 l 2
 573.383 266.058 571.578 250.746 571.578 237.058 c 0
 571.578 178.843 604.229 150 669 150 c 0
 749 151 798 194 816 279 c 2
 869 529 l 2x30
702 -329 m 1
 716 -262 l 1
 704 -271 685 -276 659 -276 c 1
 593.141 -268.591 560.49 -239.494 560.49 -188.711 c 0
 560.49 -177.807 561.995 -165.903 565 -153 c 1
 581 -78 638 -39 736 -34 c 1
 835.478 -34 884.94 -76.582 884.94 -161.746 c 0
 884.94 -180.171 882.625 -200.589 878 -223 c 2
 812 -530 l 1
 662 -530 l 1xb0
 657 -455 632 -416 586 -413 c 1
 539 -414 493 -453 448 -529 c 1
 437 -463 414 -422 380 -406 c 1
 297.758 -490.049 206.532 -532.443 107.059 -532.443 c 0
 96.4658 -532.443 85.7792 -531.962 75 -531 c 1
 6.21564 -516.075 -28.0399 -487.254 -28.0399 -444.538 c 0
 -28.0399 -421.426 -18.0122 -394.247 2 -363 c 1
 51.7015 -302.552 121.252 -272.328 210.65 -272.328 c 0
 254.356 -272.328 302.806 -279.552 356 -294 c 1
 426 -208 l 1
 509 -230 l 1
 433 -324 l 1
 458 -335 473 -349 480 -368 c 1
 536 -312 581 -284 614 -284 c 0x70
 655 -284 684 -299 702 -329 c 1
709 -102 m 1
 671 -105 648 -123 638 -158 c 1
 637.377 -162.112 637.064 -166.007 637.064 -169.682 c 0
 637.064 -195.502 652.486 -210.498 684 -214 c 1
 719 -210 742 -191 752 -157 c 1
 753.122 -151.711 753.679 -146.808 753.679 -142.286 c 0
 753.679 -118.59 738.391 -105.359 709 -102 c 1
63 -437 m 1
 76 -453.095 95.898 -461.143 123.406 -461.143 c 0
 140.333 -461.143 160.143 -458.095 183 -452 c 128
 242 -435 284 -405 309 -362 c 1
 269.525 -352.203 234.617 -347.305 204.275 -347.305 c 0
 129.312 -347.305 82.2203 -377.203 63 -437 c 1
361 403 m 1
 421 404 458 434 472 494 c 0
 473.609 501.561 474.415 508.553 474.415 514.983 c 0
 474.415 548.526 452.474 566.804 408 571 c 1
 358 571 325 544 307 490 c 1
 305.458 482.288 304.679 475.046 304.679 468.273 c 0
 304.679 435.53 322.884 413.772 361 403 c 1
EndSplineSet
Substitution: 0 65534 'nds0' uni0E10.descless
Substitution: 0 65534 'ndsc' uni0E10.descless
EndChar
StartChar: uni0E11
Encoding: 139 3601 141
OldEncoding: 3601
Width: 1700
Flags: HW
HStem: 0 21G<636 838 1374 1534> 507 115<422 450>
DStem: 761 587 920 587 636 0 851 263 1556 857 1727 910 1374 0 1534 0
Fore
636 0 m 1
 761 587 l 1
 776 666 832 736 927 796 c 1
 930.379 814.345 932.069 831.816 932.069 848.413 c 0
 932.069 900.574 915.379 944.103 882 979 c 1
 717 881 l 1
 579 979 l 1
 546 962 520 931 500 886 c 1
 514.147 891.956 531.065 895.141 549.93 895.141 c 0
 556.402 895.141 563.103 894.766 570 894 c 1
 638.934 881.835 673.667 842.705 673.667 777.143 c 0
 673.667 761.862 671.78 745.146 668 727 c 1
 633 582 551 509 422 507 c 1
 317.036 518.928 264.554 575.75 264.554 676.46 c 0
 264.554 702.401 268.036 731.253 275 763 c 1
 295 842 333 917 390 988 c 128
 447 1059 522 1112 615 1149 c 1
 751 1041 l 1
 918 1149 l 1
 1033.95 1085.84 1092.24 985.985 1092.24 849.449 c 0
 1092.24 828.189 1090.83 806.039 1088 783 c 1
 993 727 936 662 920 587 c 1
 851 263 l 1
 1342 990 l 1
 1404 1087 1483 1136 1579 1136 c 1
 1683.84 1130.35 1736 1080.48 1736 985.854 c 0
 1736 963.149 1733 937.866 1727 910 c 2
 1534 0 l 1
 1374 0 l 1
 1556 857 l 1
 1558.64 868.298 1559.96 878.325 1559.96 887.081 c 0
 1559.96 914.748 1546.83 929.721 1521 932 c 0
 1519.55 932.167 1518.1 932.25 1516.63 932.25 c 0
 1491.76 932.25 1464.16 908.272 1433 862 c 1
 838 0 l 1
 636 0 l 1
450 622 m 1
 510 623 547 653 562 713 c 0
 563.347 720.032 564.022 726.572 564.022 732.626 c 0
 564.022 767.034 542.219 785.748 498 790 c 1
 448 790 414 763 397 709 c 1
 395.209 700.938 394.316 693.391 394.316 686.356 c 0
 394.316 654.123 413.061 632.671 450 622 c 1
EndSplineSet
EndChar
StartChar: uni0E12
Encoding: 140 3602 142
OldEncoding: 3602
Width: 1850
Flags: HW
HStem: -10 113<975 992> 1119 20G<1772 1932>
DStem: 1149 734 1297 677 1088 446 1240 409 1204 243 1240 409 1528 0 1564 160 1772 1139 1932 1139 1564 160 1690 0
Fore
1149 734 m 1
 1153.98 757.931 1156.46 780.285 1156.46 801.057 c 0
 1156.46 888.784 1112.13 948.275 1024 979 c 1
 826 863 l 1
 687 979 l 1
 546 931 459 830 428 676 c 1
 417.394 590.525 411.848 508.554 411.848 429.6 c 0
 411.848 382.006 413.863 335.508 418 290 c 1
 415 197 l 1
 500 231 568 287 620 365 c 1
 606.296 360.137 592.593 357.62 578.889 357.62 c 0
 527 370 l 1
 486.5 394.75 466.25 432.438 466.25 482.219 c 0
 466.25 498.812 468.5 516.75 473 536 c 1
 506 670 586 740 711 745 c 1
 810.144 745 860.005 697.8 860.005 603.399 c 0
 860.005 584.493 858.005 563.693 854 541 c 1
 812 348 657 167 389 0 c 1
 204 0 l 1
 227 108 l 1
 241.384 179.918 249.302 279.314 249.302 406.188 c 0
 249.302 420.445 249.202 435.049 249 450 c 0
 248.778 460.111 248.667 470.136 248.667 480.074 c 0
 248.667 559.58 255.778 633.556 270 702 c 0
 317 927 468 1076 723 1149 c 1
 863 1033 l 1
 1060 1149 l 1
 1229.61 1109.37 1314.42 1002.52 1314.42 827.96 c 0
 1314.42 782.28 1308.61 731.963 1297 677 c 2
 1240 409 l 1
 1564 160 l 1
 1772 1139 l 1
 1932 1139 l 1
 1690 0 l 1
 1528 0 l 1
 1204 243 l 1
 1183 146 l 2
 1162 49 1099 -3 992 -10 c 1
 882.512 -9.18293 827.768 38.3667 827.768 133.74 c 0
 827.768 155.092 830.512 178.841 836 205 c 1
 863 333 948 413 1088 446 c 1
 1149 734 l 1
1072 328 m 1
 1071.24 328.012 1070.49 328.017 1069.74 328.017 c 0
 1006 328.017 963.756 286.012 943 202 c 0
 938.673 185.558 936.51 171.112 936.51 158.664 c 0
 936.51 127.959 949.673 109.404 976 103 c 1
 1007 103 1028 124 1037 166 c 1
 1072 328 l 1
625 454 m 1
 685 455 722 485 736 545 c 0
 737.609 552.561 738.415 559.553 738.415 565.983 c 0
 738.415 599.526 716.474 617.804 672 622 c 1
 622 622 588 595 571 541 c 1
 569.214 532.964 568.321 525.439 568.321 518.423 c 0
 568.321 486.153 587.214 464.679 625 454 c 1
EndSplineSet
EndChar
StartChar: uni0E13
Encoding: 141 3603 143
OldEncoding: 3603
Width: 1900
Flags: HW
HStem: -11 114<404 429> 989 160<839 875>
DStem: 1068 657 1231 673 928 0 1127 183 1548 409 1514 243 1127 183 1083 0 1702 1139 1862 1139 1548 409 1715 446
Fore
1068 657 m 2
 1075.82 694.476 1079.74 728.808 1079.74 759.99 c 0
 1079.74 900.21 1000.52 976.729 841 989 c 1
 694 988 573 934 478 825 c 1
 547 810 598 756 633 663 c 1
 527 594 463 508 441 403 c 2
 433 369 l 1
 457.679 386.275 484.642 394.795 513.888 394.795 c 0
 532.045 394.795 551.082 391.512 571 385 c 1
 628.003 368.922 656.7 327.208 656.7 259.858 c 0
 656.7 235.05 652.807 206.764 645 175 c 1
 611 52 531 -10 404 -11 c 1
 292.802 -10.2114 236.957 45.9312 236.957 156.937 c 0
 236.957 186.687 240.968 220.378 249 258 c 2
 280 403 l 2
 304 518 366 607 466 671 c 1
 425 738 368 779 293 792 c 1
 455 1030 649 1149 875 1149 c 1
 1123.93 1143.25 1248.67 1035.59 1248.67 824.9 c 0
 1248.67 779.132 1242.78 728.502 1231 673 c 2
 1127 183 l 1
 1548 409 l 1
 1702 1139 l 1
 1862 1139 l 1
 1715 446 l 1
 1821.81 441.984 1875.74 389.595 1875.74 288.314 c 0
 1875.74 263.483 1872.5 235.715 1866 205 c 0
 1836 64 1760 -7 1637 -9 c 1
 1543.42 -8.20695 1496.38 36.6108 1496.38 126.451 c 0
 1496.38 149.895 1499.58 176.406 1506 206 c 1
 1514 243 l 1
 1083 0 l 1
 928 0 l 1
 1068 657 l 2
1682 328 m 1
 1649 173 l 2
 1646.99 163.603 1645.97 155.256 1645.97 147.95 c 0
 1645.97 122.604 1658.16 109.776 1683 109 c 1
 1720 116 1745 147 1757 202 c 0
 1760.12 217.024 1761.68 230.716 1761.68 243.076 c 0
 1761.68 294.058 1735.12 322.366 1682 328 c 1
429 103 m 1
 489 104 526 134 540 194 c 0
 541.613 201.581 542.419 208.589 542.419 215.033 c 0
 542.419 248.544 520.613 266.806 477 271 c 1
 427 271 393 244 375 190 c 1
 373.5 182.5 372.75 175.444 372.75 168.833 c 0
 372.75 135.778 391.5 113.833 429 103 c 1
EndSplineSet
EndChar
StartChar: uni0E14
Encoding: 142 3604 144
OldEncoding: 3604
Width: 1330
Flags: HW
HStem: 0 21G<222 407 1011 1171> 632 113<689 729>
VStem: 267 164<391.036 450 450.063 544>
DStem: 1154 675 1310 652 1011 0 1171 0
Fore
407 0 m 1
 222 0 l 1
 245 108 l 2
 260 178 267 292 267 450 c 1
 266.714 461.571 266.571 472.98 266.571 484.224 c 0
 266.571 551.694 271.714 613.286 282 669 c 1
 351 975 559 1135 904 1149 c 1
 1186.52 1146.51 1327.5 1031.47 1327.5 804.45 c 0
 1327.5 758.266 1321.66 707.448 1310 652 c 2
 1171 0 l 1
 1011 0 l 1
 1154 675 l 2
 1160.23 703.732 1163.35 730.523 1163.35 755.37 c 0
 1163.35 893.96 1066.49 972.04 874 989 c 1
 630 976 487 869 444 668 c 0
 436 629 431 590 431 551 c 1
 436 266 l 1
 433 197 l 1
 503 218 571 274 638 365 c 1
 613 362 l 1
 528.725 362.851 487.204 405.008 487.204 488.469 c 0
 487.204 503.052 488.472 518.896 491 536 c 1
 520 672 599 742 729 745 c 1
 829.621 744.189 880.198 699.26 880.198 610.749 c 0
 880.198 590.183 877.468 567.265 872 542 c 0
 829 334 674 153 407 0 c 1
642 464 m 1
 702 465 739 495 753 555 c 0
 754.609 562.561 755.415 569.553 755.415 575.983 c 0
 755.415 609.526 733.474 627.804 689 632 c 1
 639 632 606 605 588 551 c 1
 586.458 543.288 585.679 536.046 585.679 529.273 c 0
 585.679 496.53 603.884 474.772 642 464 c 1
EndSplineSet
EndChar
StartChar: uni0E15
Encoding: 143 3605 145
OldEncoding: 3605
Width: 1330
Flags: HW
HStem: 0 21G<232 417 1021 1181>
DStem: 1177 734 1325 677 1021 0 1181 0
Fore
1177 734 m 1
 1181.98 757.931 1184.46 780.285 1184.46 801.057 c 0
 1184.46 888.784 1140.13 948.275 1052 979 c 1
 854 863 l 1
 715 979 l 1
 574 931 487 830 456 676 c 1
 445.394 590.525 439.848 508.554 439.848 429.6 c 0
 439.848 382.006 441.863 335.508 446 290 c 1
 443 197 l 1
 528 231 596 287 648 365 c 1
 634.296 360.137 620.593 357.62 606.889 357.62 c 0
 555 370 l 1
 514.5 394.75 494.25 432.438 494.25 482.219 c 0
 494.25 498.812 496.5 516.75 501 536 c 1
 534 670 614 740 739 745 c 1
 838.144 745 888.005 697.8 888.005 603.399 c 0
 888.005 584.493 886.005 563.693 882 541 c 1
 840 348 685 167 417 0 c 1
 232 0 l 1
 255 108 l 1
 269.384 179.918 277.302 279.314 277.302 406.188 c 0
 277.302 420.445 277.202 435.049 277 450 c 0
 276.778 460.111 276.667 470.136 276.667 480.074 c 0
 276.667 559.58 283.778 633.556 298 702 c 0
 345 927 496 1076 751 1149 c 1
 891 1033 l 1
 1088 1149 l 1
 1257.61 1109.37 1342.42 1002.52 1342.42 827.96 c 0
 1342.42 782.28 1336.61 731.963 1325 677 c 2
 1181 0 l 1
 1021 0 l 1
 1177 734 l 1
653 454 m 1
 713 455 750 485 764 545 c 0
 765.609 552.561 766.415 559.553 766.415 565.983 c 0
 766.415 599.526 744.474 617.804 700 622 c 1
 650 622 616 595 599 541 c 1
 597.214 532.964 596.321 525.439 596.321 518.423 c 0
 596.321 486.153 615.214 464.679 653 454 c 1
EndSplineSet
EndChar
StartChar: uni0E16
Encoding: 144 3606 146
OldEncoding: 3606
Width: 1240
Flags: HW
HStem: -11 116<394 429> 989 160<838 874>
DStem: 1067 657 1230 673 927 0 1087 0
Fore
927 0 m 1
 1067 657 l 2
 1075.42 697.25 1079.64 733.82 1079.64 766.722 c 0
 1079.64 909.576 1000.12 983.31 840 989 c 1
 694 988 573 934 477 825 c 1
 552 808 604 754 632 663 c 1
 525 592 460 505 439 403 c 2
 431 369 l 1
 451 387 479 396 513 397 c 1
 609.08 396.237 656.898 353.028 656.898 267.371 c 0
 656.898 240.697 652.261 209.907 643 175 c 1
 604 52 520 -10 394 -11 c 1
 288.862 -5.5077 236.051 51.081 236.051 158.283 c 0
 236.051 187.711 240.031 220.954 248 258 c 2
 279 403 l 2
 301 508 363 598 465 671 c 1
 450 730 392 770 292 792 c 1
 448 1030 642 1149 874 1149 c 1
 1122.93 1144.89 1247.67 1037.52 1247.67 825.779 c 0
 1247.67 779.782 1241.78 728.859 1230 673 c 1
 1087 0 l 1
 927 0 l 1
429 105 m 1
 489 106 527 136 541 196 c 0
 542.57 203.38 543.351 210.217 543.351 216.52 c 0
 543.351 250.358 520.835 268.785 477 273 c 1
 427 273 393 246 376 192 c 1
 374.209 183.938 373.316 176.39 373.316 169.356 c 0
 373.316 137.123 392.061 115.671 429 105 c 1
EndSplineSet
EndChar
StartChar: uni0E17
Encoding: 145 3607 147
OldEncoding: 3607
Width: 1350
Flags: HW
HStem: 0 21G<317 518 1054 1214> 1026 124<475 518>
DStem: 481 770 664 881 317 0 533 263 1236 857 1407 910 1054 0 1214 0
Fore
481 770 m 1
 466 756 443 747 411 743 c 1
 308.998 746.264 258.269 793.476 258.269 884.636 c 0
 258.269 905.19 260.848 927.978 266 953 c 1
 306 1082 391 1147 518 1150 c 1
 623.359 1142.92 675.552 1085.77 675.552 979.034 c 0
 675.552 950.017 671.695 917.336 664 881 c 2
 533 263 l 1
 1022 990 l 1
 1084 1087 1163 1136 1259 1136 c 1
 1363.84 1130.35 1416 1080.48 1416 985.854 c 0
 1416 963.149 1413 937.866 1407 910 c 2
 1214 0 l 1
 1054 0 l 1
 1236 857 l 1
 1238.64 868.298 1239.96 878.325 1239.96 887.081 c 0
 1239.96 914.748 1226.83 929.721 1201 932 c 0
 1199.55 932.167 1198.1 932.25 1196.63 932.25 c 0
 1171.76 932.25 1144.16 908.272 1113 862 c 1
 518 0 l 1
 317 0 l 1
 481 770 l 1
431 859 m 1
 489 859 525 889 539 949 c 0
 540.57 956.38 541.351 963.218 541.351 969.52 c 0
 541.351 1003.36 518.835 1021.79 475 1026 c 1
 425 1026 391 999 374 945 c 1
 371.983 936.017 370.975 927.706 370.975 920.073 c 0
 370.975 886.073 390.983 865.533 431 859 c 1
EndSplineSet
EndChar
StartChar: uni0E18
Encoding: 146 3608 148
OldEncoding: 3608
Width: 1250
Flags: HW
HStem: 0 151<442 1023> 997 151<837 857>
DStem: 387 650 548 650 249 0 442 151 966 480 1134 518 896 151 1023 0
Fore
966 480 m 2
 968.399 491.559 969.609 502.595 969.609 513.087 c 0
 969.609 550.702 954.058 581.325 922 604 c 1
 755 657 549 710 305 761 c 1
 429.519 1019 612.585 1148.01 853.21 1148.01 c 0
 856 1148 l 1
 861.444 1148.17 866.861 1148.25 872.25 1148.25 c 0
 963.858 1148.25 1047.39 1124.17 1122 1076 c 1
 1154.14 1064.56 1186.88 1058.76 1220.7 1058.76 c 0
 1248.95 1058.76 1277.96 1062.81 1308 1071 c 1
 1236 916 l 1
 1214.96 911.55 1193.27 909.391 1170.86 909.391 c 0
 1137.87 909.391 1103.32 914.068 1067 923 c 1
 977 972 900 997 837 997 c 1
 830.936 997.266 824.946 997.399 819.029 997.399 c 0
 713.709 997.399 631.649 955.266 572 871 c 1
 749 832 894 792 1008 753 c 1
 1096.97 724.691 1141.46 668.252 1141.46 583.153 c 0
 1141.46 563.039 1138.97 541.324 1134 518 c 1
 1023 0 l 1
 249 0 l 1
 387 650 l 1
 548 650 l 1
 442 151 l 1
 896 151 l 1
 966 480 l 2
EndSplineSet
EndChar
StartChar: uni0E19
Encoding: 147 3609 149
OldEncoding: 3609
Width: 1400
Flags: HW
HStem: 0 21G<364 519> 1024 125<514 565>
DStem: 527 769 711 880 364 0 561 174 1069 402 1037 243 561 174 519 0 1226 1139 1386 1139 1069 402 1245 475
Fore
527 769 m 1
 511 753 484 744 446 741 c 1
 351.706 742.73 304.56 791.607 304.56 888.278 c 0
 304.56 903.355 305.706 919.595 308 937 c 1
 342 1076 427 1146 565 1149 c 1
 670.138 1143.51 722.949 1086.92 722.949 979.717 c 0
 722.949 950.289 718.969 917.046 711 880 c 2
 561 174 l 1
 1069 402 l 1
 1226 1139 l 1
 1386 1139 l 1
 1245 475 l 1
 1351.94 467.87 1404.92 409.909 1404.92 301.116 c 0
 1404.92 272.576 1401.27 240.537 1394 205 c 1
 1364.99 60.8992 1285.47 -10.2466 1154.53 -10.2466 c 0
 1150.08 -10.2466 1145.57 -10.1644 1141 -10 c 1
 1061.02 -6.22752 1021.46 40.8091 1021.46 130.68 c 0
 1021.46 159.923 1025.65 193.701 1034 232 c 1
 1037 243 l 1
 519 0 l 1
 364 0 l 1
 527 769 l 1
1205 328 m 1
 1170 165 l 1
 1168.7 157.966 1168.06 151.514 1168.06 145.651 c 0
 1168.06 119.842 1180.55 105.445 1205 103 c 1
 1241 106 1266 139 1280 202 c 0
 1282.41 214.029 1283.64 225.426 1283.64 236.189 c 0
 1283.64 261.215 1276.99 282.819 1263 301 c 0
 1249 319 1229 328 1205 328 c 1
466 856 m 1
 526 857 563 887 577 947 c 0
 578.613 954.581 579.419 961.589 579.419 968.033 c 0
 579.419 1001.54 557.613 1019.81 514 1024 c 1
 464 1024 430 997 412 943 c 1
 410.5 935.5 409.75 928.444 409.75 921.833 c 0
 409.75 888.778 428.5 866.833 466 856 c 1
EndSplineSet
EndChar
StartChar: uni0E1A
Encoding: 148 3610 150
OldEncoding: 3610
Width: 1300
Flags: HW
HStem: 0 148<519 1153> 1023 127<482 529>
DStem: 492 770 675 881 328 0 519 148 1235 1139 1395 1139 1024 148 1153 0
Fore
519 148 m 1
 1024 148 l 1
 1235 1139 l 1
 1395 1139 l 1
 1153 0 l 1
 328 0 l 1
 492 770 l 1
 471 751.625 440.812 742.438 399.428 742.438 c 0
 393.516 742.438 387.375 742.625 381 743 c 1
 307.857 754.429 271.286 800.687 271.286 882.218 c 0
 271.286 907.696 274.857 936.619 282 969 c 1
 330.605 1089.02 412.663 1150.01 526.224 1150.01 c 0
 529 1150 l 1
 531.217 1150.05 533.411 1150.07 535.582 1150.07 c 0
 637.029 1150.07 687.974 1096.66 687.974 988.947 c 0
 687.974 957.577 683.653 921.602 675 881 c 2
 519 148 l 1
435 855 m 1
 495 856 532 886 546 946 c 0
 547.609 953.561 548.415 960.553 548.415 966.983 c 0
 548.415 1000.53 526.474 1018.8 482 1023 c 1
 432 1023 399 996 381 942 c 1
 379.5 934.5 378.75 927.444 378.75 920.833 c 0
 378.75 887.778 397.5 865.833 435 855 c 1
EndSplineSet
EndChar
StartChar: uni0E1B
Encoding: 149 3611 151
OldEncoding: 3611
Width: 1300
Flags: HW
HStem: 0 148<545 1179> 1023 127<508 555>
DStem: 518 770 701 881 354 0 545 148 1334 1480 1494 1480 1050 148 1179 0
Fore
545 148 m 1
 1050 148 l 1
 1334 1480 l 1
 1494 1480 l 1
 1179 0 l 1
 354 0 l 1
 518 770 l 1
 497 751.625 466.812 742.438 425.428 742.438 c 0
 419.516 742.438 413.375 742.625 407 743 c 1
 333.857 754.429 297.286 800.687 297.286 882.218 c 0
 297.286 907.696 300.857 936.619 308 969 c 1
 356.605 1089.02 438.663 1150.01 552.224 1150.01 c 0
 555 1150 l 1
 557.217 1150.05 559.411 1150.07 561.582 1150.07 c 0
 663.029 1150.07 713.974 1096.66 713.974 988.947 c 0
 713.974 957.577 709.653 921.602 701 881 c 2
 545 148 l 1
461 855 m 1
 521 856 558 886 572 946 c 0
 573.609 953.561 574.415 960.553 574.415 966.983 c 0
 574.415 1000.53 552.474 1018.8 508 1023 c 1
 458 1023 425 996 407 942 c 1
 405.5 934.5 404.75 927.444 404.75 920.833 c 0
 404.75 887.778 423.5 865.833 461 855 c 1
EndSplineSet
EndChar
StartChar: uni0E1C
Encoding: 150 3612 152
OldEncoding: 3612
Width: 1200
Flags: HW
HStem: 0 21G<134 294 880 1040> 741 109<526 536> 1119 20G<1122 1282>
DStem: 321 881 458 770 134 0 339 214 1122 1139 1282 1139 925 211 1040 0
Fore
321 881 m 2
 357 1048 443 1137 581 1150 c 1
 695.723 1149.17 753.084 1097.89 753.084 997.304 c 0
 753.084 976.896 750.723 954.458 746 930 c 1
 714 817 644 754 536 741 c 1
 499 741 473 751 458 770 c 1
 339 214 l 1
 703 627 l 1
 751 627 l 1
 925 211 l 1
 1122 1139 l 1
 1282 1139 l 1
 1040 0 l 1
 880 0 l 1
 683 406 l 1
 294 0 l 1
 134 0 l 1
 321 881 l 2
527 850 m 1
 587 851 624 881 638 941 c 0
 639.609 948.561 640.415 955.553 640.415 961.983 c 0
 640.415 995.526 618.474 1013.8 574 1018 c 1
 524 1018 491 991 473 937 c 1
 471.5 929.5 470.75 922.444 470.75 915.833 c 0
 470.75 882.778 489.5 860.833 527 850 c 1
EndSplineSet
EndChar
StartChar: uni0E1D
Encoding: 151 3613 153
OldEncoding: 3613
Width: 1200
Flags: HW
HStem: 0 21G<153 313 899 1059> 741 109<545 555>
DStem: 340 881 477 770 153 0 358 214 1214 1480 1374 1480 944 211 1059 0
Fore
340 881 m 2
 376 1048 462 1137 600 1150 c 1
 714.723 1149.17 772.084 1097.89 772.084 997.304 c 0
 772.084 976.896 769.723 954.458 765 930 c 1
 738 819 668 756 555 741 c 1
 518 741 492 751 477 770 c 1
 358 214 l 1
 722 627 l 1
 770 627 l 1
 944 211 l 1
 1214 1480 l 1
 1374 1480 l 1
 1059 0 l 1
 899 0 l 1
 702 406 l 1
 313 0 l 1
 153 0 l 1
 340 881 l 2
546 850 m 1
 606 851 643 881 657 941 c 0
 658.609 948.561 659.415 955.553 659.415 961.983 c 0
 659.415 995.526 637.474 1013.8 593 1018 c 1
 543 1018 510 991 492 937 c 1
 490.5 929.5 489.75 922.444 489.75 915.833 c 0
 489.75 882.778 508.5 860.833 546 850 c 1
EndSplineSet
EndChar
StartChar: uni0E1E
Encoding: 152 3614 154
OldEncoding: 3614
Width: 1350
Flags: HW
HStem: 0 21G<300 490 1016 1206> 740 117<373 409> 1025 124<457 501>
DStem: 463 769 647 880 300 0 516 263 917 810 999 1083 1016 0 1101 260 951 1083 917 810 516 263 490 0 1288 1139 1448 1139 1101 260 1206 0
Fore
516 263 m 1
 951 1083 l 1
 999 1083 l 1
 1101 260 l 1
 1288 1139 l 1
 1448 1139 l 1
 1206 0 l 1
 1016 0 l 1
 917 810 l 1
 490 0 l 1
 300 0 l 1
 463 769 l 1
 440 750 410 740 373 740 c 1
 283.791 745.729 239.461 791.648 239.461 878.853 c 0
 239.461 898.199 241.642 919.578 246 943 c 1
 282 1078 367 1147 501 1149 c 1
 606.693 1146.65 659.059 1090.98 659.059 982.455 c 0
 659.059 952.363 655.032 918.208 647 880 c 2
 516 263 l 1
409 857 m 1
 469 858 506 888 521 948 c 0
 522.347 955.032 523.022 961.572 523.022 967.626 c 0
 523.022 1002.03 501.219 1020.75 457 1025 c 1
 407 1025 373 998 356 944 c 1
 354.209 935.938 353.316 928.391 353.316 921.356 c 0
 353.316 889.123 372.061 867.671 409 857 c 1
EndSplineSet
EndChar
StartChar: uni0E1F
Encoding: 153 3615 155
OldEncoding: 3615
Width: 1450
Flags: HW
HStem: 0 21G<381 571 1097 1287> 740 117<454 490> 1025 124<538 582>
DStem: 544 769 728 880 381 0 597 263 998 810 1080 1083 1097 0 1182 260 1032 1083 998 810 597 263 571 0 1442 1480 1602 1480 1182 260 1287 0
Fore
597 263 m 1
 1032 1083 l 1
 1080 1083 l 1
 1182 260 l 1
 1442 1480 l 1
 1602 1480 l 1
 1287 0 l 1
 1097 0 l 1
 998 810 l 1
 571 0 l 1
 381 0 l 1
 544 769 l 1
 521 750 491 740 454 740 c 1
 364.782 747.3 319.639 793.412 319.639 877.804 c 0
 319.639 897.461 322.088 919.196 327 943 c 1
 363 1078 448 1147 582 1149 c 1
 687.693 1146.65 740.059 1090.98 740.059 982.455 c 0
 740.059 952.363 736.032 918.208 728 880 c 2
 597 263 l 1
490 857 m 1
 550 858 587 888 602 948 c 0
 603.347 955.032 604.022 961.572 604.022 967.626 c 0
 604.022 1002.03 582.219 1020.75 538 1025 c 1
 488 1025 454 998 437 944 c 1
 435.209 935.938 434.316 928.391 434.316 921.356 c 0
 434.316 889.123 453.061 867.671 490 857 c 1
EndSplineSet
EndChar
StartChar: uni0E20
Encoding: 154 3616 156
OldEncoding: 3616
Width: 1350
Flags: HW
HStem: -10 122<271 280> 990 160<969 1005>
DStem: 1198 658 1361 674 1058 0 1218 0
Fore
1198 658 m 2
 1206.37 697.266 1210.56 733.034 1210.56 765.317 c 0
 1210.56 906.512 1130.53 981.047 971 990 c 1
 967.457 990.014 l 0
 838.801 990.014 718.991 935.991 609 826 c 1
 688 801 740 747 763 664 c 1
 656 591 591 505 570 404 c 2
 539 259 l 2
 502 84 415 -6 279 -10 c 1
 165.252 -10 108.05 42.023 108.05 146.724 c 0
 108.05 162.603 109.366 179.695 112 198 c 1
 141 320 212 387 325 399 c 1
 361 399 387 389 403 370 c 1
 410 404 l 1
 434 513 496 603 596 672 c 1
 572 731 514 771 424 793 c 1
 578 1031 772 1150 1005 1150 c 1
 1254.22 1145.9 1379.11 1038.3 1379.11 827.753 c 0
 1379.11 781.474 1373.07 730.221 1361 674 c 2
 1218 0 l 1
 1058 0 l 1
 1198 658 l 2
271 112 m 1
 331 113 368 143 382 203 c 0
 383.613 210.581 384.419 217.589 384.419 224.033 c 0
 384.419 257.544 362.613 275.806 319 280 c 1
 269 280 235 253 217 199 c 1
 215.5 191.5 214.75 184.444 214.75 177.833 c 0
 214.75 144.778 233.5 122.833 271 112 c 1
EndSplineSet
EndChar
StartChar: uni0E21
Encoding: 155 3617 157
OldEncoding: 3617
Width: 1350
Flags: HW
HStem: -10 123<355 370> 1119 20G<1233 1393>
DStem: 535 770 718 881 466 446 618 409 582 243 618 409 990 0 1025 159 1233 1139 1393 1139 1025 159 1151 0
Fore
466 446 m 1
 535 770 l 1
 517 751 491 741 457 739 c 1
 360.792 745.468 312.952 794.421 312.952 885.332 c 0
 312.952 906.869 315.637 930.76 321 957 c 1
 348 1075 429 1139 563 1150 c 1
 565.333 1150.01 l 0
 675.316 1150.01 730.546 1094.65 730.546 984.414 c 0
 730.546 954.091 726.367 919.617 718 881 c 2
 618 409 l 1
 1025 159 l 1
 1233 1139 l 1
 1393 1139 l 1
 1151 0 l 1
 990 0 l 1
 582 243 l 1
 561 146 l 1
 533 43 469 -9 370 -10 c 1
 261.942 -9.16234 207.912 40.7928 207.912 141.041 c 0
 207.912 160.469 209.942 181.786 214 205 c 1
 250 363 334 443 466 446 c 1
450 328 m 1
 385 326 342 284 321 202 c 1
 318.281 188.897 316.906 177.261 316.906 167.062 c 0
 316.906 136.006 329.653 118.269 356 113 c 1
 387 113 408 133 417 174 c 1
 450 328 l 1
478 855 m 1
 538 856 575 886 589 946 c 0
 590.609 953.561 591.415 960.553 591.415 966.983 c 0
 591.415 1000.53 569.474 1018.8 525 1023 c 1
 475 1023 442 996 424 942 c 1
 422.5 934.5 421.75 927.444 421.75 920.833 c 0
 421.75 887.778 440.5 865.833 478 855 c 1
EndSplineSet
EndChar
StartChar: uni0E22
Encoding: 156 3618 158
OldEncoding: 3618
Width: 1200
Flags: HW
HStem: 0 156<378 1027> 505 113<678 755> 743 112<593 599> 1023 126<640 662>
DStem: 273 349 419 347 199 0 378 156 1109 1139 1269 1139 900 156 1027 0
Fore
469 562 m 1
 399 580 359 629 349 709 c 128
 346.914 724.172 345.871 739.74 345.871 755.711 c 0
 345.871 823.949 364.914 899.534 403 983 c 1
 457 1092 544 1147 662 1149 c 1
 767.472 1148.2 819.952 1100.8 819.952 1006.27 c 0
 819.952 982.499 816.632 955.744 810 926 c 0
 782 809 712 748 599 743 c 1
 549 744 516 753 503 770 c 1
 501.037 758.223 500.061 747.146 500.061 736.764 c 0
 500.061 688.965 520.744 655.896 561 637 c 0
 589.797 623.995 647.07 617.893 734.422 617.893 c 0
 741.105 617.893 747.964 617.929 755 618 c 1
 731 505 l 1
 635 505 566 497 525 481 c 0
 468 458 433 413 419 347 c 2
 378 156 l 1
 900 156 l 1
 1109 1139 l 1
 1269 1139 l 1
 1027 0 l 1
 199 0 l 1
 273 349 l 2
 293 444 359 515 469 562 c 1
594 855 m 1
 654 856 691 886 705 946 c 0
 706.609 953.561 707.415 960.553 707.415 966.983 c 0
 707.415 1000.53 685.474 1018.8 641 1023 c 1
 591 1023 558 996 540 942 c 1
 538.5 934.5 537.75 927.444 537.75 920.833 c 0
 537.75 887.778 556.5 865.833 594 855 c 1
EndSplineSet
EndChar
StartChar: uni0E23
Encoding: 157 3619 159
OldEncoding: 3619
Width: 1100
Flags: HW
HStem: 998 151<773 817>
DStem: 835 529 1005 574 800 363 948 304
Fore
948 304 m 2
 902.44 92.937 823.164 -11.7906 707.761 -11.7906 c 0
 699.047 -11.7906 690.127 -11.1935 681 -10 c 1
 575.977 -9.16648 523.755 36.8259 523.755 128.556 c 0
 523.755 146.878 525.838 167.024 530 189 c 1
 550 304 614 368 722 383 c 1
 727.441 383.453 732.654 383.678 737.638 383.678 c 0
 765.631 383.678 786.418 376.582 800 363 c 1
 835 529 l 2
 837.112 538.681 838.171 547.959 838.171 556.84 c 0
 838.171 598.414 814.967 631.28 768 656 c 1
 667 692 500 727 266 762 c 1
 390 1020 574 1149 817 1149 c 0
 883 1149 943 1137 997 1114 c 128
 1052 1090 1093 1076 1121 1071 c 1
 1143.45 1066.12 1166.86 1063.62 1190.98 1063.62 c 0
 1216.29 1063.62 1242.38 1066.37 1269 1072 c 1
 1197 917 l 1
 1178.04 909.958 1156.44 906.438 1132.2 906.438 c 0
 1111.69 906.438 1089.29 908.958 1065 914 c 1
 1025 920 982 935 938 960 c 128
 893 985 838 997 773 998 c 0
 771.837 998.012 770.677 998.017 769.52 998.017 c 0
 671.142 998.017 592.302 956.012 533 872 c 1
 740 829 872 786 930 745 c 1
 981.681 704.333 1007.52 657.207 1007.52 603.62 c 0
 1007.52 593.957 1006.68 584.083 1005 574 c 1
 948 304 l 2
694 109 m 1
 754 110 791 140 806 200 c 0
 807.347 207.032 808.022 213.572 808.022 219.626 c 0
 808.022 254.034 786.219 272.748 742 277 c 1
 692 277 658 250 641 196 c 1
 639.209 187.938 638.316 180.39 638.316 173.356 c 0
 638.316 141.123 657.062 119.671 694 109 c 1
EndSplineSet
EndChar
StartChar: uni0E24
Encoding: 158 3620 160
OldEncoding: 3620
Width: 1240
Flags: HW
HStem: -11 116<392 435> 989 160<836 872>
DStem: 1065 657 1228 673 844 -380 1004 -380
Fore
1004 -380 m 1
 844 -380 l 1
 1065 657 l 1
 1072.82 695.568 1076.74 730.793 1076.74 762.669 c 0
 1076.74 906.011 997.525 981.637 838 989 c 1
 834.042 989.013 l 0
 687.841 989.013 568.161 934.018 475 825 c 1
 545 794 597 740 630 663 c 1
 524 598 460 512 437 403 c 2
 429 369 l 1
 444 383 468 392 500 396 c 1
 500.867 396.007 501.73 396.01 502.589 396.01 c 0
 602.67 396.01 652.711 350.797 652.711 260.838 c 0
 652.711 235.712 648.807 207.096 641 175 c 1
 603 51 520 -11 392 -11 c 0
 286.174 -10.2219 233.026 44.4445 233.026 152.528 c 0
 233.026 183.346 237.347 218.507 246 258 c 1
 277 403 l 1
 298 508 360 597 463 671 c 1
 420 732 363 773 290 792 c 1
 451 1030 645 1149 872 1149 c 1
 1120.63 1139.94 1245.23 1030.57 1245.23 821.447 c 0
 1245.23 776.559 1239.49 727.075 1228 673 c 2
 1004 -380 l 1
435 105 m 1
 495 106 533 136 547 196 c 0
 548.57 203.38 549.351 210.217 549.351 216.52 c 0
 549.351 250.358 526.835 268.785 483 273 c 1
 433 273 399 246 382 192 c 1
 380.209 183.938 379.316 176.39 379.316 169.356 c 0
 379.316 137.123 398.061 115.671 435 105 c 1
EndSplineSet
EndChar
StartChar: uni0E25
Encoding: 159 3621 161
OldEncoding: 3621
Width: 1255
Flags: HW
HStem: -11 115<431 466> 272 127<514 556> 604 140<734 770> 984 165<805 842>
DStem: 980 263 1236 713 924 0 1084 0
Fore
1236 713 m 1
 1084 0 l 1
 924 0 l 1
 980 263 l 1
 986.594 295.312 989.927 325.775 989.927 354.462 c 0
 989.927 412.782 976.152 463.761 948 508 c 128
 907.603 571.058 839.054 604.022 740.439 604.022 c 0
 738.966 604.022 737.486 604.015 736 604 c 1
 734.299 604.025 732.604 604.038 730.914 604.038 c 0
 665.054 604.038 607.774 585.049 560 548 c 128
 510 511 480 464 468 407 c 2
 459 369 l 1
 482 389 514 399 556 399 c 1
 641.44 395.806 684.16 351.167 684.16 265.592 c 0
 684.16 243.999 681.44 219.799 676 193 c 1
 660 128 629 77 583 42 c 128
 537 7 486 -11 431 -11 c 0
 429.614 -11.0227 428.236 -11.0341 426.866 -11.0341 c 0
 367.961 -11.0341 324.273 9.97727 293 52 c 128
 274.013 78.3374 264.404 114.429 264.404 160.044 c 0
 264.404 188.903 268.25 221.575 276 258 c 2
 303 388 l 2
 329 508 388 598 480 656 c 128
 570.467 715 664.802 744.025 763.005 744.025 c 0
 764.669 744.025 766.334 744.017 768 744 c 1
 770.467 744.033 772.92 744.05 775.36 744.05 c 0
 846.123 744.05 905.767 730.033 957 702 c 128
 1009 673 1041 642 1053 609 c 1
 1076 714 l 1
 1081.11 738.405 1083.66 761.16 1083.66 782.263 c 0
 1083.66 909.889 990.352 977.135 805 984 c 1
 677 984 538 934 387 834 c 1
 357 944 l 1
 520 1077 682 1146 842 1149 c 1
 1113.38 1140.55 1249.68 1035.6 1249.68 833.562 c 0
 1249.68 796.622 1245.12 756.436 1236 713 c 1
466 104 m 1
 526 105 563 135 577 195 c 0
 578.613 202.581 579.419 209.589 579.419 216.033 c 0
 579.419 249.544 557.613 267.806 514 272 c 1
 464 272 430 245 413 191 c 1
 411.209 182.938 410.316 175.39 410.316 168.356 c 0
 410.316 136.123 429.061 114.671 466 104 c 1
EndSplineSet
EndChar
StartChar: uni0E26
Encoding: 160 3622 162
OldEncoding: 3622
Width: 1350
Flags: HW
HStem: -10 122<286 295> 990 160<984 1020>
DStem: 1213 658 1376 674 992 -380 1152 -380
Fore
1213 658 m 2
 1221.37 697.266 1225.56 733.034 1225.56 765.317 c 0
 1225.56 906.512 1145.53 981.047 986 990 c 1
 982.457 990.014 l 0
 853.801 990.014 733.991 935.991 624 826 c 1
 703 801 755 747 778 664 c 1
 671 591 606 505 585 404 c 2
 554 259 l 2
 517 84 430 -6 294 -10 c 1
 180.252 -10 123.05 42.023 123.05 146.724 c 0
 123.05 162.603 124.366 179.695 127 198 c 1
 156 320 227 387 340 399 c 1
 376 399 402 389 418 370 c 1
 425 404 l 1
 449 513 511 603 611 672 c 1
 587 731 529 771 439 793 c 1
 593 1031 787 1150 1020 1150 c 1
 1269.22 1145.9 1394.11 1038.3 1394.11 827.753 c 0
 1394.11 781.474 1388.07 730.221 1376 674 c 2
 1152 -380 l 1
 992 -380 l 1
 1213 658 l 2
286 112 m 1
 346 113 383 143 397 203 c 0
 398.613 210.581 399.419 217.589 399.419 224.033 c 0
 399.419 257.544 377.613 275.806 334 280 c 1
 284 280 250 253 232 199 c 1
 230.5 191.5 229.75 184.444 229.75 177.833 c 0
 229.75 144.778 248.5 122.833 286 112 c 1
EndSplineSet
EndChar
StartChar: uni0E27
Encoding: 161 3623 163
OldEncoding: 3623
Width: 1150
Flags: HW
HStem: -10 123<782 793> 1002 147<759 790>
DStem: 991 738 1152 742 912 369 1049 258
Fore
1152 742 m 2
 1049 258 l 2
 1011.21 79.9836 924.955 -10.0082 790.237 -10.0082 c 0
 789.493 -10.0082 788.747 -10.0055 788 -10 c 1
 672.793 -6.37143 615.189 45.8087 615.189 146.54 c 0
 615.189 156.852 615.793 167.671 617 179 c 1
 646 315 718 388 834 398 c 1
 871 398 897 388 912 369 c 1
 991 738 l 1
 997.942 765.404 1001.41 791.206 1001.41 815.308 c 0
 1001.41 857.169 990.942 893.904 970 925 c 128
 938 974 867 1000 759 1002 c 0
 757.413 1002.01 755.828 1002.02 754.244 1002.02 c 0
 610.067 1002.02 476.652 957 354 866 c 1
 293 927 l 1
 445 1070 610 1144 790 1149 c 1
 938 1147 1043 1111 1103 1040 c 128
 1144.23 991.897 1164.68 930.1 1164.68 854.283 c 0
 1164.68 819.771 1160.45 782.353 1152 742 c 2
782 113 m 1
 842 114 879 144 893 204 c 0
 894.613 211.581 895.419 218.589 895.419 225.033 c 0
 895.419 258.544 873.613 276.806 830 281 c 1
 780 281 746 254 729 200 c 1
 727.209 191.938 726.316 184.39 726.316 177.356 c 0
 726.316 145.123 745.062 123.671 782 113 c 1
EndSplineSet
EndChar
StartChar: uni0E28
Encoding: 162 3624 164
OldEncoding: 3624
Width: 1300
Flags: HW
HStem: 0 21G<181 391 971 1131> 625 121<804 817>
DStem: 1109 650 1269 651 971 0 1131 0
Fore
1168 1067 m 1
 1220 1096 1271 1148 1322 1224 c 1
 1540 1224 l 1
 1479 1108 1387 1013 1264 939 c 1
 1278.92 899.025 1286.46 853.084 1286.46 801.178 c 0
 1286.46 755.698 1280.68 705.639 1269 651 c 1
 1131 0 l 1
 971 0 l 1
 1109 650 l 2
 1116.01 682.841 1119.52 713.318 1119.52 741.431 c 0
 1119.52 889.665 1022.01 972.188 827 989 c 1
 586 972 442 857 397 646 c 1
 378.385 547 369.077 438.692 369.077 321.077 c 0
 369.077 299.692 369.385 278 370 256 c 1
 428 418 498 540 578 623 c 128
 658.036 705.012 737.095 746.018 814.213 746.018 c 0
 815.143 746.018 816.071 746.012 817 746 c 0
 924.229 745.142 978.475 697.924 978.475 603.714 c 0
 978.475 588.101 976.985 571.197 974 553 c 1
 945 432 873 362 758 342 c 1
 756.554 341.982 755.119 341.973 753.695 341.973 c 0
 675.332 341.973 629.732 369 615 424 c 1
 540 319 465 177 391 0 c 1
 181 0 l 1
 204 108 l 1
 215.517 165.587 221.729 241.45 221.729 334.685 c 0
 221.729 362.876 221.161 392.657 220 424 c 1
 219.798 432.991 219.698 441.92 219.698 450.789 c 0
 219.698 529.708 227.616 603.779 242 673 c 0
 307 973 512 1132 856 1149 c 1
 992 1147 1096 1120 1168 1067 c 1
771 460 m 1
 826 463 860 491 873 543 c 1
 874.946 552.023 875.922 560.294 875.922 567.82 c 0
 875.922 602.833 854.8 621.708 812 625 c 1
 758 625 723 598 707 543 c 1
 705.114 534.601 704.169 526.818 704.169 519.658 c 0
 704.169 485.047 726.256 464.972 771 460 c 1
EndSplineSet
EndChar
StartChar: uni0E29
Encoding: 163 3625 165
OldEncoding: 3625
Width: 1350
Flags: HW
HStem: -1 148<486 1119> 1118 20G<1202 1362>
DStem: 458 769 642 880 295 -1 486 147 1052 435 1225 493 991 147 1119 -1 1202 1138 1362 1138 1075 543 1259 654
Fore
1259 654 m 1
 1292 681 1314 721 1325 773 c 1
 1432 773 l 1
 1407 655 1338 562 1225 493 c 1
 1119 -1 l 1
 295 -1 l 1
 458 769 l 1
 438.118 749.118 411.803 739.176 379.503 739.176 c 0
 369.564 739.176 359.059 740.118 348 742 c 1
 272.993 759.081 235.489 804.841 235.489 879.69 c 0
 235.489 905.628 239.993 935.059 249 968 c 1
 288.719 1089.09 366.916 1149.19 484.501 1149.19 c 0
 488.293 1149.19 492.126 1149.12 496 1149 c 1
 601.48 1147.44 654.459 1092.15 654.459 983.621 c 0
 654.459 953.248 650.309 918.704 642 880 c 2
 486 147 l 1
 991 147 l 1
 1052 435 l 1
 1024.78 426.052 998.262 421.552 972.436 421.552 c 0
 928.99 421.552 887.512 434.286 848 460 c 128
 805.471 487.677 784.361 524.925 784.361 572.05 c 0
 784.361 594.733 789.252 619.705 799 647 c 1
 830 722 883 762 957 765 c 1
 1027.01 765 1062.38 734.383 1062.38 672.427 c 0
 1062.38 665.359 1061.92 657.884 1061 650 c 1
 1049 597 1019 563 970 548 c 1
 986.375 539.53 1004.66 535.205 1024.86 535.205 c 0
 1040.44 535.205 1057.15 537.776 1075 543 c 1
 1202 1138 l 1
 1362 1138 l 1
 1259 654 l 1
986 641 m 0
 987.391 647.087 988.087 652.69 988.087 657.809 c 0
 988.087 682.125 972.391 695.522 941 698 c 1
 907 695 885 677 873 644 c 1
 872.347 639.688 872.018 635.614 872.018 631.782 c 0
 872.018 606.29 886.574 591.477 917 588 c 1
 955 591 978 608 986 641 c 0
402 854 m 1
 462 855 499 885 513 945 c 0
 514.609 952.561 515.415 959.553 515.415 965.983 c 0
 515.415 999.526 493.474 1017.8 449 1022 c 1
 399 1022 365 995 348 941 c 1
 346.458 933.288 345.679 926.046 345.679 919.273 c 0
 345.679 886.53 363.884 864.772 402 854 c 1
EndSplineSet
EndChar
StartChar: uni0E2A
Encoding: 164 3626 166
OldEncoding: 3626
Width: 1250
Flags: HW
HStem: -11 115<396 431> 272 127<479 521> 604 140<699 735> 984 165<770 807>
DStem: 945 263 1201 713 889 0 1049 0
Fore
1142 1037 m 1
 1212 1081 1266 1138 1303 1209 c 1
 1469 1209 l 1
 1447 1142 1407 1082 1350 1031 c 128
 1293 980 1243 948 1200 936 c 1
 1209.13 905.064 1213.63 870.528 1213.63 832.651 c 0
 1213.63 795.842 1209.38 755.878 1201 713 c 1
 1049 0 l 1
 889 0 l 1
 945 263 l 1
 951.594 295.312 954.927 325.775 954.927 354.462 c 0
 954.927 412.782 941.152 463.761 913 508 c 128
 872.603 571.058 804.054 604.022 705.439 604.022 c 0
 703.966 604.022 702.486 604.015 701 604 c 1
 699.299 604.025 697.604 604.038 695.914 604.038 c 0
 630.054 604.038 572.774 585.049 525 548 c 128
 475 511 445 464 433 407 c 2
 424 369 l 1
 447 389 479 399 521 399 c 1
 606.44 395.806 649.16 351.167 649.16 265.592 c 0
 649.16 243.999 646.44 219.799 641 193 c 1
 625 128 594 77 548 42 c 128
 502 7 451 -11 396 -11 c 0
 394.614 -11.0227 393.236 -11.0341 391.866 -11.0341 c 0
 332.961 -11.0341 289.273 9.97727 258 52 c 128
 239.013 78.3374 229.404 114.429 229.404 160.044 c 0
 229.404 188.903 233.25 221.575 241 258 c 2
 268 388 l 2
 294 508 353 598 445 656 c 128
 535.467 715 629.802 744.025 728.005 744.025 c 0
 729.669 744.025 731.334 744.017 733 744 c 1
 735.467 744.033 737.92 744.05 740.36 744.05 c 0
 811.123 744.05 870.767 730.033 922 702 c 128
 974 673 1006 642 1018 609 c 1
 1041 714 l 1
 1046.11 738.405 1048.66 761.16 1048.66 782.263 c 0
 1048.66 909.889 955.352 977.135 770 984 c 1
 642 984 503 934 352 834 c 1
 322 944 l 1
 485 1077 647 1146 807 1149 c 1
 964 1144 1076 1107 1142 1037 c 1
431 104 m 1
 491 105 528 135 542 195 c 0
 543.613 202.581 544.419 209.589 544.419 216.033 c 0
 544.419 249.544 522.613 267.806 479 272 c 1
 429 272 395 245 378 191 c 1
 376.209 182.938 375.316 175.39 375.316 168.356 c 0
 375.316 136.123 394.061 114.671 431 104 c 1
EndSplineSet
EndChar
StartChar: uni0E2B
Encoding: 165 3627 167
OldEncoding: 3627
Width: 1350
Flags: HW
HStem: 0 21G<332 556 1038 1198> 748 115<414 455>
DStem: 495 767 688 924 332 0 532 190 1164 594 1328 610 1038 0 1198 0
Fore
532 190 m 1
 602 315 685 430 784 538 c 128
 882 644 964 721 1028 767 c 1
 988.197 789.434 968.296 827.58 968.296 881.437 c 0
 968.296 902.001 971.197 924.855 977 950 c 1
 1010 1075 1090 1140 1215 1144 c 1
 1332.24 1141.36 1391.2 1092.09 1391.2 996.888 c 0
 1391.2 984.089 1390.13 970.459 1388 956 c 1
 1368 865 1329 801 1269 764 c 1
 1308.26 735.025 1328.29 687.703 1328.29 623.667 c 0
 1328.29 619.193 1328.2 614.637 1328 610 c 1
 1198 0 l 1
 1038 0 l 1
 1164 594 l 2
 1165.82 602.715 1166.74 610.978 1166.74 618.79 c 0
 1166.74 649.52 1152.5 673.256 1123 690 c 1
 1055 646 961 556 843 419 c 128
 725 282 629 143 556 0 c 1
 332 0 l 1
 495 767 l 1
 474 754 447 748 414 748 c 1
 334.305 758.258 294.457 803.382 294.457 883.865 c 0
 294.457 905.38 297.305 929.422 303 956 c 1
 342 1080 421 1144 540 1149 c 1
 542.575 1149.01 l 0
 646.009 1149.01 697.474 1100.84 697.474 1004.5 c 0
 697.474 980.624 694.313 953.791 688 924 c 2
 532 190 l 1
455 863 m 1
 516 864 553 894 567 954 c 0
 568.57 961.38 569.351 968.218 569.351 974.52 c 0
 569.351 1008.36 546.835 1026.79 503 1031 c 1
 453 1031 419 1004 402 950 c 1
 400.209 941.938 399.316 934.391 399.316 927.356 c 0
 399.316 895.123 418.061 873.671 455 863 c 1
1146 851 m 1
 1206 852 1243 882 1257 942 c 0
 1258.61 949.581 1259.42 956.589 1259.42 963.033 c 0
 1259.42 996.544 1237.61 1014.81 1194 1019 c 1
 1144 1019 1110 992 1092 938 c 1
 1090.5 930.5 1089.75 923.444 1089.75 916.833 c 0
 1089.75 883.778 1108.5 861.833 1146 851 c 1
EndSplineSet
EndChar
StartChar: uni0E2C
Encoding: 166 3628 168
OldEncoding: 3628
Width: 1400
Flags: HW
HStem: 0 21G<317 507 1033 1223> 740 117<390 426> 1025 124<474 518> 1447 20G<1671 1771>
DStem: 480 769 664 880 317 0 533 263 934 810 1016 1083 1033 0 1118 260 968 1083 934 810 533 263 507 0 1311 1167 1467 1159 1118 260 1223 0
Fore
1311 1167 m 1
 1221.55 1169.51 1176.83 1211.85 1176.83 1294.6 c 0
 1176.83 1310.84 1178.55 1328.64 1182 1348 c 1
 1208 1458 1276 1515 1385 1519 c 1
 1471.43 1514.92 1514.65 1476.27 1514.65 1403.59 c 0
 1514.65 1387.14 1512.43 1368.94 1508 1349 c 1
 1494 1281 l 1
 1535 1281 1572 1296 1606 1328 c 128
 1640 1358 1662 1405 1671 1467 c 1
 1771 1467 l 1
 1755 1360 1718 1282 1660 1234 c 128
 1602 1186 1538 1161 1467 1159 c 1
 1223 0 l 1
 1033 0 l 1
 934 810 l 1
 507 0 l 1
 317 0 l 1
 480 769 l 1
 457 750 427 740 390 740 c 0
 300.494 742.441 256.01 787.256 256.01 875.523 c 0
 256.01 895.733 258.342 918.221 263 943 c 1
 299 1078 384 1147 518 1149 c 1
 623.693 1146.65 676.059 1090.98 676.059 982.455 c 0
 676.059 952.363 672.032 918.208 664 880 c 2
 533 263 l 1
 968 1083 l 1
 1016 1083 l 1
 1118 260 l 1
 1311 1167 l 1
426 857 m 1
 486 858 523 888 538 948 c 0
 539.347 955.032 540.022 961.572 540.022 967.626 c 0
 540.022 1002.03 518.219 1020.75 474 1025 c 1
 424 1025 390 998 373 944 c 1
 371.209 935.938 370.316 928.391 370.316 921.356 c 0
 370.316 889.123 389.061 867.671 426 857 c 1
1331 1275 m 1
 1376 1280 1404 1304 1415 1345 c 1
 1415.54 1349.69 1415.82 1354.12 1415.82 1358.31 c 0
 1415.82 1392.56 1397.64 1410.22 1362 1412 c 1
 1315 1410 1286 1387 1275 1343 c 1
 1274.79 1340.01 1274.68 1337.12 1274.68 1334.32 c 0
 1274.68 1297.83 1292.92 1277.79 1331 1275 c 1
EndSplineSet
EndChar
StartChar: uni0E2D
Encoding: 167 3629 169
OldEncoding: 3629
Width: 1230
Flags: HW
HStem: 0 159<418 1050> 340 120<530 543> 628 120<585 595> 1002 147<781 810>
DStem: 315 434 461 366 223 0 418 159 1047 738 1209 749 924 159 1050 0
Fore
1209 749 m 1
 1050 0 l 1
 223 0 l 1
 315 434 l 1
 361 641 454 745 595 748 c 1
 703.344 744.717 757.793 694.275 757.793 596.122 c 0
 757.793 574.691 755.197 550.986 750 525 c 1
 720 404 647 342 530 340 c 0
 504 340 481 349 461 366 c 1
 418 159 l 1
 924 159 l 1
 1047 738 l 1
 1051.5 759.955 1053.75 780.552 1053.75 799.791 c 0
 1053.75 921.643 963.5 989.045 783 1002 c 1
 642 1002 518 957 410 866 c 1
 349 927 l 1
 494 1075 648 1149 810 1149 c 1
 1084.55 1144.75 1221.82 1048.02 1221.82 858.196 c 0
 1221.82 824.698 1217.55 788.3 1209 749 c 1
540 460 m 1
 600 461 637 491 651 551 c 0
 652.609 558.561 653.415 565.553 653.415 571.983 c 0
 653.415 605.526 631.474 623.804 587 628 c 1
 537 628 504 601 486 547 c 1
 484.5 539.5 483.75 532.444 483.75 525.833 c 0
 483.75 492.778 502.5 470.833 540 460 c 1
EndSplineSet
EndChar
StartChar: uni0E2E
Encoding: 168 3630 170
OldEncoding: 3630
Width: 1250
Flags: HW
HStem: 0 159<422 1057> 764 111<750 772> 1038 111<803 837>
DStem: 320 434 467 373 228 0 422 159 1047 715 1213 739 929 159 1057 0
Fore
1057 0 m 1
 228 0 l 1
 320 434 l 1
 363 639 456 744 600 748 c 1
 708.05 747.175 762.355 696.688 762.355 595.977 c 0
 762.355 574.586 759.905 550.928 755 525 c 1
 727 407 655 346 538 343 c 1
 505 346 482 356 467 373 c 1
 422 159 l 1
 929 159 l 1
 1047 715 l 2
 1053.5 745.5 1056.75 771.5 1056.75 792.75 c 0
 1056.75 814 1053.5 830.5 1047 842 c 1
 967 791 869 765 750 764 c 1
 520.562 766.88 405.4 826.898 405.4 943.171 c 0
 405.4 948.016 405.6 952.959 406 958 c 1
 479 1085 620 1148 829 1149 c 0
 831.101 1149.02 833.195 1149.03 835.281 1149.03 c 0
 958.294 1149.03 1055.17 1120.05 1124 1064 c 1
 1160 1100 1184 1131 1196 1158 c 1
 1309 1116 l 1
 1274 1061 1238 1014 1201 975 c 1
 1218.31 946.154 1226.96 907.655 1226.96 859.696 c 0
 1226.96 824.527 1222.31 784.269 1213 739 c 1
 1057 0 l 1
1026 952 m 1
 975 1009 905 1038 817 1038 c 0
 702 1038 616 1011 558 958 c 1
 565 910 636 882 769 875 c 1
 859 875 945 901 1026 952 c 1
543 460 m 1
 603 461 640 491 654 551 c 0
 655.609 558.561 656.415 565.553 656.415 571.983 c 0
 656.415 605.526 634.474 623.804 590 628 c 1
 540 628 507 601 489 547 c 1
 487.5 539.5 486.75 532.444 486.75 525.833 c 0
 486.75 492.778 505.5 470.833 543 460 c 1
EndSplineSet
EndChar
StartChar: uni0E2F
Encoding: 169 3631 171
OldEncoding: 3631
Width: 1150
Flags: HW
HStem: 0 21G<865 1025> 1129 20G<1109 1269>
DStem: 1041 830 1269 1149 865 0 1025 0
Fore
1269 1149 m 1
 1025 0 l 1
 865 0 l 1
 1041 830 l 1
 950 763 841 720 714 700 c 128
 676.571 694.653 641.347 691.953 608.33 691.953 c 0
 530.2 691.953 464.424 707.071 411 738 c 1
 352.625 774.176 323.993 828.604 323.993 900.727 c 0
 323.993 916.325 325.333 932.752 328 950 c 1
 362 1064 443 1127 572 1138 c 1
 682.25 1133.62 737.375 1086.38 737.375 996.25 c 0
 737.375 983.375 736.25 969.625 734 955 c 1
 722 894 691 853 639 832 c 1
 643.407 831.855 647.825 831.782 652.255 831.782 c 0
 739.305 831.782 830.794 859.809 925 915 c 128
 1024 973 1086 1051 1109 1149 c 1
 1269 1149 l 1
499 866 m 1
 559 867 596 897 610 957 c 0
 611.613 964.581 612.419 971.589 612.419 978.033 c 0
 612.419 1011.54 590.613 1029.81 547 1034 c 1
 497 1034 463 1007 446 953 c 1
 444.209 944.938 443.316 937.391 443.316 930.356 c 0
 443.316 898.123 462.061 876.671 499 866 c 1
EndSplineSet
EndChar
StartChar: uni0E30
Encoding: 170 3632 172
OldEncoding: 3632
Width: 1100
Flags: HW
HStem: 62 186<385 497> 548 186<488 600>
Fore
243 330 m 1
 270 428 338 480 446 485 c 1
 533.824 482.467 577.435 442.138 577.435 364.617 c 0
 577.435 350.339 575.955 334.798 573 318 c 1
 559 269 528 230 480 199 c 1
 506.819 189.688 534.886 184.954 564.202 184.954 c 0
 613.591 184.954 666.523 198.389 723 226 c 128
 814 268 873 353 900 479 c 1
 1016 479 l 1
 986 341 924 237 830 166 c 128
 736.357 96.0139 627.167 61.9786 502.431 61.9786 c 0
 500.624 61.9786 498.814 61.9857 497 62 c 0
 405 63 334 87 286 132 c 128
 251.758 164.815 234.819 207.807 234.819 260.978 c 0
 234.819 282.342 237.554 305.349 243 330 c 1
385 248 m 1
 437 249 469 275 482 327 c 0
 483.227 333.136 483.843 338.848 483.843 344.137 c 0
 483.843 373.326 465.097 389.614 427 393 c 1
 383 393 354 370 339 323 c 1
 337.368 315.929 336.558 309.318 336.558 303.167 c 0
 336.558 275.395 353.071 257.006 385 248 c 1
346 816 m 1
 373 914 441 966 549 971 c 1
 636.45 968.477 680.77 928.481 680.77 851.604 c 0
 680.77 837.056 679.183 821.186 676 804 c 1
 662 755 631 716 584 685 c 1
 610.446 675.688 638.28 670.954 667.501 670.954 c 0
 716.729 670.954 769.896 684.389 827 712 c 128
 918 754 976 839 1003 965 c 1
 1119 965 l 1
 1090 827 1028 723 933 652 c 128
 839.357 582.014 731.138 547.979 605.472 547.979 c 0
 603.652 547.979 601.828 547.986 600 548 c 0
 508 549 438 573 389 618 c 128
 354.758 650.815 337.819 693.807 337.819 746.978 c 0
 337.819 768.342 340.554 791.349 346 816 c 1
488 734 m 1
 540 735 572 761 585 813 c 0
 586.227 819.136 586.843 824.848 586.843 830.137 c 0
 586.843 859.326 568.097 875.614 530 879 c 1
 487 879 457 856 442 809 c 1
 440.614 802.243 439.918 795.906 439.918 789.989 c 0
 439.918 761.757 455.757 743.094 488 734 c 1
EndSplineSet
EndChar
StartChar: uni0E31
Encoding: 171 3633 173
OldEncoding: 3633
Width: 0
Flags: HW
Fore
-441 1482 m 1
 -414 1580 -347 1632 -238 1637 c 1
 -150.774 1634.48 -107.161 1594.69 -107.161 1518.2 c 0
 -107.161 1503.49 -108.774 1487.42 -112 1470 c 1
 -125 1421 -156 1382 -204 1351 c 1
 -177.554 1341.69 -149.72 1336.95 -120.499 1336.95 c 0
 -71.2706 1336.95 -18.1042 1350.39 39 1378 c 128
 130 1420 189 1505 216 1631 c 1
 332 1631 l 1
 302 1493 240 1389 146 1318 c 128
 52.3566 1248.01 -56.8331 1213.98 -181.569 1213.98 c 0
 -183.376 1213.98 -185.186 1213.99 -187 1214 c 0
 -279 1215 -350 1239 -398 1284 c 128
 -432.172 1316.75 -449.619 1359.63 -449.619 1412.65 c 0
 -449.619 1434.11 -446.762 1457.22 -441 1482 c 1
-299 1400 m 1
 -247 1401 -215 1427 -203 1479 c 0
 -201.505 1485.65 -200.755 1491.8 -200.755 1497.45 c 0
 -200.755 1525.81 -219.643 1541.66 -258 1545 c 1
 -301 1545 -330 1522 -345 1475 c 1
 -346.632 1467.93 -347.442 1461.32 -347.442 1455.17 c 0
 -347.442 1427.39 -330.929 1409.01 -299 1400 c 1
EndSplineSet
EndChar
StartChar: uni0E32
Encoding: 172 3634 174
OldEncoding: 3634
Width: 1150
Flags: HW
HStem: 0 21G<796 956> 990 159<756 790>
DStem: 951 729 1116 753 796 0 956 0
Fore
1116 753 m 1
 956 0 l 1
 796 0 l 1
 951 729 l 2
 957.231 758.423 960.346 785.33 960.346 809.803 c 0
 960.346 856.031 949.231 893.577 927 923 c 128
 893 968 836 990 756 990 c 1
 620 988 512 930 431 816 c 1
 316 837 l 1
 430 1043 588 1147 790 1149 c 1
 918 1147 1011 1108 1068 1033 c 128
 1107.2 980.5 1126.8 918.69 1126.8 848.256 c 0
 1126.8 818.07 1123.2 786.3 1116 753 c 1
EndSplineSet
EndChar
StartChar: uni0E33
Encoding: 173 3635 175
OldEncoding: 3635
Width: 1050
Flags: HW
HStem: 0 21G<781 941> 990 159<741 775>
DStem: 936 729 1101 753 781 0 941 0
Fore
56 1668 m 1
 182.264 1661.99 245.08 1605.81 245.08 1498.19 c 0
 245.08 1480.51 243.385 1461.45 240 1441 c 1
 204 1293 110 1217 -41 1212 c 1
 -164.429 1217.14 -226.143 1273.71 -226.143 1382.34 c 0
 -226.143 1400.45 -224.429 1420 -221 1441 c 1
 -177 1585 -85 1661 56 1668 c 1
1101 753 m 1
 941 0 l 1
 781 0 l 1
 936 729 l 2
 942.231 758.423 945.346 785.33 945.346 809.803 c 0
 945.346 856.031 934.231 893.577 912 923 c 128
 878 968 821 990 741 990 c 1
 605 988 497 930 416 816 c 1
 301 837 l 1
 415 1043 573 1147 775 1149 c 1
 903 1147 996 1108 1053 1033 c 128
 1092.2 980.5 1111.8 918.69 1111.8 848.256 c 0
 1111.8 818.07 1108.2 786.3 1101 753 c 1
28 1521 m 1
 -24 1518 -59 1490 -75 1436 c 1
 -76.3034 1428.03 -76.9566 1420.61 -76.9566 1413.74 c 0
 -76.9566 1373.17 -54.1796 1351.71 -8 1350 c 1
 49 1352 84 1381 98 1436 c 1
 99.2629 1443.58 99.8957 1450.64 99.8957 1457.2 c 0
 99.8957 1497.37 76.1422 1518.42 28 1521 c 1
EndSplineSet
MultipleSubs: 0 1 'ccmp' uni0E4D uni0E32
EndChar
StartChar: uni0E34
Encoding: 174 3636 176
OldEncoding: 3636
Width: 0
Flags: HW
HStem: 1322 91<-843 -598>
Fore
81 1227 m 1
 -51 1257 -218 1280 -421 1297 c 128
 -624 1314 -764 1322 -843 1322 c 1
 -776 1433 -682 1520 -561 1583 c 1
 -478.681 1624.16 -395.059 1644.48 -309.083 1644.48 c 0
 -288.528 1644.48 -267.838 1643.32 -247 1641 c 1
 -141 1627 -60 1585 -5 1515 c 1
 53.3675 1447.51 81.7927 1361.73 81.7927 1257.64 c 0
 81.7927 1247.6 81.528 1237.38 81 1227 c 1
-76 1359 m 1
 -104 1456 -174 1512 -284 1527 c 1
 -295.217 1527.7 -306.246 1528.04 -317.086 1528.04 c 0
 -430.913 1528.04 -524.043 1489.7 -598 1413 c 1
 -594.467 1413.06 -590.83 1413.08 -587.09 1413.08 c 0
 -524.129 1413.08 -431.766 1405.21 -310 1392 c 128
 -181 1376 -103 1366 -76 1359 c 1
EndSplineSet
EndChar
StartChar: uni0E35
Encoding: 175 3637 177
OldEncoding: 3637
Width: 0
Flags: HW
HStem: 1323 101<-843 -570> 1511 131<-332 -295>
DStem: 32 1735 182 1735 -13 1525 81 1260
Fore
81 1260 m 1
 81 1249 81 1238 81 1228 c 1
 -56 1259 -260 1285 -532 1308 c 0
 -661 1318 -765 1323 -843 1323 c 1
 -807 1392 -738 1463 -636 1534 c 128
 -533 1606 -424 1642 -309 1642 c 0
 -179 1642 -80 1603 -13 1525 c 1
 32 1735 l 1
 182 1735 l 1
 81 1260 l 1
-88 1370 m 1
 -107 1457 -176 1504 -295 1511 c 1
 -297.033 1511.02 -299.058 1511.03 -301.075 1511.03 c 0
 -420.058 1511.03 -510.017 1482.02 -570 1424 c 1
 -472 1424 -351 1413 -205 1392 c 0
 -154 1385 -115 1377 -88 1370 c 1
EndSplineSet
EndChar
StartChar: uni0E36
Encoding: 176 3638 178
OldEncoding: 3638
Width: 0
Flags: HW
HStem: 1323 89<-843 -577>
Fore
-38 1548 m 1
 -5 1633 61 1678 159 1681 c 1
 258.079 1676.62 307.956 1630.72 307.956 1541.96 c 0
 307.956 1529.48 306.971 1516.17 305 1502 c 1
 278 1381 202 1321 79 1321 c 1
 80.4641 1308.56 81.3923 1288.61 81.3923 1261.16 c 0
 81.3923 1251.11 81.2679 1240.06 81 1228 c 1
 -56 1259 -260 1285 -532 1308 c 0
 -661 1318 -765 1323 -843 1323 c 1
 -810 1401 -746 1474 -649 1542 c 128
 -554.411 1609 -442.348 1642.02 -314.724 1642.02 c 0
 -309 1642 l 1
 -303.474 1642.02 l 0
 -184.279 1642.02 -96.1057 1610.05 -38 1548 c 1
135 1568 m 1
 90 1567 62 1544 49 1500 c 1
 47.5536 1492.77 46.8304 1486.1 46.8304 1480 c 0
 46.8304 1448.12 66.5536 1431.52 106 1429 c 1
 153 1431 183 1455 195 1500 c 1
 195.692 1504.85 196.038 1509.44 196.038 1513.78 c 0
 196.038 1547.04 175.692 1565.35 135 1568 c 1
-85 1358 m 1
 -100 1453 -170 1504 -294 1513 c 1
 -305.28 1513.6 -316.283 1513.9 -327.008 1513.9 c 0
 -441.795 1513.9 -524.871 1479.68 -577 1412 c 1
 -478 1412 -355 1401 -208 1380 c 0
 -153 1373 -112 1365 -85 1358 c 1
EndSplineSet
EndChar
StartChar: uni0E37
Encoding: 177 3639 179
OldEncoding: 3639
Width: 0
Flags: HW
HStem: 1459 20G<-357 -302>
DStem: 23 1695 173 1695 -20 1493 80 1258
Fore
-88 1544 m 1
 -73 1544 -51 1528 -23 1497 c 2
 -20 1493 l 1
 23 1695 l 1
 173 1695 l 1
 80 1258 l 1
 70 1201 l 1
 -65 1232 -275 1258 -558 1281 c 0
 -675 1291 -766 1296 -830 1296 c 1
 -779 1389 -697 1468 -583 1534 c 0
 -519 1571 -445 1594 -360 1604 c 1
 -299 1607 l 1
 -272 1606 -248 1603 -226 1598 c 1
 -206 1696 l 1
 -56 1696 l 1
 -88 1544 l 1
-114 1343 m 1
 -124 1382 -149 1415 -188 1442 c 0
 -221 1464 -259 1476 -302 1479 c 1
 -357 1479 l 1
 -441 1472 -509 1443 -563 1390 c 2
 -565 1387 l 1
 -443 1382 l 1
 -276 1371 -166 1358 -114 1343 c 1
EndSplineSet
EndChar
StartChar: uni0E38
Encoding: 178 3640 180
OldEncoding: 3640
Width: 0
Flags: HW
HStem: -375 67<-457 -448> -163 78<-418 -390>
DStem: -418 -360 -274 -299 -455 -534 -324 -534
Fore
-455 -534 m 1
 -418 -360 l 1
 -429 -369 -441 -374 -454 -375 c 1
 -538.746 -375 -581.119 -343.4 -581.119 -280.808 c 0
 -581.119 -269.542 -579.746 -257.271 -577 -244 c 0
 -554 -138 -492 -85 -390 -85 c 0
 -305.747 -85.7801 -264.095 -129.77 -264.095 -216.021 c 0
 -264.095 -240.33 -267.404 -267.997 -274 -299 c 2
 -324 -534 l 1
 -455 -534 l 1
-418 -163 m 0
 -461 -163 -488 -187 -498 -236 c 0
 -499.858 -245.105 -500.784 -253.348 -500.784 -260.726 c 0
 -500.784 -292.262 -483.872 -308.03 -450.549 -308.03 c 0
 -449.71 -308.03 -448.86 -308.02 -448 -308 c 0
 -416 -307 -395 -284 -383 -237 c 1
 -380.645 -225.463 -379.455 -215.256 -379.455 -206.393 c 0
 -379.455 -177.613 -392.005 -163 -418 -163 c 0
EndSplineSet
EndChar
StartChar: uni0E39
Encoding: 179 3641 181
OldEncoding: 3641
Width: 0
Flags: HW
HStem: -534 99<-588 -331> -163 78<-704 -676>
DStem: -371 -96 -237 -96 -443 -435 -331 -534
Fore
-371 -96 m 1
 -237 -96 l 1
 -331 -534 l 1
 -741 -534 l 1
 -704 -360 l 1
 -715 -369 -727 -374 -740 -375 c 2
 -774 -376 l 1
 -803 -374 -826 -362 -844 -341 c 0
 -859.465 -324.832 -867.023 -303.723 -867.023 -278.368 c 0
 -867.023 -267.653 -865.674 -256.179 -863 -244 c 0
 -859 -228 -853 -211 -845 -192 c 0
 -828 -157 -799 -129 -758 -107 c 0
 -730 -92 -703 -85 -676 -85 c 1
 -640 -88 l 1
 -599 -96 -573 -115 -560 -145 c 0
 -553 -161.5 -549.5 -182.75 -549.5 -208.5 c 0
 -549.5 -234.25 -553 -264.5 -560 -299 c 1
 -563 -313 l 1
 -588 -435 l 1
 -443 -435 l 1
 -371 -96 l 1
-704 -163 m 0
 -711 -163 -718 -165 -726 -168 c 0
 -742 -175 -757 -186 -769 -203 c 0
 -777 -214 -782 -225 -784 -236 c 0
 -785.824 -244.715 -786.745 -252.65 -786.745 -259.796 c 0
 -786.745 -287.907 -772.501 -303.811 -743 -307 c 0
 -740 -308 -737 -308 -734 -308 c 0
 -727 -308 -720 -305 -712 -300 c 0
 -689 -286 -675 -265 -669 -237 c 2
 -668 -232 l 1
 -666.66 -223.387 -665.98 -215.581 -665.98 -208.58 c 0
 -665.98 -179.002 -678.125 -163.809 -704 -163 c 0
EndSplineSet
EndChar
StartChar: uni0E3A
Encoding: 180 3642 182
OldEncoding: 3642
Width: 0
Flags: HW
Fore
-259 -60 m 0
 -222 -60 -194 -73 -173 -99 c 0
 -157.25 -120.75 -149.375 -144.188 -149.375 -169.312 c 0
 -149.375 -177.688 -150.25 -186.25 -152 -195 c 0
 -160 -232 -181 -263 -213 -289 c 1
 -245 -316 -279 -330 -316 -330 c 0
 -351 -330 -380 -316 -401 -289 c 0
 -416.349 -269.265 -424.219 -247.393 -424.219 -222.994 c 0
 -424.219 -214.012 -423.153 -204.687 -421 -195 c 0
 -414 -160 -394 -128 -361 -99 c 1
 -329 -73 -295 -60 -259 -60 c 0
EndSplineSet
EndChar
StartChar: uni0E3F
Encoding: 181 3647 183
OldEncoding: 3647
Width: 1250
Flags: HW
HStem: -20 20G<152 541> 717 170<805 842> 1315 280<880 982> 1321 168<468 822>
DStem: 468 1489 629 1321 152 0 536 885 468 1489 501 719 152 0 384 170 541 0 653 2 513 -133 625 -133 694 719 805 717 577 170 690 174 822 1321 933 1319 729 885 842 887
Fore
1059 827 m 1xd0
 1143 802 1202 757 1236 693 c 1
 1257.7 650.88 1268.81 603.465 1268.81 551.016 c 0
 1268.81 521.28 1265.24 489.925 1258 457 c 0
 1230 324 1160 216 1048 133 c 0
 937 50 805 6 653 2 c 1
 625 -133 l 1
 513 -133 l 1
 541 0 l 1
 152 0 l 1
 468 1489 l 1
 857 1489 l 1xd0
 880 1595 l 1
 992 1595 l 1xe0
 969 1489 l 1
 1114 1487 1218 1458 1280 1402 c 0
 1324.04 1362.93 1345.88 1308.23 1345.88 1237.89 c 0
 1345.88 1209.19 1342.24 1177.9 1335 1144 c 0
 1322 1082 1291 1022 1241 965 c 0
 1191 908 1131 865 1061 836 c 1
 1059 827 l 1xd0
729 885 m 1
 822 1321 l 1
 629 1321 l 1
 536 885 l 1
 729 885 l 1
842 887 m 1
 900 888 958 906 1014 941 c 0
 1069 976 1105 1037 1124 1124 c 0
 1128.52 1144.99 1130.75 1164 1130.75 1181.09 c 0
 1130.75 1216.94 1120.96 1244.36 1102 1264 c 0
 1073 1293 1033 1310 982 1315 c 1xe0
 970 1315 954 1316 933 1319 c 1
 842 887 l 1
577 170 m 1
 694 719 l 1
 501 719 l 1
 384 170 l 1
 577 170 l 1
690 174 m 1
 779 178 856 202 921 246 c 0
 988 291 1030 359 1049 449 c 0
 1057.2 486.7 1061.21 519.026 1061.21 545.979 c 0
 1061.21 568.357 1058.44 587.03 1053 602 c 0
 1040 635 1013 662 972 683 c 1
 932 706 877 717 805 717 c 1
 690 174 l 1
EndSplineSet
EndChar
StartChar: uni0E40
Encoding: 182 3648 184
OldEncoding: 3648
Width: 700
Flags: HW
HStem: -11 108<377 416> 1129 20G<411 571>
DStem: 411 1149 571 1149 253 403 413 403
Fore
411 1149 m 1
 571 1149 l 1
 413 403 l 1
 405 369 l 1
 426 388 453 397 487 397 c 1
 580.649 394.639 627.23 348.306 627.23 258.002 c 0
 627.23 233.557 623.817 205.889 617 175 c 1
 584 54 503 -8 377 -11 c 1
 265.802 -8.63408 209.957 47.8419 209.957 157.937 c 0
 209.957 187.443 213.968 220.801 222 258 c 2
 253 403 l 1
 411 1149 l 1
416 97 m 0
 416.894 96.9849 417.782 96.9773 418.666 96.9773 c 0
 476.116 96.9773 512.212 129 526 194 c 0
 529.041 208.392 530.561 221.346 530.561 232.878 c 0
 530.561 278.239 507.041 301.608 460 304 c 1
 407 301 375 265 363 196 c 1
 359.861 181.428 358.281 168.464 358.281 157.109 c 0
 358.281 117.812 377.209 97.7758 416 97 c 0
EndSplineSet
EndChar
StartChar: uni0E41
Encoding: 183 3649 185
OldEncoding: 3649
Width: 1320
Flags: HW
HStem: -11 108<401 440 1016 1055> 1129 20G<435 595 1050 1210>
DStem: 435 1149 595 1149 277 403 437 403 1050 1149 1210 1149 892 403 1052 403
Fore
435 1149 m 1
 595 1149 l 1
 437 403 l 1
 429 369 l 1
 450 388 477 397 511 397 c 1
 604.649 394.639 651.23 348.306 651.23 258.002 c 0
 651.23 233.557 647.817 205.889 641 175 c 1
 608 54 527 -8 401 -11 c 1
 289.802 -8.63408 233.957 47.8419 233.957 157.937 c 0
 233.957 187.443 237.968 220.801 246 258 c 2
 277 403 l 1
 435 1149 l 1
440 97 m 0
 440.894 96.9849 441.782 96.9773 442.666 96.9773 c 0
 500.116 96.9773 536.212 129 550 194 c 0
 553.041 208.392 554.561 221.346 554.561 232.878 c 0
 554.561 278.239 531.041 301.608 484 304 c 1
 431 301 399 265 387 196 c 1
 383.861 181.428 382.281 168.464 382.281 157.109 c 0
 382.281 117.812 401.209 97.7758 440 97 c 0
1050 1149 m 1
 1210 1149 l 1
 1052 403 l 1
 1044 369 l 1
 1065 388 1092 397 1126 397 c 1
 1219.65 394.639 1266.23 348.306 1266.23 258.002 c 0
 1266.23 233.557 1262.82 205.889 1256 175 c 1
 1223 54 1142 -8 1016 -11 c 1
 904.802 -8.63408 848.957 47.8419 848.957 157.937 c 0
 848.957 187.443 852.968 220.801 861 258 c 2
 892 403 l 1
 1050 1149 l 1
1055 97 m 0
 1055.89 96.9849 1056.78 96.9773 1057.67 96.9773 c 0
 1115.12 96.9773 1151.21 129 1165 194 c 0
 1168.04 208.392 1169.56 221.346 1169.56 232.878 c 0
 1169.56 278.239 1146.04 301.608 1099 304 c 1
 1046 301 1014 265 1002 196 c 1
 998.861 181.428 997.281 168.464 997.281 157.109 c 0
 997.281 117.812 1016.21 97.7758 1055 97 c 0
EndSplineSet
EndChar
StartChar: uni0E42
Encoding: 184 3650 186
OldEncoding: 3650
Width: 1100
Flags: HW
HStem: 1603 140<1180 1242>
DStem: 801 1130 962 1132 616 258 799 369
Fore
801 1130 m 2
 810.633 1175.9 815.45 1213.77 815.45 1243.43 c 0
 815.45 1266.12 812.633 1284 807 1297 c 1
 793 1332 755 1363 692 1392 c 128
 629 1421 508 1442 330 1455 c 1
 356 1530 413 1613 500 1706 c 128
 586 1798 694 1844 823 1844 c 0
 879 1844 940 1828 1007 1797 c 1
 1047 1780 1085 1766 1121 1757 c 128
 1157 1748 1197 1743 1242 1743 c 0
 1320 1743 1386 1763 1439 1804 c 1
 1385 1650 l 1
 1319 1619 1250 1603 1180 1603 c 0
 1136 1603 1101 1607 1073 1615 c 128
 1046 1623 999 1641 935 1668 c 1
 887 1689 835 1701 777 1704 c 1
 700 1701 628 1653 562 1560 c 1
 701 1541 802 1509 866 1466 c 128
 929 1422 965 1374 975 1321 c 1
 977.963 1307.17 979.408 1291.07 979.408 1272.7 c 0
 979.408 1235.25 973.404 1188.35 962 1132 c 2
 799 369 l 1
 820 386 848 396 882 397 c 1
 975.773 392.311 1023.14 346.099 1023.14 258.362 c 0
 1023.14 233.823 1019.43 206.036 1012 175 c 1
 986 54 906 -8 771 -11 c 1
 711 -10 666 10 633 50 c 128
 613.126 73.4873 603.408 108.218 603.408 153.755 c 0
 603.408 183.832 607.647 218.622 616 258 c 2
 801 1130 l 2
810 97 m 1
 871 99 908 134 922 201 c 1
 924.968 214.06 926.448 225.868 926.448 236.43 c 0
 926.448 279.242 902.127 301.594 854 304 c 1
 805 303 773 267 757 196 c 0
 753.927 181.952 752.396 169.397 752.396 158.336 c 0
 752.396 119.006 771.756 98.561 810 97 c 1
EndSplineSet
EndChar
StartChar: uni0E43
Encoding: 185 3651 187
OldEncoding: 3651
Width: 1000
Flags: HW
HStem: -11 21G<711.5 811> 1266 112<594 621> 1683 156<876 893>
DStem: 728 913 888 911 589 258 772 369
Fore
888 911 m 2
 772 369 l 1
 787 383 814 392 854 397 c 1
 946.993 394.616 993.238 347.379 993.238 255.29 c 0
 993.238 231.516 990.156 204.753 984 175 c 0
 958 51 878 -11 744 -11 c 0
 679 -11 632 9 602 49 c 128
 584.496 72.3388 575.843 105.891 575.843 149.457 c 0
 575.843 180.558 580.253 216.764 589 258 c 2
 728 913 l 2
 745 990 767 1052 796 1098 c 128
 825 1145 867 1192 922 1240 c 1
 1005 1311 1056 1390 1074 1479 c 0
 1077.53 1495.47 1079.29 1510.88 1079.29 1525.26 c 0
 1079.29 1572 1060.71 1607.76 1024 1633 c 128
 976 1666 926 1682 876 1683 c 1
 900.101 1647.05 912.182 1608.75 912.182 1568.24 c 0
 912.182 1506.21 883.862 1438.98 827 1367 c 1
 758 1300 681 1267 594 1266 c 1
 450 1266.86 378 1322.82 378 1435.14 c 0
 378 1453.86 380 1474.14 384 1496 c 1
 399 1565 433 1627 486 1682 c 1
 591 1781 721 1834 877 1839 c 1
 1016 1839 1111 1799 1162 1720 c 128
 1202.97 1656.97 1223.45 1598.91 1223.45 1546.3 c 0
 1223.45 1532.13 1221.97 1518.36 1219 1505 c 1
 1202 1387 1154 1292 1074 1221 c 0
 1016 1170 975 1126 950 1086 c 128
 925 1048 904 989 888 911 c 2
783 97 m 1
 843 99 880 131 893 194 c 0
 895.722 207.806 897.083 220.288 897.083 231.461 c 0
 897.083 277.752 873.722 301.583 827 304 c 1
 775 301 743 265 730 196 c 1
 728.209 184.535 727.316 174.064 727.316 164.589 c 0
 727.316 121.171 746.062 98.6417 783 97 c 1
666 1629 m 1
 586 1626 536 1584 517 1505 c 1
 514.711 1492.64 513.563 1481.17 513.563 1470.58 c 0
 513.563 1411.81 548.97 1380.54 621 1378 c 1
 716 1380 773 1424 791 1509 c 1
 792.335 1517.79 793.001 1526.09 793.001 1533.91 c 0
 793.001 1596.42 750.434 1628.11 666 1629 c 1
EndSplineSet
EndChar
StartChar: uni0E44
Encoding: 186 3652 188
OldEncoding: 3652
Width: 1030
Flags: HW
HStem: -11 21G<688.5 786> 1326 114<450 480> 1694 145<824 877>
DStem: 850 1594 1013 1608 566 258 749 369
Fore
1013 1608 m 1
 749 369 l 1
 772 384 790 393 805 394 c 128
 819 396 828 397 831 397 c 0
 923.993 395.41 970.238 348.337 970.238 255.779 c 0
 970.238 231.884 967.156 204.958 961 175 c 1
 932 51 851 -11 721 -11 c 0
 656 -11 609 9 579 49 c 128
 561.496 72.3388 552.843 105.891 552.843 149.457 c 0
 552.843 180.558 557.253 216.764 566 258 c 2
 850 1594 l 2
 854.289 1614.53 856.42 1631.86 856.42 1646.04 c 0
 856.42 1678.12 845.502 1694 824 1694 c 1
 823.123 1694.11 822.237 1694.16 821.34 1694.16 c 0
 789.525 1694.16 745.438 1625.14 690 1488 c 1
 633 1380 553 1326 450 1326 c 0
 382 1326 335 1351 309 1400 c 0
 283 1448 262 1577 245 1788 c 1
 394 1788 l 1
 406 1573 l 2
 412 1484 436 1440 480 1440 c 0
 514 1440 545 1464 574 1513 c 0
 579 1523 599 1563 633 1634 c 128
 667 1704 695 1750 717 1771 c 1
 749 1816 802 1839 877 1839 c 0
 974.805 1839 1023.46 1791.1 1023.46 1695.29 c 0
 1023.46 1669.63 1019.97 1640.53 1013 1608 c 1
760 97 m 1
 820 99 857 134 872 201 c 0
 874.655 213.519 875.98 224.886 875.98 235.109 c 0
 875.98 278.783 851.809 301.569 804 304 c 0
 803.311 304.014 802.625 304.02 801.943 304.02 c 0
 752.138 304.02 720.811 268.014 707 196 c 0
 703.927 181.952 702.396 169.397 702.396 158.336 c 0
 702.396 119.006 721.756 98.561 760 97 c 1
EndSplineSet
EndChar
StartChar: uni0E45
Encoding: 187 3653 189
OldEncoding: 3653
Width: 1000
Flags: HW
HStem: 989 160<668 695>
DStem: 878 729 1043 753 642 -380 802 -380
Fore
1043 753 m 2
 802 -380 l 1
 642 -380 l 1
 878 729 l 2
 884.408 758.786 887.606 786.024 887.606 810.707 c 0
 887.606 928.554 814.694 988.173 670 989 c 1
 552 988 465 928 410 811 c 1
 243 837 l 1
 281 927 338 1002 416 1060 c 128
 493 1120 586 1149 693 1149 c 0
 843 1149 945 1114 1000 1046 c 128
 1037.63 998.957 1056.3 939.72 1056.3 867.681 c 0
 1056.3 832.526 1051.85 794.323 1043 753 c 2
EndSplineSet
EndChar
StartChar: uni0E46
Encoding: 188 3654 190
OldEncoding: 3654
Width: 1100
Flags: HW
DStem: 962 817 1116 789 709 -374 869 -374
Fore
481 607 m 1
 543 610 580 647 593 718 c 1
 594.064 725.982 594.598 733.434 594.598 740.354 c 0
 594.598 785.451 571.949 808 526 808 c 0
 471 807 436 775 421 713 c 1
 416.372 697.41 414.058 683.541 414.058 671.379 c 0
 414.058 633.61 436.372 612.295 481 607 c 1
709 -374 m 1
 962 817 l 1
 963.231 829.769 963.846 841.899 963.846 853.391 c 0
 963.846 916.592 945.231 960.461 908 985 c 1
 744 887 l 1
 605 985 l 1
 574 966 548 935 527 892 c 1
 542.581 898.374 558.663 901.738 575.246 901.738 c 0
 582.079 901.738 588.997 901.167 596 900 c 1
 664.934 892.701 699.667 854.491 699.667 785.369 c 0
 699.667 769.258 697.78 751.469 694 732 c 0
 665 585 583 512 449 512 c 0
 446.839 511.993 l 0
 342.083 511.993 289.517 564.696 289.517 669.349 c 0
 289.517 708.846 297.005 755.744 312 810 c 1
 334 877 372 942 425 1005 c 128
 478 1068 550 1118 642 1155 c 1
 641.989 1154.99 641.984 1154.97 641.984 1154.96 c 0
 641.984 1153.23 687.968 1117.24 778 1047 c 1
 945 1155 l 1
 1021 1142 1073 1096 1099 1018 c 128
 1116.06 968.089 1124.33 919.376 1124.33 871.608 c 0
 1124.33 843.768 1121.52 816.248 1116 789 c 2
 869 -374 l 1
 709 -374 l 1
EndSplineSet
EndChar
StartChar: uni0E47
Encoding: 189 3655 191
OldEncoding: 3655
Width: 0
Flags: HW
HStem: 1284 125<-209 -176> 1284 146<-537 -522> 1372 152<-462 -430> 1660 118<-289 -238>
DStem: -104 1636 -104 1636 -128 1633 -67 1634
Fore
-117 1583 m 0x10
 -141 1582 -162 1570 -178 1548 c 1
 -188 1528 l 1
 -191 1517 l 1
 -191.574 1513.27 -191.86 1509.72 -191.86 1506.35 c 0
 -191.86 1486.28 -181.697 1472.71 -162 1465 c 0
 -154 1462 -145 1460 -135 1460 c 0
 -108 1461 -88 1473 -72 1495 c 0
 -67 1502 -64 1510 -62 1519 c 0
 -60.7836 1524.47 -60.1837 1529.62 -60.1837 1534.44 c 0
 -60.1837 1553.38 -69.4603 1567.23 -87 1576 c 0
 -95 1581 -105 1583 -117 1583 c 0x10
-221 1434 m 0
 -242.778 1449.56 -253.667 1470.56 -253.667 1497.47 c 0
 -253.667 1505.16 -252.778 1513.33 -251 1522 c 0
 -249 1533 -245 1544 -240 1553 c 0
 -215 1596 -178 1623 -128 1633 c 0
 -104 1636 l 1
 -67 1634 l 1
 -19 1627 10 1605 21 1566 c 0
 25.1335 1552.05 27.1313 1537.3 27.1313 1521.75 c 0
 27.1313 1507.2 25.3832 1491.95 22 1476 c 0
 15 1447 5 1420 -10 1395 c 0
 -49 1334 -99 1298 -161 1287 c 0
 -173 1285 -184 1284 -195 1284 c 0x90
 -270 1284 -331 1300 -377 1333 c 2
 -419 1362 l 1
 -433 1369 -447 1372 -462 1372 c 0x30
 -483 1372 -498 1354 -508 1318 c 0
 -514 1296 -519 1285 -522 1284 c 0
 -621 1284 -683 1320 -709 1393 c 0
 -715.996 1413.41 -719.593 1435.17 -719.593 1458.29 c 0
 -719.593 1474.83 -717.753 1492.07 -714 1510 c 0
 -710 1529 -704 1546 -697 1563 c 0
 -654 1654 -583 1716 -484 1749 c 0
 -482 1750 -480 1750 -477 1751 c 0
 -423 1768 -352 1777 -263 1778 c 0
 -203 1779 -161 1782 -137 1789 c 0
 -87 1803 -47 1827 -17 1862 c 0
 -8 1872 -0 1883 6 1894 c 1
 148 1894 l 1
 132 1841 92 1790 29 1742 c 0
 -15 1708 -59 1686 -103 1675 c 0
 -137 1666 -194 1661 -275 1660 c 0
 -355 1659 -417 1650 -460 1631 c 0
 -509 1610 -542 1578 -558 1537 c 1
 -567 1505 l 1
 -568 1472 l 1
 -566 1444 -555 1430 -535 1430 c 1x50
 -523 1461 l 1
 -503 1503 -471 1524 -430 1524 c 0x30
 -408 1524 -384 1511 -357 1486 c 0
 -324 1455 -298 1435 -277 1426 c 0
 -251 1415 -220 1409 -186 1409 c 0x90
 -172 1409 -162 1412 -154 1417 c 1
 -187 1418 l 1
 -198 1421 -210 1426 -221 1434 c 0
EndSplineSet
EndChar
StartChar: uni0E48
Encoding: 190 3656 192
OldEncoding: 3656
Width: 0
Flags: HW
Fore
99 2195 m 1
 304 2195 l 1
 197 1826 l 1
 55 1826 l 1
 99 2195 l 1
EndSplineSet
Substitution: 0 65534 'loww' uni0E48.low
Substitution: 0 65534 'amni' uni0E4D
EndChar
StartChar: uni0E49
Encoding: 191 3657 193
OldEncoding: 3657
Width: 0
Flags: HW
HStem: 1882 63<-143 -112> 2102 68<-78 -76>
Fore
525 2156 m 1
 463 2021 355 1910 201 1825 c 0
 80 1758 -43 1718 -168 1706 c 1
 -229 1703 l 1
 -212 1783 l 1
 -178 1791 -148 1810 -120 1840 c 0
 -109 1851 -98 1869 -87 1893 c 1
 -105 1886 -124 1882 -143 1882 c 0
 -177 1882 -206 1895 -230 1920 c 0
 -245.757 1936.47 -253.819 1958.59 -253.819 1985.61 c 0
 -253.819 1996.32 -252.554 2007.8 -250 2020 c 2
 -248 2030 l 1
 -237 2069 -216 2101 -185 2127 c 0
 -153 2153 -118 2167 -78 2170 c 1
 -56 2170 l 1
 -15 2167 15 2158 34 2143 c 0
 43 2135 52 2125 61 2113 c 0
 74.9388 2092.79 82.0774 2069.66 82.0774 2043.96 c 0
 82.0774 2032.79 80.7276 2021.12 78 2009 c 2
 76 1998 l 1
 60 1943 38 1897 9 1862 c 1
 -4 1848 l 1
 120 1891 222 1957 304 2046 c 0
 336 2081 362 2117 383 2156 c 1
 525 2156 l 1
-112 1945 m 0
 -86 1945 -63 1957 -41 1981 c 0
 -29 1994 -21 2009 -18 2024 c 0
 -16.9672 2029.16 -16.4464 2034.16 -16.4464 2038.98 c 0
 -16.4464 2057.5 -24.1311 2073.51 -40 2087 c 0
 -52 2097 -64 2102 -78 2102 c 0
 -106 2102 -130 2090 -153 2066 c 0
 -165 2053 -173 2039 -176 2024 c 0
 -177.2 2018 -177.8 2012.28 -177.8 2006.85 c 0
 -177.8 1985.12 -168.2 1968 -149 1956 c 0
 -138 1949 -126 1945 -112 1945 c 0
EndSplineSet
Substitution: 0 65534 'loww' uni0E49.low
Substitution: 0 65534 'amni' uni0E4D
EndChar
StartChar: uni0E4A
Encoding: 192 3658 194
OldEncoding: 3658
Width: 0
Flags: HW
HStem: 1668 68<-321 -271> 1856 58<-247 -228>
Fore
-197 1799 m 0
 -196.329 1802.86 -195.995 1806.55 -195.995 1810.07 c 0
 -195.995 1827.54 -204.189 1840.85 -220 1850 c 0
 -227 1854 -235 1856 -243 1856 c 2
 -248 1856 l 2
 -274 1854 -293 1841 -307 1817 c 1
 -315 1794 l 1
 -315 1792 l 1
 -316.042 1786.79 -316.562 1781.93 -316.562 1777.42 c 0
 -316.562 1760.26 -309.042 1748.12 -294 1741 c 0
 -287 1738 -280 1736 -271 1736 c 0
 -246 1736 -225 1748 -209 1771 c 0
 -203 1779 -199 1788 -197 1799 c 0
236 1839 m 1
 451 2169 l 1
 586 2169 l 2
 585 2169 518 2057 385 1832 c 0
 335 1747 240 1695 102 1677 c 0
 78 1674 54 1672 30 1672 c 1
 76 1725 106 1781 118 1840 c 0
 122 1858.5 124 1876 124 1892.75 c 0
 124 1909.5 122 1925.5 118 1941 c 0
 109 1974 91 2001 64 2020 c 1
 -103 1902 l 1
 -182 1988 l 1
 -198 2004 -210 2015 -218 2020 c 1
 -269 2001 -307 1966 -332 1915 c 0
 -339 1900 -344 1886 -347 1871 c 0
 -350 1859 -351 1848 -351 1837 c 1
 -347 1846 -338 1859 -323 1875 c 0
 -300 1901 -268 1914 -228 1914 c 0
 -216 1914 -206 1913 -198 1910 c 0
 -159.93 1897.31 -139.964 1870.33 -139.964 1829.05 c 0
 -139.964 1828.04 -139.976 1827.02 -140 1826 c 0
 -140 1820 -140 1814 -141 1807 c 1
 -150 1774 l 1
 -166 1732 -193 1703 -234 1686 c 0
 -261 1674 -290 1668 -321 1668 c 0
 -349 1668 -375 1672 -397 1681 c 0
 -442 1700 -469 1738 -476 1795 c 0
 -477.373 1804.26 -478.039 1814 -478.039 1824.13 c 0
 -478.039 1843.51 -475.598 1864.32 -471 1886 c 0
 -470 1893 -468 1901 -465 1908 c 0
 -445 1980 -390 2044 -300 2101 c 0
 -262 2124 -225 2142 -189 2154 c 1
 -74 2036 l 1
 93 2154 l 1
 146 2135 188 2097 219 2042 c 1
 241.492 2003.55 252.93 1963.51 252.93 1922.66 c 0
 252.93 1907.21 251.293 1891.64 248 1876 c 0
 245 1863 241 1851 236 1839 c 1
EndSplineSet
Substitution: 0 65534 'loww' uni0E4A.low
Substitution: 0 65534 'amni' uni0E4D
EndChar
StartChar: uni0E4B
Encoding: 193 3659 195
OldEncoding: 3659
Width: 0
Flags: HW
HStem: 1812 142<-176 -63 109 221>
DStem: -63 1812 79 1812 -93 1670 49 1670 -2 2096 140 2096 -33 1954 109 1954
Fore
221 1812 m 1
 79 1812 l 1
 49 1670 l 1
 -93 1670 l 1
 -63 1812 l 1
 -205 1812 l 1
 -175 1954 l 1
 -33 1954 l 1
 -2 2096 l 1
 140 2096 l 1
 109 1954 l 1
 251 1954 l 1
 221 1812 l 1
EndSplineSet
Substitution: 0 65534 'loww' uni0E4B.low
Substitution: 0 65534 'amni' uni0E4D
EndChar
StartChar: uni0E4C
Encoding: 194 3660 196
OldEncoding: 3660
Width: 0
Flags: HW
Fore
489 2169 m 1
 462 2122 409 2076 328 2030 c 2
 294 2010 l 2
 261 1989 209 1970 141 1952 c 1
 92 1942 l 1
 137 1932 163 1906 171 1864 c 1
 175 1817 l 1
 171 1789 l 1
 165 1764 149 1734 122 1699 c 0
 94 1662 51 1637 -9 1625 c 0
 -21 1623 -33 1622 -44 1621 c 1
 -87 1624 l 1
 -142 1633 -181 1651 -205 1680 c 2
 -207 1683 l 2
 -225.714 1708.73 -235.307 1738.72 -235.307 1773.91 c 0
 -235.307 1783.85 -234.542 1794.21 -233 1805 c 1
 -228 1831 l 1
 -210 1891 -179 1937 -134 1969 c 0
 -94 1998 -24 2023 77 2044 c 0
 121 2053 149 2060 160 2063 c 0
 211 2079 257 2102 297 2133 c 0
 313 2146 326 2158 334 2169 c 1
 489 2169 l 1
-8 1885 m 0
 -44 1885 -73 1871 -97 1844 c 1
 -112 1821 l 1
 -117 1812 -121 1803 -123 1792 c 0
 -124.167 1787.04 -124.738 1782.08 -124.738 1777.14 c 0
 -124.738 1765.16 -121.374 1753.33 -115 1742 c 1
 -99 1717 -74 1705 -42 1705 c 1
 -0 1710 31 1728 52 1758 c 0
 59 1769 65 1782 68 1795 c 0
 69.6842 1803.21 70.5263 1810.89 70.5263 1818.04 c 0
 70.5263 1844.84 58.6842 1864.16 35 1876 c 0
 23 1882 8 1885 -8 1885 c 0
EndSplineSet
Substitution: 0 65534 'loww' uni0E4C.low
EndChar
StartChar: uni0E4D
Encoding: 195 3661 197
OldEncoding: 3661
Width: 0
Flags: HW
HStem: 1213 72<-4 12> 1441 73<41 60>
Fore
60 1514 m 0
 101 1514 133 1499 156 1470 c 0
 172.618 1448.32 180.362 1423.52 180.362 1395.57 c 0
 180.362 1384.85 179.22 1373.65 177 1362 c 0
 168 1321 146 1286 111 1257 c 0
 76 1228 37 1213 -4 1213 c 0
 -45 1213 -77 1228 -101 1257 c 0
 -117.531 1277.84 -125.797 1301.79 -125.797 1328.83 c 0
 -125.797 1339.41 -124.531 1350.47 -122 1362 c 0
 -114 1404 -91 1440 -56 1470 c 0
 -20 1499 18 1514 60 1514 c 0
10 1285 m 0
 32 1285 52 1292 71 1307 c 0
 90 1322 102 1341 107 1362 c 0
 107.985 1367.17 108.485 1372.22 108.485 1377.13 c 0
 108.485 1392.17 103.799 1405.94 94 1418 c 0
 82 1433 65 1441 43 1441 c 0
 22 1441 2 1433 -18 1418 c 0
 -37 1402 -49 1383 -53 1362 c 0
 -54.3889 1356.17 -55.0833 1350.49 -55.0833 1345.01 c 0
 -55.0833 1330.75 -50.3889 1317.83 -41 1307 c 0
 -28 1292 -11 1285 10 1285 c 0
EndSplineSet
Substitution: 0 65534 'G007' uni0E4B
Substitution: 0 65534 'G006' uni0E4A
Substitution: 0 65534 'G005' uni0E49
Substitution: 0 65534 'G004' uni0E48
EndChar
StartChar: uni0E4E
Encoding: 196 3662 198
OldEncoding: 3662
Width: 0
Flags: HW
HStem: 1444 110<84 172> 1686 112<115 190> 1925 111<123 166>
Fore
302 1901 m 1
 242 1917 188 1925 139 1925 c 0
 55 1925 8 1905 -0 1866 c 0
 -0.862069 1862.12 -1.2931 1858.4 -1.2931 1854.85 c 0
 -1.2931 1817.21 47.1379 1798 144 1798 c 2
 214 1798 l 1
 190 1686 l 1
 125 1686 l 2
 1 1686 -66 1666 -74 1626 c 0
 -74.625 1623.5 -74.9375 1621.05 -74.9375 1618.64 c 0
 -74.9375 1601.8 -59.625 1587.25 -29 1575 c 0
 5 1561 54 1554 117 1554 c 2
 195 1554 l 1
 172 1444 l 1
 88 1444 l 2
 -12 1444 -87 1461 -138 1495 c 128
 -181.128 1523.75 -202.087 1556.79 -202.087 1594.73 c 0
 -202.087 1601.66 -201.389 1608.75 -200 1616 c 0
 -194 1644 -178 1670 -153 1694 c 128
 -128 1717 -98 1734 -64 1743 c 1
 -105.16 1766.4 -125.477 1798.93 -125.477 1840.57 c 0
 -125.477 1850.53 -124.315 1861 -122 1872 c 0
 -112 1921 -82 1961 -33 1991 c 0
 16 2021 78 2036 154 2036 c 0
 210 2036 267 2028 326 2013 c 1
 302 1901 l 1
EndSplineSet
EndChar
StartChar: uni0E4F
Encoding: 197 3663 199
OldEncoding: 3663
Width: 1250
Flags: HW
HStem: -21 121<607 640> 258 103<671 696> 658 105<755 778> 917 123<810 839>
Fore
812 917 m 0
 699 917 593 877 496 797 c 0
 399 717 338 621 314 508 c 0
 307.455 477.182 304.182 447.628 304.182 419.319 c 0
 304.182 343.826 327.455 277.182 374 219 c 0
 437 140 525 100 638 100 c 0
 752 100 857 140 955 219 c 0
 1052 299 1113 395 1137 508 c 0
 1143.55 538.818 1146.82 568.372 1146.82 596.681 c 0
 1146.82 672.174 1123.55 738.818 1077 797 c 0
 1014 877 925 917 812 917 c 0
694 361 m 0
 738 361 778 375 813 403 c 0
 847 431 869 466 878 509 c 0
 880.648 521.652 881.998 533.698 881.998 545.112 c 0
 881.998 572.492 874.233 596.238 858 616 c 0
 835 644 802 658 757 658 c 0
 712 658 673 644 638 616 c 0
 603 588 581 552 572 509 c 0
 569.469 496.906 568.203 485.445 568.203 474.595 c 0
 568.203 446.866 576.469 423.125 593 403 c 0
 615 375 649 361 694 361 c 0
837 1040 m 0
 981 1040 1093 988 1173 884 c 0
 1229.74 810.027 1258.1 724.707 1258.1 628.04 c 0
 1258.1 590.107 1253.74 550.427 1245 509 c 0
 1214 363 1137 238 1013 134 c 0
 890 31 756 -21 612 -21 c 0
 469 -21 358 31 278 134 c 0
 220.975 209.071 192.087 295.083 192.087 392.037 c 0
 192.087 429.4 196.377 468.388 205 509 c 0
 236 656 314 781 438 884 c 0
 561 988 694 1040 837 1040 c 0
671 258 m 0
 597 258 541 282 504 330 c 0
 478.024 362.997 464.863 402.894 464.863 449 c 0
 464.863 468.566 467.233 489.25 472 511 c 0
 487 584 524 644 581 692 c 0
 638 739 704 763 778 763 c 0
 852 763 908 739 945 692 c 0
 972.099 657.77 985.467 617.438 985.467 570.64 c 0
 985.467 551.814 983.303 531.942 979 511 c 0
 963 438 926 377 868 330 c 1
 811 282 745 258 671 258 c 0
EndSplineSet
EndChar
StartChar: uni0E50
Encoding: 198 3664 200
OldEncoding: 3664
Width: 1250
Flags: HW
HStem: -10 173<620 660> 751 173<785 818>
Fore
660 163 m 0
 746 163 826 192 900 250 c 128
 974 308 1019 377 1036 457 c 0
 1040.65 478.422 1042.96 499.044 1042.96 518.833 c 0
 1042.96 575.717 1023.84 625.711 986 668 c 0
 937 723 870 751 785 751 c 0
 700 750 622 721 550 663 c 0
 480 606 436 537 419 457 c 0
 414.272 434.147 411.89 412.26 411.89 391.376 c 0
 411.89 332.753 430.659 282.027 469 240 c 0
 515 189 579 163 660 163 c 0
620 -10 m 0
 501 -10 405 28 332 105 c 0
 268.109 172.491 235.799 256.177 235.799 356.058 c 0
 235.799 367.172 236.199 378.486 237 390 c 0
 239 412 242 435 247 458 c 0
 272 576 334 679 432 767 c 0
 526 850 631 901 747 918 c 0
 771 922 795 924 818 924 c 1
 881 921 l 1
 993 907 1081 860 1144 779 c 0
 1194.3 714 1219.45 639.419 1219.45 555.258 c 0
 1219.45 530.658 1217.3 505.238 1213 479 c 0
 1212 472 1211 465 1209 458 c 0
 1186 347 1126 247 1030 159 c 0
 937 74 832 20 716 -1 c 0
 684 -7 652 -10 620 -10 c 0
EndSplineSet
EndChar
StartChar: uni0E51
Encoding: 199 3665 201
OldEncoding: 3665
Width: 1300
Flags: HW
HStem: 203 160<615 642> 409 76<707 750> 603 84<773 799> 765 159<784 808>
VStem: 1042 174<529 570>
Fore
1042 529 m 0
 1042.15 533.372 1042.22 537.683 1042.22 541.934 c 0
 1042.22 652.423 992.184 722.111 893 751 c 0
 861 760 826 765 786 765 c 0
 714 765 649 740 593 690 c 0
 571 671 554 651 541 629 c 0
 523 600 511 571 505 541 c 0
 501.593 525.67 499.799 510.663 499.799 496.344 c 0
 499.799 485.443 500.839 474.941 503 465 c 0
 504 460 505 456 507 452 c 0
 524 395 569 366 641 363 c 0
 644 363 647 363 650 362 c 0
 663 362 676 364 689 368 c 0
 720 377 741 390 752 409 c 1
 756 421 l 1
 743 413 727 409 707 409 c 1
 674 412 l 1
 663 415 655 418 648 422 c 0
 616.029 440.407 600.953 471.017 600.953 514.737 c 0
 600.953 516.144 600.969 517.565 601 519 c 1
 606 550 l 1
 618 599 648 637 696 663 c 0
 707 669 718 674 729 677 c 0
 751 684 774 687 799 687 c 0
 826 687 851 683 873 675 c 0
 911 662 937 632 950 585 c 0
 954 574 956 564 957 553 c 0
 957.9 543.4 958.35 533.98 958.35 524.713 c 0
 958.35 503.09 955.9 482.3 951 462 c 0
 944 426 929 392 908 360 c 0
 860 289 797 242 717 218 c 0
 685 208 650 203 615 203 c 0
 522 203 447 232 389 291 c 0
 367 314 350 339 337 367 c 0
 324.942 393.986 318.819 425.918 318.819 462.605 c 0
 318.819 489.813 322.187 519.637 329 552 c 0
 341 606 360 653 386 692 c 0
 388 694 389 696 390 697 c 0
 485 832 608 906 757 921 c 0
 774 923 791 924 808 924 c 2
 884 921 l 1
 1046 904 1150 836 1194 715 c 0
 1209 674.677 1216.09 629.957 1216.09 580.016 c 0
 1216.09 576.701 1216.06 573.362 1216 570 c 0
 1216 531 1212 492 1203 453 c 0
 1179 338 1125 240 1041 159 c 0
 946 66 821 12 664 -4 c 0
 638 -7 610 -9 581 -10 c 1
 512 -8 l 1
 402 1 313 31 245 82 c 0
 232 93 220 104 209 115 c 1
 325 254 l 1
 377 197 451 162 546 149 c 0
 566 146 585 145 605 145 c 2
 612 145 l 2
 699 146 783 172 862 223 c 0
 879 234 896 246 911 259 c 0
 967 307 1007 371 1030 450 c 1
 1039 501 l 1
 1041 511 1042 520 1042 529 c 0
701 545 m 0
 699.967 539.836 699.446 535.014 699.446 530.515 c 0
 699.446 513.233 707.131 500.728 723 492 c 0
 730 487 739 485 750 485 c 0
 781 485 804 500 818 529 c 0
 822 535 824 541 825 548 c 0
 825.976 552.1 826.457 556.009 826.457 559.728 c 0
 826.457 575.057 818.29 587.148 803 596 c 0
 794 601 785 603 773 603 c 0
 746 602 726 591 711 568 c 0
 706 561 703 553 701 545 c 0
EndSplineSet
EndChar
StartChar: uni0E52
Encoding: 200 3666 202
OldEncoding: 3666
Width: 1350
Flags: HW
HStem: 0 173<628 1078> 343 110<732 751>
DStem: 1149 506 1322 506 1078 174 1214 0
Fore
700 513 m 0
 698.967 508.043 698.446 503.341 698.446 498.905 c 0
 698.446 481.863 706.131 468.728 722 460 c 0
 729 455 739 453 749 453 c 0
 781 453 803 468 818 497 c 0
 821 503 823 509 825 516 c 0
 825.716 519.757 826.079 523.354 826.079 526.791 c 0
 826.079 542.565 818.422 554.968 802 564 c 0
 794 569 784 571 772 571 c 0
 746 570 725 559 710 536 c 0
 705 529 702 521 700 513 c 0
656 0 m 2
 582 0 525 1 485 4 c 0
 445 6 399 35 347 92 c 0
 338 101 330 110 323 120 c 0
 303.039 144.397 293.463 185.19 293.463 241.572 c 0
 293.463 261.454 294.654 283.276 297 307 c 1
 338 611 l 1
 345.236 679.745 348.807 746.396 348.807 811 c 0
 348.807 924.949 337.698 1032.53 316 1134 c 1
 510 1134 l 1
 523.882 1054.31 530.891 965.098 530.891 866.236 c 0
 530.891 772.815 524.632 670.774 512 560 c 0
 496 426 488 351 488 334 c 0
 487.662 327.069 487.495 320.538 487.495 314.402 c 0
 487.495 284.243 491.521 263.633 499 252 c 0
 526 210 557 185 593 178 c 0
 608 175 632 173 664 173 c 2
 694 173 l 1
 1078 174 l 1
 1149 506 l 2
 1155.04 535.714 1158.05 563.273 1158.05 588.576 c 0
 1158.05 617.772 1154.04 643.964 1146 667 c 0
 1135 695 1120 719 1101 738 c 2
 1094 744 l 1
 1094 743 1054 720 975 674 c 1
 876 744 l 1
 849 733 823 711 797 679 c 1
 824 679 l 1
 861 675 892 657 915 624 c 0
 921 616 926 607 929 598 c 0
 935.25 580.5 938.375 562.609 938.375 544.328 c 0
 938.375 533.359 937.25 522.25 935 511 c 0
 926 469 902 430 864 394 c 0
 828 360 784 343 732 343 c 0
 709 343 686 347 664 355 c 0
 655 358 646 363 638 368 c 0
 592.342 395.694 569.093 440.756 569.093 502.347 c 0
 569.093 523.042 571.718 545.604 577 570 c 2
 581 586 l 1
 600 664 638 732 694 790 c 0
 719 816 758 845 811 877 c 0
 850 900 885 915 914 924 c 1
 914 923 946 892 1009 831 c 1
 1132 924 l 1
 1173 913 1212 887 1247 847 c 1
 1273 815 l 1
 1275 813 l 2
 1306 765 1325 720 1331 679 c 0
 1333.91 661.545 1335.36 642.769 1335.36 622.718 c 0
 1335.36 587.628 1330.91 548.636 1322 506 c 2
 1214 0 l 1
 656 0 l 2
EndSplineSet
EndChar
StartChar: uni0E53
Encoding: 201 3667 203
OldEncoding: 3667
Width: 1400
Flags: HW
HStem: 0 21G<1053 1229> 753 171<570 599 1141 1163>
Fore
344 136 m 0
 345 114 356 100 377 94 c 1
 398 92 l 1
 402 93 407 93 411 94 c 0
 443 103 462 122 468 152 c 0
 470 159 470 165 470 171 c 0
 469 191 458 204 436 209 c 1
 415 210 l 1
 410 209 406 208 402 207 c 0
 375 200 357 184 348 160 c 1
 344 140 l 1
 344 139 344 137 344 136 c 0
214 108 m 0
 199.273 168.545 191.909 248.504 191.909 347.328 c 0
 191.909 369.289 192.273 392.182 193 416 c 0
 196 476 201 524 208 561 c 1
 225 622 l 1
 263 738 325 822 410 873 c 0
 465 907 528 924 599 924 c 1
 654 922 l 1
 738 913 801 878 843 819 c 0
 855 802 863 785 868 768 c 1
 916 829 973 873 1041 900 c 0
 1081 916 1122 924 1163 924 c 0
 1335.86 924 1422.29 834.485 1422.29 655.454 c 0
 1422.29 606.628 1415.86 551.143 1403 489 c 1
 1377 387 l 1
 1346 276 1296 147 1229 0 c 1
 1053 0 l 1
 1134 188 1188 328 1214 419 c 1
 1238 511 l 1
 1246.02 551.329 1250.02 586.638 1250.02 616.912 c 0
 1250.02 707.497 1214.2 753 1143 753 c 0
 1083 753 1029 723 981 663 c 0
 958 634 941 603 928 570 c 0
 892 475 860 373 831 264 c 0
 826 245 823 229 820 216 c 1
 690 216 l 1
 706 292 716 392 718 515 c 0
 719.172 529.059 719.657 541.402 719.657 552.23 c 0
 719.657 559.887 719.414 566.787 719 573 c 0
 715 645 693 697 651 728 c 0
 629 745 603 753 572 753 c 0
 483 753 423 701 391 597 c 1
 377 540 l 1
 366.187 491.025 361.038 444.477 361.038 400.1 c 0
 361.038 374.705 362.724 350.021 366 326 c 2
 368 314 l 1
 396 326 424 332 454 332 c 0
 493 332 524 321 547 300 c 0
 575.88 273.4 590.32 240.446 590.32 201.578 c 0
 590.32 189.304 588.88 176.44 586 163 c 0
 579 133 565 102 544 70 c 0
 512 22 461 -5 392 -11 c 1
 346 -11 l 2
 343 -10 341 -10 339 -10 c 0
 276 -3 236 32 218 94 c 0
 216 99 215 103 214 108 c 0
EndSplineSet
EndChar
StartChar: uni0E54
Encoding: 202 3668 204
OldEncoding: 3668
Width: 1550
Flags: HW
HStem: -6 164<579 624> 580 112<1158 1183> 762 162<837 1116>
Fore
1730 1262 m 1
 1680 1097 1600 972 1488 888 c 0
 1376 804 1238 762 1075 762 c 2
 815 762 l 2
 582 762 444 662 401 461 c 0
 395.177 434.032 392.266 408.473 392.266 384.38 c 0
 392.266 329.855 407.177 282.839 437 244 c 128
 480 186 542 158 624 158 c 0
 685 158 807 182 991 231 c 1
 961 257 938 292 922 335 c 0
 911.614 362.912 906.285 390.402 906.285 416.924 c 0
 906.285 431.261 907.842 445.315 911 459 c 0
 926 533 959 590 1010 631 c 0
 1061 672 1119 692 1183 692 c 0
 1236 692 1277 673 1306 636 c 0
 1327.81 609.106 1338.52 578.514 1338.52 544.223 c 0
 1338.52 531.338 1337 517.93 1334 504 c 0
 1324 455 1297 411 1255 374 c 0
 1213 337 1163 317 1105 313 c 1
 1129 282 1159 262 1195 254 c 0
 1295 229 1368 193 1413 145 c 1
 1253 -2 l 1
 1232 22 1207 41 1178 55 c 0
 1149 69 1105 76 1046 76 c 0
 1003 76 938 64 850 40 c 0
 737 9 647 -6 579 -6 c 0
 453 -6 356 40 287 132 c 128
 238.895 197.084 214.311 272.177 214.311 357.633 c 0
 214.311 392.974 218.516 430.089 227 469 c 0
 258 618 332 731 449 808 c 128
 565 885 705 924 868 924 c 2
 1114 924 l 2
 1326 924 1470 1037 1546 1262 c 1
 1730 1262 l 1
1127 428 m 0
 1148 428 1167 435 1186 450 c 0
 1203 464 1214 481 1219 502 c 0
 1220.12 508.162 1220.69 514.089 1220.69 519.759 c 0
 1220.69 534.33 1216.92 547.202 1209 558 c 0
 1197 573 1181 580 1159 580 c 0
 1139 580 1119 572 1102 558 c 128
 1084 542 1072 524 1068 502 c 0
 1066.59 496.074 1065.89 490.466 1065.89 485.154 c 0
 1065.89 471.644 1070.39 460.049 1079 450 c 0
 1090 435 1106 428 1127 428 c 0
EndSplineSet
EndChar
StartChar: uni0E55
Encoding: 203 3669 205
OldEncoding: 3669
Width: 1550
Flags: HW
HStem: -6 164<579 624> 580 112<1158 1183> 762 160<981 1075> 1073 113<1021 1045>
Fore
1730 1262 m 1
 1680 1097 1600 972 1488 888 c 0
 1376 804 1238 762 1075 762 c 2
 815 762 l 2
 582 762 444 662 401 461 c 0
 395.177 434.032 392.266 408.473 392.266 384.38 c 0
 392.266 329.855 407.177 282.839 437 244 c 128
 480 186 542 158 624 158 c 0
 685 158 807 182 991 231 c 1
 961 257 938 292 922 335 c 0
 911.614 362.912 906.285 390.402 906.285 416.924 c 0
 906.285 431.261 907.842 445.315 911 459 c 0
 926 533 959 590 1010 631 c 0
 1061 672 1119 692 1183 692 c 0
 1236 692 1277 673 1306 636 c 0
 1327.81 609.106 1338.52 578.514 1338.52 544.223 c 0
 1338.52 531.338 1337 517.93 1334 504 c 0
 1324 455 1297 411 1255 374 c 0
 1213 337 1163 317 1105 313 c 1
 1129 282 1159 262 1193 254 c 0
 1293 229 1366 193 1411 145 c 1
 1253 -2 l 1
 1232 22 1207 41 1178 55 c 0
 1149 69 1105 76 1046 76 c 0
 1003 76 938 64 850 40 c 0
 737 9 647 -6 579 -6 c 0
 453 -6 356 40 287 132 c 128
 238.895 197.084 214.311 272.177 214.311 357.633 c 0
 214.311 392.974 218.516 430.089 227 469 c 0
 255 602 321 709 423 788 c 0
 526 867 656 912 814 922 c 1
 811.5 935 810.25 947.75 810.25 960.25 c 0
 810.25 972.75 811.5 985 814 997 c 0
 825 1049 853 1093 898 1130 c 0
 943 1167 992 1186 1045 1186 c 0
 1097 1186 1138 1167 1167 1130 c 0
 1188.81 1103.11 1199.52 1072.51 1199.52 1037.84 c 0
 1199.52 1024.81 1198 1011.2 1195 997 c 0
 1189 970 1180 947 1166 926 c 1
 1350 945 1477 1057 1546 1262 c 1
 1730 1262 l 1
989 922 m 0
 1009 922 1028 929 1047 944 c 0
 1064 958 1075 975 1079 995 c 0
 1080.53 1001.75 1081.31 1008.12 1081.31 1014.14 c 0
 1081.31 1027.76 1077.32 1039.6 1069 1050 c 0
 1058 1065 1042 1073 1021 1073 c 0
 1000 1073 980 1066 962 1050 c 128
 944 1036 933 1017 928 995 c 0
 927.015 990.076 926.515 985.333 926.515 980.773 c 0
 926.515 966.811 931.201 954.553 941 944 c 0
 952 929 968 922 989 922 c 0
1127 428 m 0
 1148 428 1167 435 1186 450 c 0
 1203 464 1214 481 1219 502 c 0
 1220.12 508.162 1220.69 514.089 1220.69 519.759 c 0
 1220.69 534.33 1216.92 547.202 1209 558 c 0
 1197 573 1181 580 1159 580 c 0
 1139 580 1119 572 1102 558 c 128
 1084 542 1072 524 1068 502 c 0
 1066.59 496.074 1065.89 490.466 1065.89 485.154 c 0
 1065.89 471.644 1070.39 460.049 1079 450 c 0
 1090 435 1106 428 1127 428 c 0
EndSplineSet
EndChar
StartChar: uni0E56
Encoding: 204 3670 206
OldEncoding: 3670
Width: 1300
Flags: HW
HStem: -16 155<716 751> 481 113<655 677> 760 168<813 850>
Fore
610 885 m 1
 692 914 772 928 850 928 c 0
 1010 928 1131 883 1212 792 c 0
 1272.14 726.789 1301.83 646.353 1301.83 551.072 c 0
 1301.83 514.853 1297.54 476.488 1289 436 c 0
 1260 301 1191 191 1082 108 c 0
 973 25 851 -16 716 -16 c 0
 604 -16 519 20 459 91 c 0
 414.796 144.194 392.484 204.124 392.484 269.949 c 0
 392.484 291.983 394.984 314.677 400 338 c 0
 416 413 450 474 503 522 c 0
 556 570 615 594 677 594 c 0
 729 594 770 575 799 538 c 0
 820.806 511.106 831.517 480.514 831.517 446.223 c 0
 831.517 433.338 830.004 419.93 827 406 c 0
 817 356 790 313 749 276 c 0
 708 239 658 219 601 215 c 1
 608 195 626 177 656 162 c 0
 686 147 717 139 749 139 c 0
 836 139 914 166 982 222 c 128
 1050 276 1094 348 1113 436 c 0
 1118.8 463.355 1121.7 489.107 1121.7 513.298 c 0
 1121.7 576.655 1101.8 629.303 1062 672 c 0
 1007 731 925 760 815 760 c 0
 702 760 596 741 497 702 c 1
 448 945 376 1131 280 1262 c 1
 528 1262 l 1
 580 1141 607 1015 610 885 c 1
623 330 m 0
 644 330 663 337 681 352 c 0
 699 366 710 383 715 403 c 0
 716.1 409.048 716.67 414.87 716.67 420.423 c 0
 716.67 435.069 712.701 447.849 704 458 c 128
 692 474 676 481 655 481 c 0
 635 481 615 473 597 458 c 1
 579 443 567 425 563 403 c 0
 561.611 397.444 560.917 392.12 560.917 387.028 c 0
 560.917 373.787 565.611 362.111 575 352 c 0
 586 337 602 330 623 330 c 0
EndSplineSet
EndChar
StartChar: uni0E57
Encoding: 205 3671 207
OldEncoding: 3671
Width: 1540
Flags: HW
HStem: -16 112<390 413> 0 178<1057 1095> 248 114<444 472> 760 164<568 602 961 995>
DStem: 1469 1130 1657 1130 1301 338 1488 334
Fore
1488 334 m 2x70
 1441 111 1297 -0 1057 0 c 2
 791 0 l 1x70
 793 10 l 1
 829 53 867 117 908 203 c 0
 949 289 977 367 992 436 c 0
 1011.74 529.771 1021.33 601.891 1021.33 653.473 c 0
 1021.33 664.601 1020.89 674.773 1020 684 c 128
 1015 734 995 760 961 760 c 0
 887 760 829 662 787 467 c 1
 613 467 l 1
 628.474 538.842 636.211 597.518 636.211 642.978 c 0
 636.211 720.909 613.474 760 568 760 c 0
 499 760 442 652 396 436 c 0
 387.459 395.857 382.565 368.116 382.565 354.022 c 0
 382.565 351.614 382.708 349.605 383 348 c 1
 405 357 435 362 472 362 c 0
 526 362 567 343 595 306 c 0
 615.339 278.397 625.125 247.102 625.125 212.496 c 0
 625.125 199.46 623.736 185.955 621 172 c 0
 610 120 581 76 536 39 c 0
 490 2 442 -16 390 -16 c 0xb0
 306 -16 250 23 219 101 c 0
 204.123 139.68 196.623 186.722 196.623 242.003 c 0
 196.623 298.197 204.373 362.906 220 436 c 0
 289 761 416 924 602 924 c 0
 694 924 749 875 767 776 c 1
 829 875 905 924 995 924 c 0
 1130.53 924 1198.1 837.462 1198.1 664.771 c 0
 1198.1 600.457 1188.72 524.193 1170 436 c 0
 1151 349 1121 263 1080 178 c 1
 1095 178 l 2
 1210 178 1278 231 1301 338 c 2
 1469 1130 l 1
 1657 1130 l 1
 1488 334 l 2x70
413 96 m 0xb0
 443 96 468 109 488 135 c 0
 497 147 503 160 506 174 c 0
 507.286 180.214 507.929 186.061 507.929 191.551 c 0
 507.929 211.679 499.286 227 482 238 c 0
 471 245 459 248 446 248 c 0
 416 248 392 236 372 211 c 0
 363 200 357 187 354 174 c 0
 352.447 167.123 351.682 160.64 351.682 154.551 c 0
 351.682 133.19 361.102 116.673 379 105 c 0
 389 99 401 96 413 96 c 0xb0
EndSplineSet
EndChar
StartChar: uni0E58
Encoding: 206 3672 208
OldEncoding: 3672
Width: 1580
Flags: HW
HStem: -12 166<1152 1188> 309 115<1268 1296> 575 113<1326 1350>
Fore
1730 1262 m 1
 1681 1099 1600 975 1488 888 c 0
 1406 825 1291 787 1144 776 c 0
 1118 774 1037 772 899 769 c 0
 769 766 672 753 608 728 c 0
 541 701 489 659 454 600 c 1
 430 555 l 1
 418 527 408 496 401 461 c 0
 395.22 434.14 392.33 408.667 392.33 384.582 c 0
 392.33 337.827 403.22 296.3 425 260 c 0
 458 205 506 175 568 170 c 1
 585 251 616 318 659 370 c 128
 702 423 752 449 808 449 c 0
 843 449 877 439 909 420 c 0
 941 401 980 357 1024 287 c 0
 1062 228 1093 191 1115 176 c 0
 1139 161 1163 154 1188 154 c 0
 1226 154 1261 169 1293 200 c 0
 1323 230 1344 271 1357 324 c 1
 1335 314 1306 309 1268 309 c 0
 1214 309 1174 328 1146 366 c 0
 1125.75 392.754 1115.44 423.691 1115.44 458.433 c 0
 1115.44 471.737 1116.95 485.6 1120 500 c 0
 1131 551 1159 595 1204 632 c 0
 1250 669 1298 688 1350 688 c 0
 1425 688 1480 660 1515 603 c 0
 1537.69 566.056 1549.03 521.969 1549.03 470.742 c 0
 1549.03 442.932 1545.69 413.018 1539 381 c 0
 1513 258 1464 161 1394 92 c 0
 1323 23 1242 -12 1152 -12 c 0
 1108 -12 1065 1 1023 28 c 0
 981 54 934 110 882 196 c 0
 846 254 820 283 803 283 c 0
 774 283 750 236 730 141 c 2
 700 0 l 1
 575 0 l 2
 446 0 349 45 282 134 c 0
 236.761 195.943 213.804 269.028 213.804 352.916 c 0
 213.804 389.559 218.184 428.263 227 469 c 0
 258 615 332 728 449 808 c 0
 538 869 658 906 808 917 c 0
 824 918 901 921 1039 925 c 0
 1166 929 1262 944 1325 971 c 0
 1431 1015 1503 1102 1539 1232 c 0
 1542 1242 1544 1252 1546 1262 c 1
 1730 1262 l 1
1294 424 m 0
 1324 424 1349 437 1368 462 c 0
 1377 473 1383 485 1386 498 c 0
 1387.55 504.877 1388.32 511.36 1388.32 517.438 c 0
 1388.32 538.761 1378.9 555.106 1361 566 c 1
 1341 574 l 1
 1326 575 l 2
 1296 575 1270 562 1251 535 c 1
 1238 513 l 1
 1236 508 1235 503 1234 498 c 0
 1232.71 491.786 1232.07 485.939 1232.07 480.449 c 0
 1232.07 460.321 1240.71 445 1258 434 c 0
 1268 427 1280 424 1294 424 c 0
EndSplineSet
EndChar
StartChar: uni0E59
Encoding: 207 3673 209
OldEncoding: 3673
Width: 1500
Flags: HW
HStem: -16 112<390 413> 248 114<444 472> 555 166<1238 1259> 760 164<629 663 1036 1070>
DStem: 737 546 896 604 825 0 999 0
Fore
1639 1130 m 1
 1582 912 1521 762 1454 679 c 0
 1387 596 1315 555 1238 555 c 0
 1206 555 1177 564 1152 582 c 0
 1127 599 1103 637 1081 696 c 0
 1065 739 1050 760 1036 760 c 0
 1002 760 955 708 896 604 c 1
 999 0 l 1
 825 0 l 1
 737 546 l 1
 725 616 712 669 696 706 c 0
 681 742 659 760 629 760 c 0
 576 760 529 732 489 676 c 128
 449 620 418 540 396 436 c 0
 387 395 383 366 383 348 c 1
 405 357 435 362 472 362 c 0
 526 362 567 343 595 306 c 0
 615.339 278.397 625.125 247.102 625.125 212.496 c 0
 625.125 199.46 623.736 185.955 621 172 c 0
 610 120 581 76 536 39 c 0
 490 2 442 -16 390 -16 c 0
 306 -16 250 23 219 101 c 0
 204.123 139.68 196.623 186.722 196.623 242.003 c 0
 196.623 298.197 204.373 362.906 220 436 c 0
 253 593 308 714 384 798 c 0
 460 882 553 924 663 924 c 0
 767 924 835 875 867 776 c 1
 931 875 998 924 1070 924 c 0
 1095 924 1118 916 1138 900 c 128
 1158 884 1179 849 1202 794 c 0
 1222 745 1241 721 1257 721 c 0
 1317 721 1382 857 1454 1130 c 1
 1639 1130 l 1
413 96 m 0
 434 96 453 103 471 118 c 0
 490 133 501 152 506 174 c 0
 507 179 507.5 183.812 507.5 188.453 c 0
 507.5 202.375 503 214.75 494 226 c 0
 482 241 466 248 446 248 c 128
 425 248 406 241 388 226 c 0
 370 211 358 194 354 174 c 0
 352.589 167.792 351.895 161.902 351.895 156.285 c 0
 351.895 142 356.386 129.485 365 118 c 128
 376 104 393 96 413 96 c 0
EndSplineSet
EndChar
StartChar: uni0E5A
Encoding: 208 3674 210
OldEncoding: 3674
Width: 1400
Flags: HW
HStem: 0 21G<845 1025 1065 1253> 646 212<507 624>
DStem: 1010 777 1263 1120 845 0 1025 0 1303 1120 1491 1120 1065 0 1253 0
Fore
1263 1120 m 1
 1025 0 l 1
 845 0 l 1
 1010 777 l 1
 944 728 885 695 833 678 c 1
 772 662 l 1
 723 651 674 646 624 646 c 0
 530 646 456 663 402 698 c 1
 361 721 333 758 319 808 c 0
 313.667 825.333 311 842.667 311 859.704 c 0
 311 868.222 311.667 876.667 313 885 c 0
 324 950 357 1005 414 1049 c 0
 452 1079 495 1097 540 1103 c 0
 551.625 1104.69 562.793 1105.53 573.51 1105.53 c 0
 619.953 1105.53 657.938 1089.69 688 1058 c 0
 713.001 1031.08 725.058 997.678 725.058 957.808 c 0
 725.058 956.216 725.038 954.613 725 953 c 0
 722 895 691 845 633 803 c 1
 640.773 799.318 651.558 797.477 665.424 797.477 c 0
 685.452 797.477 711.909 801.318 745 809 c 0
 872 840 968 906 1032 1008 c 0
 1053 1042 1070 1079 1083 1120 c 1
 1263 1120 l 1
528 994 m 0
 499 989 477 975 462 951 c 1
 452 929 l 1
 449 909 l 1
 450 886 461 871 483 862 c 0
 491 859 499 858 507 858 c 0
 510 858 513 858 517 859 c 0
 550 864 574 879 590 904 c 0
 595 912 599 920 600 929 c 0
 601 932 601 934 601 937 c 0
 601.167 938.917 601.25 940.799 601.25 942.645 c 0
 601.25 962.951 591.167 978.917 571 989 c 0
 562 993 552 995 542 995 c 0
 538 995 533 995 528 994 c 0
1253 0 m 1
 1065 0 l 1
 1303 1120 l 1
 1491 1120 l 1
 1253 0 l 1
EndSplineSet
EndChar
